<?xml version="1.0" standalone="no"?>
<!DOCTYPE svg PUBLIC "-//W3C//DTD SVG 1.1//EN" "http://www.w3.org/Graphics/SVG/1.1/DTD/svg11.dtd" >
<svg xmlns="http://www.w3.org/2000/svg" xmlns:xlink="http://www.w3.org/1999/xlink" version="1.1">
<metadata>
Created by FontForge 20170731 at Tue Dec 12 17:12:31 2017
 By Aleksey,,,
</metadata>
<defs>
<font id="PoppinsVN-400i" horiz-adv-x="662" >
  <font-face 
    font-family="PoppinsVN 400i"
    font-weight="400"
    font-style="italic"
    font-stretch="normal"
    units-per-em="1000"
    panose-1="0 0 5 0 0 0 0 0 0 0"
    ascent="740"
    descent="-260"
    x-height="549"
    cap-height="705"
    bbox="-428 -269 1122.26 1122"
    underline-thickness="50"
    underline-position="-150"
    slope="-10"
    unicode-range="U+000D-FB02"
  />
<missing-glyph horiz-adv-x="500" 
d="M410 -260h-317v1000h317v-1000zM168 673v-33h65v-37h-66v-33h166v33h-66v37h66v33h-165zM167 544v-104h166v34h-66v70h-100zM233 474h-33v36h33v-36zM167 413v-33h66v-37h-66v-33h100v70h66v33h-166zM300 353v-66h-133v-34h166v100h-33zM233 231v-56h34v23h33v-47h-100
v80h-33v-113h166v113h-100zM167 58v-113h166v113h-166zM300 -22h-100v47h100v-47zM167 -78v-33h70l-70 -47v-33h166v33h-102l70 47h32v33h-166z" />
    <glyph glyph-name=".notdef" horiz-adv-x="500" 
d="M410 -260h-317v1000h317v-1000zM168 673v-33h65v-37h-66v-33h166v33h-66v37h66v33h-165zM167 544v-104h166v34h-66v70h-100zM233 474h-33v36h33v-36zM167 413v-33h66v-37h-66v-33h100v70h66v33h-166zM300 353v-66h-133v-34h166v100h-33zM233 231v-56h34v23h33v-47h-100
v80h-33v-113h166v113h-100zM167 58v-113h166v113h-166zM300 -22h-100v47h100v-47zM167 -78v-33h70l-70 -47v-33h166v33h-102l70 47h32v33h-166z" />
    <glyph glyph-name=".null" horiz-adv-x="0" 
 />
    <glyph glyph-name=".null" horiz-adv-x="0" 
 />
    <glyph glyph-name="nonmarkingreturn" unicode="&#xd;" horiz-adv-x="250" 
 />
    <glyph glyph-name="space" unicode=" " horiz-adv-x="247" 
 />
    <glyph glyph-name="exclam" unicode="!" horiz-adv-x="299" 
d="M267 722l-104 -515h-75l77 515h102zM164 107l-19 -107h-110l19 107h110z" />
    <glyph glyph-name="quotedbl" unicode="&#x22;" horiz-adv-x="300" 
d="M142 797l-45 -199h-63l25 199h83zM276 797l-44 -199h-63l25 199h82z" />
    <glyph glyph-name="numbersign" unicode="#" horiz-adv-x="810" 
d="M634 449l-63 -162h139l-14 -83h-158l-79 -204h-86l79 204h-211l-79 -204h-86l79 204h-155l15 83h173l63 162h-151l15 84h168l81 207h86l-81 -207h211l81 207h86l-81 -207h144l-15 -84h-161zM548 449h-211l-63 -162h211z" />
    <glyph glyph-name="dollar" unicode="$" horiz-adv-x="582" 
d="M452 535q0 17 -5.5 34t-17.5 31.5t-30 25.5t-44 15l-43 -246q38 -12 76 -26t67 -37t43.5 -58t4.5 -91q-6 -36 -25.5 -70t-52 -60.5t-77.5 -43t-104 -16.5h-3l-14 -80h-31l14 82q-47 4 -83.5 20.5t-60.5 42t-35.5 59.5t-7.5 73h96q-1 -19 4 -39t17.5 -37t32.5 -30t50 -18
l45 256q-37 12 -75 25.5t-66 35.5t-42 57t-5 89q7 41 29 75t55.5 58.5t77.5 38t95 13.5l15 86h31l-15 -87q48 -4 83 -19.5t57 -39.5t32.5 -54.5t8.5 -64.5h-97zM178 533q-5 -28 1.5 -48t21.5 -35t36 -25.5t46 -19.5l41 238q-57 0 -97 -28t-49 -82zM405 181q5 29 -1.5 50
t-21.5 36t-37 25.5t-48 19.5l-43 -248h1q65 0 103.5 34t46.5 83z" />
    <glyph glyph-name="percent" unicode="%" horiz-adv-x="659" 
d="M243 715q63 0 97 -39.5t22 -108.5q-6 -34 -22 -61.5t-38.5 -46.5t-51 -29t-59.5 -10q-63 0 -97.5 39t-22.5 108q6 34 22 61.5t38.5 46.5t51.5 29.5t60 10.5zM640 706l-530 -706h-91l531 706h90zM135 567q-7 -40 11 -65t54 -25q37 0 64 25t34 65q8 41 -10.5 65.5
t-55.5 24.5q-36 0 -62.5 -24.5t-34.5 -65.5zM469 286q63 0 97.5 -39t21.5 -108q-6 -34 -21.5 -61.5t-38 -46.5t-51 -29.5t-60.5 -10.5q-31 0 -56 10.5t-41 29.5t-22.5 46.5t-0.5 61.5t22 61.5t39 46.5t51.5 29t59.5 10zM361 139q-7 -41 11 -65.5t55 -24.5q36 0 63 24.5
t34 65.5q8 40 -10.5 65t-54.5 25q-37 0 -63.5 -25t-34.5 -65z" />
    <glyph glyph-name="ampersand" unicode="&#x26;" horiz-adv-x="682" 
d="M520 0l-126 174q-2 -11 -6 -22t-11 -25q-10 -29 -29 -53.5t-44.5 -42.5t-56 -28t-64.5 -10q-46 0 -82.5 15t-59.5 42.5t-32 66.5t-1 86q9 48 30 85.5t50.5 63t64.5 38.5t71 13q6 0 12 -0.5t12 -1.5q-4 5 -7 10.5t-6 10.5q-18 28 -30 58.5t-4 75.5q5 30 21.5 58t43 49.5
t62.5 35t81 13.5q47 0 78 -13t49.5 -34t25.5 -48t6 -56q2 -31 -6 -60h-86q2 8 3 15.5t2 14.5q8 50 -14 77.5t-70 27.5t-76 -27t-35 -62q-6 -35 4 -57.5t27 -47.5l296 -442h-93zM345 196q5 30 -2.5 55t-24 43t-39 28t-48.5 10q-51 0 -91 -32t-51 -95q-6 -32 0.5 -57t21.5 -42
t37.5 -26t49.5 -9q55 0 96 35t51 90z" />
    <glyph glyph-name="quotesingle" unicode="'" horiz-adv-x="171" 
d="M147 797l-47 -199h-63l22 199h88z" />
    <glyph glyph-name="parenleft" unicode="(" horiz-adv-x="383" 
d="M44 403q18 101 53.5 189t84 162t107.5 133t122 102h89l-1 -9q-156 -111 -246 -256t-121 -321q-31 -177 7.5 -322t155.5 -256l-2 -9h-89q-48 43 -85.5 102.5t-60 133t-27.5 161.5t13 190z" />
    <glyph glyph-name="parenright" unicode=")" horiz-adv-x="384" 
d="M340 403q-18 -101 -54 -189t-84.5 -162t-107 -133.5t-121.5 -102.5h-90l2 9q155 111 245 256t121 322q31 176 -7.5 321t-154.5 256l1 9h89q48 -43 86 -102t60.5 -133t27.5 -162t-13 -189z" />
    <glyph glyph-name="asterisk" unicode="*" horiz-adv-x="476" 
d="M406 673l27 -72l-152 -54l133 -54l-53 -72l-103 91l-7 -152h-82l44 152l-137 -94l-30 75l152 54l-132 54l54 73l106 -92l8 152h83l-47 -152z" />
    <glyph glyph-name="plus" unicode="+" horiz-adv-x="576" 
d="M535 324h-210l-38 -213h-89l38 213h-211l15 83h210l38 214h89l-38 -214h211z" />
    <glyph glyph-name="comma" unicode="," horiz-adv-x="175" 
d="M124 67q5 -37 0.5 -72.5t-19.5 -63t-41 -44.5t-64 -17l7 39q47 0 56 56l2 9h-50l15 93h94z" />
    <glyph glyph-name="hyphen" unicode="-" horiz-adv-x="491" 
d="M471 405l-13 -77h-400l13 77h400z" />
    <glyph glyph-name="period" unicode="." horiz-adv-x="171" 
d="M150 107l-19 -107h-110l18 107h111z" />
    <glyph glyph-name="slash" unicode="/" horiz-adv-x="373" 
d="M467 942l-470 -1113h-89l470 1113h89z" />
    <glyph glyph-name="zero" unicode="0" horiz-adv-x="595" 
d="M57 357q14 77 37 142.5t60 113.5t90 75t127 27q73 0 116.5 -27t64 -75t21 -113.5t-13.5 -142.5q-13 -77 -36.5 -143t-61 -114t-90.5 -75.5t-127 -27.5q-73 0 -116.5 27.5t-64 75.5t-20 114t13.5 143zM468 357q10 57 13 106.5t-7.5 86t-38.5 57.5t-79 21q-52 0 -87 -21
t-59 -57.5t-38.5 -86t-24.5 -106.5q-10 -58 -13 -108t7.5 -87t38.5 -58t79 -21q52 0 87 21t59 58t38.5 87t24.5 108z" />
    <glyph glyph-name="one" unicode="1" horiz-adv-x="287" 
d="M60 620l15 85h202l-124 -705h-96l109 620h-106z" />
    <glyph glyph-name="two" unicode="2" horiz-adv-x="560" 
d="M-6 70q87 52 165 106.5t139 108.5t99.5 107t47.5 102q6 30 3.5 56t-15 46t-37 31.5t-62.5 11.5q-70 0 -113 -43t-57 -124h-89q11 63 37 109t63 76.5t81.5 45t93.5 14.5q51 0 90.5 -14t64.5 -42t34.5 -68.5t-0.5 -94.5q-10 -62 -53.5 -122.5t-103.5 -115.5t-129 -101.5
t-130 -79.5h358l-13 -75h-485z" />
    <glyph glyph-name="three" unicode="3" horiz-adv-x="558" 
d="M360 724q53 0 91.5 -15t62 -41.5t31.5 -62t1 -76.5q-11 -60 -56.5 -103t-123.5 -52l-1 -6q33 -9 61 -25t46 -40.5t25.5 -58t-0.5 -77.5q-6 -37 -24.5 -68.5t-49 -55t-72.5 -37t-96 -13.5q-116 0 -177.5 56.5t-56.5 165.5h90q-3 -63 32 -103.5t118 -40.5q64 0 101.5 31
t45.5 77q14 75 -32 113t-141 38h-24l13 76h25q90 0 142.5 28.5t63.5 88.5q10 57 -19 90.5t-92 33.5q-28 0 -55 -8t-50 -24.5t-40 -42.5t-25 -61h-90q20 100 93.5 156.5t182.5 56.5z" />
    <glyph glyph-name="four" unicode="4" horiz-adv-x="597" 
d="M-3 162l14 76l445 472h97l-82 -469h104l-14 -79h-104l-28 -162h-93l28 162h-367zM448 599l-341 -358h278z" />
    <glyph glyph-name="five" unicode="5" horiz-adv-x="595" 
d="M570 633h-362l-42 -236q32 33 82 53.5t107 20.5q59 0 97.5 -20t60 -53.5t26.5 -77.5t-3 -91q-9 -49 -30.5 -92t-55.5 -74.5t-81 -49.5t-106 -18q-56 0 -99.5 15t-72 43t-41 67t-8.5 87h89q0 -63 37.5 -97t103.5 -34q77 0 120.5 44t54.5 111q14 78 -18.5 122.5
t-107.5 44.5q-48 0 -93.5 -22.5t-71.5 -60.5h-88l70 399h446z" />
    <glyph glyph-name="six" unicode="6" horiz-adv-x="600" 
d="M483 517q-2 59 -29.5 95.5t-92.5 36.5q-85 0 -140.5 -72.5t-78.5 -239.5q13 30 35 54.5t51 41.5t63 26t70 9q106 0 154 -63.5t28 -178.5q-8 -47 -29 -89.5t-55 -74.5t-81.5 -50.5t-107.5 -18.5q-83 0 -130.5 29.5t-69.5 79t-22 115t13 137.5q16 88 41 156.5t62.5 116
t89.5 72t121 24.5q56 0 93.5 -16.5t60.5 -45t32 -65.5t8 -79h-86zM135 245q-6 -33 -2 -64t20.5 -55.5t46.5 -39t75 -14.5q69 0 119 40t63 115q14 84 -21.5 126.5t-107.5 42.5q-30 0 -61.5 -9t-58.5 -27.5t-46.5 -47t-26.5 -67.5z" />
    <glyph glyph-name="seven" unicode="7" horiz-adv-x="476" 
d="M513 639l-379 -639h-96l382 630h-371l14 79h463z" />
    <glyph glyph-name="eight" unicode="8" horiz-adv-x="614" 
d="M103 549q7 37 28.5 69.5t56.5 56.5t83 38t107 14t101.5 -15.5t68.5 -42.5t35.5 -63t2.5 -77q-10 -54 -48.5 -94t-108.5 -59q69 -20 100.5 -71t17.5 -126q-8 -47 -33.5 -84t-64.5 -62.5t-90.5 -39t-112.5 -13.5q-58 0 -103.5 15t-74.5 43.5t-41 70.5t-2 95
q11 66 58.5 109.5t120.5 62.5q-65 20 -88.5 66t-12.5 107zM191 532q-11 -64 24.5 -97.5t104.5 -33.5t116 30.5t57 88.5q12 64 -24.5 97.5t-104.5 33.5q-67 0 -114.5 -30t-58.5 -89zM114 205q-13 -72 27.5 -110.5t118.5 -38.5t131 35t65 101q6 38 -3 65.5t-29.5 45t-50 26
t-64.5 8.5t-67.5 -7.5t-59 -24t-44.5 -41t-24 -59.5z" />
    <glyph glyph-name="nine" unicode="9" horiz-adv-x="597" 
d="M132 198q-2 -62 25.5 -96.5t90.5 -34.5q88 0 145 73t79 239q-12 -30 -34.5 -54.5t-51 -42t-62.5 -26.5t-70 -9q-106 0 -154.5 64t-28.5 179q8 47 29.5 89.5t56 74.5t82.5 50.5t109 18.5q84 0 131.5 -29t68.5 -78.5t20 -115t-14 -138.5q-15 -85 -39 -153.5t-61.5 -116.5
t-90 -74t-125.5 -26q-54 0 -91.5 16.5t-60.5 45t-32.5 65.5t-7.5 79h86zM480 472q6 33 1.5 64t-20.5 55t-46 38.5t-75 14.5q-69 0 -118.5 -41.5t-63.5 -117.5q-15 -82 20.5 -124t107.5 -42q30 0 61.5 9.5t58.5 28t47 47.5t27 68z" />
    <glyph glyph-name="colon" unicode=":" horiz-adv-x="191" 
d="M200 539l-19 -107h-110l18 107h111zM124 107l-19 -107h-110l18 107h111z" />
    <glyph glyph-name="semicolon" unicode=";" horiz-adv-x="244" 
d="M235 536l-19 -107h-110l18 107h111zM136 67q5 -37 0.5 -72.5t-19.5 -63t-41 -44.5t-64 -17l7 39q47 0 56 56l2 9h-50l15 93h94z" />
    <glyph glyph-name="less" unicode="&#x3c;" horiz-adv-x="422" 
d="M234 137l-201 229l282 230h115l-283 -230l202 -229h-115z" />
    <glyph glyph-name="equal" unicode="=" horiz-adv-x="586" 
d="M579 514l-14 -83h-521l15 83h520zM542 301l-15 -83h-520l14 83h521z" />
    <glyph glyph-name="greater" unicode="&#x3e;" horiz-adv-x="422" 
d="M73 596h115l201 -230l-282 -229h-115l283 229z" />
    <glyph glyph-name="question" unicode="?" horiz-adv-x="502" 
d="M313 733q100 0 151 -56t34 -157q-9 -54 -35 -92t-63.5 -62t-84.5 -35.5t-99 -12.5l-21 -118h-87l32 180h40q36 0 73.5 5t69.5 20t55 42.5t30 71.5q11 66 -19 102.5t-92 36.5q-66 0 -103 -35t-51 -92h-88q20 91 86 146.5t172 55.5zM191 107l-19 -107h-110l19 107h110z" />
    <glyph glyph-name="at" unicode="@" horiz-adv-x="1141" 
d="M713 789q116 0 199.5 -32t134 -91.5t67.5 -143t-1 -185.5q-13 -75 -44 -138.5t-73 -110t-92 -72.5t-100 -26q-28 0 -51 6.5t-37 22.5t-18.5 41.5t4.5 63.5q-45 -62 -103.5 -98t-135.5 -36q-49 0 -86.5 19t-59.5 53t-28 82t7 106q15 67 48.5 123.5t80.5 97.5t104 64
t118 23q63 0 106 -21t66 -58t25.5 -87t-16.5 -107l-45 -133q-16 -48 -3 -65t44 -17q29 0 59 17.5t57 51.5t48 83t32 112q15 84 2.5 154t-53.5 120t-110.5 77.5t-170.5 27.5q-114 0 -208.5 -37.5t-166 -102.5t-118 -153t-64.5 -189q-18 -102 -2 -178.5t62.5 -127.5t122 -77.5
t177.5 -27.5l-30 -75q-118 2 -206 34t-142.5 93t-73.5 151t2 208q21 119 80.5 221t148 177t201.5 117.5t242 42.5zM745 303q17 79 -13 126.5t-114 47.5q-41 0 -78.5 -16t-68.5 -45.5t-53.5 -71.5t-33.5 -93q-8 -40 -3.5 -73.5t20.5 -57.5t42.5 -37t62.5 -13q39 0 77 16
t70.5 46t56.5 73t35 98z" />
    <glyph glyph-name="A" unicode="A" 
d="M454 163h-310l-88 -163h-97l381 692h104l138 -692h-98zM441 234l-66 357l-193 -357h259z" />
    <glyph glyph-name="B" unicode="B" horiz-adv-x="604" 
d="M578 529q-12 -70 -57.5 -111t-101.5 -53q64 -14 95.5 -61.5t19.5 -113.5q-7 -42 -27.5 -76.5t-53.5 -60t-78 -39.5t-102 -14h-262l124 705h258q109 0 154 -48t31 -128zM482 514q10 52 -18 84t-103 32h-148l-41 -234h152q69 0 108.5 31.5t49.5 86.5zM443 202
q11 59 -23.5 92.5t-107.5 33.5h-152l-44 -252h153q73 0 118 33t56 93z" />
    <glyph glyph-name="C" unicode="C" horiz-adv-x="763" 
d="M448 712q132 0 203.5 -65t83.5 -172h-96q-14 67 -65 110t-142 43q-51 0 -98.5 -19t-86 -55t-66 -87t-38.5 -115q-11 -63 -1.5 -114t35.5 -86.5t66.5 -54.5t91.5 -19q91 0 157.5 43t104.5 110h96q-25 -54 -61.5 -97.5t-83.5 -74.5t-103.5 -48t-122.5 -17q-75 0 -132 26.5
t-93 74t-49 113t1 144.5q14 80 50 146t88.5 113.5t119 74t141.5 26.5z" />
    <glyph glyph-name="D" unicode="D" horiz-adv-x="717" 
d="M667 353q-14 -80 -49.5 -145.5t-91 -111.5t-129 -71t-162.5 -25h-224l124 705h224q89 0 154 -24.5t104 -70.5t51.5 -111t-1.5 -146zM242 82q141 0 225.5 71.5t106.5 199.5q23 128 -36.5 200t-200.5 72h-125l-96 -543h126z" />
    <glyph glyph-name="E" unicode="E" horiz-adv-x="506" 
d="M213 631l-42 -241h268l-13 -70h-268l-43 -246h298l-13 -74h-389l124 705h389l-13 -74h-298z" />
    <glyph glyph-name="F" unicode="F" horiz-adv-x="507" 
d="M534 705l-13 -74h-308l-43 -244h261l-12 -71h-261l-56 -316h-91l124 705h399z" />
    <glyph glyph-name="G" unicode="G" horiz-adv-x="778" 
d="M456 712q63 0 112 -17t84 -47t56 -71.5t28 -91.5h-96q-14 62 -64 102t-134 40q-54 0 -103 -19t-89 -54.5t-68 -86.5t-39 -115q-12 -66 -1.5 -117.5t38.5 -87t72 -54.5t101 -19q48 0 94 16t84 46t67.5 74t44.5 99h-277l12 68h355l-15 -84q-18 -65 -53 -120t-85 -95
t-113 -62.5t-136 -22.5q-77 0 -136 27t-96 75t-50.5 114.5t0.5 146.5q14 78 50.5 143.5t90 113t121.5 73.5t145 26z" />
    <glyph glyph-name="H" unicode="H" horiz-adv-x="687" 
d="M676 705l-124 -705h-92l57 326h-358l-57 -326h-91l124 705h91l-54 -305h358l54 305h92z" />
    <glyph glyph-name="I" unicode="I" horiz-adv-x="237" 
d="M226 705l-124 -705h-91l124 705h91z" />
    <glyph glyph-name="J" unicode="J" horiz-adv-x="484" 
d="M479 705l-92 -524q-16 -87 -74 -137.5t-148 -50.5q-96 0 -140.5 56t-26.5 159h91q-10 -57 9 -94.5t78 -37.5q29 0 49.5 9t35 23.5t23 33.5t11.5 39l93 524h91z" />
    <glyph glyph-name="K" unicode="K" horiz-adv-x="587" 
d="M249 356l259 -356h-112l-236 329l-58 -329h-91l124 705h91l-57 -326l352 326h111z" />
    <glyph glyph-name="L" unicode="L" horiz-adv-x="434" 
d="M115 71h250l-13 -71h-341l124 705h91z" />
    <glyph glyph-name="M" unicode="M" horiz-adv-x="852" 
d="M840 693l-122 -693h-91l97 553l-318 -553h-81l-125 550l-97 -550h-91l121 693h110l144 -581l344 581h109z" />
    <glyph glyph-name="N" unicode="N" horiz-adv-x="694" 
d="M559 0h-91l-268 557l-98 -557h-91l124 705h91l267 -558l99 558h91z" />
    <glyph glyph-name="O" unicode="O" horiz-adv-x="785" 
d="M446 714q79 0 139.5 -27.5t98.5 -77.5t52 -118.5t-1 -151.5q-13 -76 -48.5 -140t-87 -110t-118 -71.5t-141.5 -25.5q-80 0 -140.5 27.5t-99 77.5t-52 119t1.5 151q14 77 49 140.5t87 109.5t118.5 71.5t141.5 25.5zM438 629q-54 0 -103 -19t-88.5 -54t-67.5 -85.5
t-39 -113.5q-11 -65 -1 -117t38 -88t72 -55.5t99 -19.5q53 0 102 19t89 54.5t67.5 86t38.5 113.5q11 65 1 116.5t-38 87.5t-71.5 55.5t-98.5 19.5z" />
    <glyph glyph-name="P" unicode="P" horiz-adv-x="571" 
d="M152 284l-50 -284h-91l124 705h224q63 0 105.5 -15t67.5 -43t32 -67t-1 -86q-17 -98 -88 -154t-190 -56h-133zM290 360q86 0 128 36.5t52 97.5q11 63 -18 99t-115 36h-124l-47 -269h124z" />
    <glyph glyph-name="Q" unicode="Q" horiz-adv-x="785" 
d="M736 339q-18 -105 -75 -184t-142 -122l148 -170h-115l-115 140q-47 -11 -96 -11q-80 0 -140.5 27.5t-99 77.5t-52 119t1.5 151q14 77 49 140.5t87 109.5t118.5 71.5t141.5 25.5q79 0 139.5 -27.5t98.5 -77.5t52 -118.5t-1 -151.5zM349 77q53 0 102 19t89 54.5t67.5 86
t38.5 113.5q11 65 1 116.5t-38 87.5t-71.5 55.5t-98.5 19.5q-54 0 -103 -19t-88.5 -54t-67.5 -85.5t-39 -113.5q-11 -65 -1 -117t38 -88t72 -55.5t99 -19.5z" />
    <glyph glyph-name="R" unicode="R" horiz-adv-x="583" 
d="M367 705q62 0 104.5 -16t67 -44t32 -66.5t-0.5 -83.5q-14 -85 -71 -138t-152 -66l141 -291h-103l-134 288h-98l-51 -288h-91l124 705h232zM477 490q11 62 -18 99t-113 37h-133l-49 -272h134q84 0 126 37.5t53 98.5z" />
    <glyph glyph-name="S" unicode="S" horiz-adv-x="566" 
d="M488 166q-5 -32 -22.5 -63t-47.5 -55.5t-71.5 -39.5t-95.5 -15q-57 0 -100 15.5t-71.5 42.5t-43 63t-14.5 76h97q-1 -21 5.5 -43t22.5 -40t42 -29.5t64 -11.5q60 0 95 31.5t43 76.5q9 54 -14 84t-61.5 49.5t-85 34.5t-84 39.5t-58.5 65t-8 109.5q6 35 25.5 64t50 50
t70.5 32.5t88 11.5q57 0 98 -15t68 -39.5t40.5 -57t14.5 -67.5h-98q0 18 -6.5 37t-21.5 34t-39 25t-59 10q-51 0 -88 -24t-45 -72q-9 -51 14 -79.5t61.5 -46.5t85 -33t84 -40t58 -66.5t7.5 -113.5z" />
    <glyph glyph-name="T" unicode="T" horiz-adv-x="522" 
d="M567 705l-13 -74h-199l-111 -631h-91l111 631h-199l13 74h489z" />
    <glyph glyph-name="U" unicode="U" horiz-adv-x="661" 
d="M222 705l-74 -423q-19 -107 19.5 -155t116.5 -48q77 0 132 48t74 155l74 423h92l-75 -423q-13 -75 -42.5 -129.5t-70.5 -90t-92.5 -52.5t-108.5 -17t-102 17t-73.5 52.5t-38.5 90t3 129.5l75 423h91z" />
    <glyph glyph-name="V" unicode="V" horiz-adv-x="670" 
d="M181 705l109 -604l324 604h99l-383 -705h-115l-134 705h100z" />
    <glyph glyph-name="W" unicode="W" horiz-adv-x="974" 
d="M1002 705l-303 -705h-111l-62 578l-265 -578h-110l-56 705h101l30 -597l272 597h102l61 -599l241 599h100z" />
    <glyph glyph-name="X" unicode="X" horiz-adv-x="594" 
d="M351 352l161 -352h-108l-128 279l-210 -279h-105l278 359l-158 346h109l125 -274l210 274h105z" />
    <glyph glyph-name="Y" unicode="Y" horiz-adv-x="593" 
d="M636 705l-308 -438l-47 -267h-92l47 267l-155 438h106l113 -340l232 340h104z" />
    <glyph glyph-name="Z" unicode="Z" horiz-adv-x="538" 
d="M93 75h356l-14 -75h-457l13 72l446 558h-340l14 75h442l-13 -72z" />
    <glyph glyph-name="bracketleft" unicode="[" horiz-adv-x="330" 
d="M383 942l-13 -75h-110l-169 -963h109l-13 -75h-197l197 1113h196z" />
    <glyph glyph-name="backslash" unicode="\" horiz-adv-x="617" 
d="M306 -171l-117 1113h90l115 -1113h-88z" />
    <glyph glyph-name="bracketright" unicode="]" horiz-adv-x="329" 
d="M-53 -171l13 75h110l170 963h-110l13 75h196l-196 -1113h-196z" />
    <glyph glyph-name="asciicircum" unicode="^" horiz-adv-x="625" 
d="M80 170h-91l327 523h85l143 -523h-91l-112 414z" />
    <glyph glyph-name="underscore" unicode="_" horiz-adv-x="604" 
d="M561 -34l-15 -89h-532l16 89h531z" />
    <glyph glyph-name="grave" unicode="`" horiz-adv-x="287" 
d="M295 634l-20 -38l-143 89l26 51z" />
    <glyph glyph-name="a" unicode="a" horiz-adv-x="675" 
d="M345 556q84 0 132.5 -41t58.5 -106l24 140h91l-97 -549h-90l24 140q-32 -65 -94 -106t-144 -41q-56 0 -99.5 20t-70.5 57t-36 90.5t3 120.5q11 65 39 116t67.5 86t88.5 54t103 19zM361 475q-85 0 -144.5 -53t-76.5 -148t24 -148t126 -53q40 0 76.5 14.5t66 40.5t50.5 63
t29 83t0.5 83t-27.5 63.5t-52 40.5t-72 14z" />
    <glyph glyph-name="b" unicode="b" horiz-adv-x="675" 
d="M13 0l131 740h91l-59 -331q32 65 94 106t145 41q55 0 97.5 -19.5t69.5 -55.5t37 -88.5t-2 -118.5t-40 -118t-67.5 -88t-89.5 -55.5t-105 -19.5q-82 0 -129.5 41t-56.5 106l-25 -140h-91zM303 73q85 0 145 53t77 148t-24.5 148t-126.5 53q-40 0 -76.5 -14t-66 -40.5
t-50.5 -63.5t-29 -83t-0.5 -83t28 -63t52 -40.5t71.5 -14.5z" />
    <glyph glyph-name="c" unicode="c" horiz-adv-x="624" 
d="M363 556q54 0 96 -14.5t71 -41.5t44.5 -65t15.5 -85h-97q0 60 -38.5 93t-104.5 33q-34 0 -68 -12t-62.5 -36.5t-50 -62.5t-30.5 -91q-9 -52 -1 -90t27.5 -63t49.5 -37t64 -12q66 0 116.5 33.5t70.5 93.5h97q-16 -47 -44.5 -85t-66.5 -65t-85 -41.5t-100 -14.5
q-59 0 -105 19.5t-75.5 57t-40.5 91t1 120.5q11 65 40 116t71 86t94.5 54t110.5 19z" />
    <glyph glyph-name="d" unicode="d" horiz-adv-x="673" 
d="M674 740l-131 -740h-91l25 140q-32 -65 -94.5 -106t-144.5 -41q-55 0 -98 20t-70 57t-36.5 90.5t2.5 120.5q11 65 39 116t67.5 86t88.5 54t103 19q84 0 132 -41t58 -106l58 331h92zM350 475q-85 0 -145 -53t-77 -148t24.5 -148t126.5 -53q40 0 76.5 14.5t66 40.5t50.5 63
t29 83t0.5 83t-28 63.5t-52 40.5t-71.5 14z" />
    <glyph glyph-name="e" unicode="e" horiz-adv-x="624" 
d="M365 556q62 0 107.5 -20t73 -54.5t37 -80t0.5 -96.5q-3 -17 -5.5 -27.5t-7.5 -22.5h-438q-7 -50 1.5 -85.5t29 -58.5t50 -33.5t62.5 -10.5q66 0 116.5 33t70.5 90h96q-15 -43 -42 -79t-64.5 -62t-84.5 -41t-101 -15q-59 0 -105 19.5t-75.5 56.5t-40.5 89.5t1 119.5
q12 65 41 116.5t71.5 87.5t95.5 55t111 19zM490 299q11 48 3.5 82.5t-28 57t-50.5 33t-63 10.5q-34 0 -68 -11t-63 -33.5t-50.5 -57t-31.5 -81.5h351z" />
    <glyph glyph-name="f" unicode="f" horiz-adv-x="342" 
d="M128 571q17 95 78.5 144t176.5 44l-15 -80q-73 2 -105.5 -25.5t-43.5 -89.5l-3 -15h129l-13 -80h-130l-83 -469h-91l82 469h-78l14 80h78z" />
    <glyph glyph-name="g" unicode="g" horiz-adv-x="674" 
d="M252 -8q-55 0 -98 20t-70.5 57.5t-37 91t2.5 120.5q11 65 39 116t67.5 86t89 54t103.5 19q84 0 132 -41t58 -106l25 140h90l-99 -558q-10 -58 -36.5 -105.5t-65.5 -82t-89 -53.5t-107 -19q-113 0 -173 54.5t-67 143.5h90q8 -54 45.5 -86t109.5 -32q36 0 69 11.5t60.5 34
t47 56t26.5 78.5l27 149q-32 -65 -94.5 -106.5t-144.5 -41.5zM363 476q-85 0 -144.5 -53t-76.5 -149q-17 -94 24.5 -147t125.5 -53q40 0 77 14t66.5 40t50.5 63t29 83t0 83.5t-28 63.5t-52 40.5t-72 14.5z" />
    <glyph glyph-name="h" unicode="h" horiz-adv-x="643" 
d="M414 558q46 0 82 -15t59.5 -44.5t31.5 -74.5t-3 -105l-55 -319h-91l55 311q14 85 -20.5 127.5t-105.5 42.5q-68 0 -120 -40t-73 -124l-56 -317h-92l130 740h92l-56 -318q34 68 93.5 102t128.5 34z" />
    <glyph glyph-name="i" unicode="i" horiz-adv-x="236" 
d="M132 710q5 25 24.5 40.5t47.5 15.5t42.5 -15.5t9.5 -40.5q-4 -25 -24 -40.5t-48 -15.5t-42.5 15.5t-9.5 40.5zM211 549l-97 -549h-91l97 549h91z" />
    <glyph glyph-name="j" unicode="j" horiz-adv-x="243" 
d="M191 654q-28 0 -42.5 15.5t-9.5 40.5q4 25 24 40.5t48 15.5t42 -15.5t10 -40.5q-5 -25 -24.5 -40.5t-47.5 -15.5zM-109 -180h38q35 0 54 15t27 56l116 658h92l-117 -661q-14 -76 -58 -112t-117 -36h-50z" />
    <glyph glyph-name="k" unicode="k" horiz-adv-x="495" 
d="M224 279l201 -279h-111l-166 251l-44 -251h-91l130 740h92l-75 -426l248 235h111z" />
    <glyph glyph-name="l" unicode="l" horiz-adv-x="235" 
d="M248 740l-130 -740h-92l130 740h92z" />
    <glyph glyph-name="m" unicode="m" horiz-adv-x="1029" 
d="M797 558q47 0 83 -15t59.5 -44.5t31.5 -74.5t-3 -105l-56 -319h-91l55 311q14 83 -18.5 125t-100.5 42q-70 0 -122.5 -46t-69.5 -141l-52 -291h-90l55 311q14 83 -19 125t-100 42q-71 0 -123 -46t-69 -141v4l-52 -295h-92l97 549h92l-22 -123q33 66 90.5 99t122.5 33
q69 0 114.5 -35t55.5 -106q36 69 97 105t127 36z" />
    <glyph glyph-name="n" unicode="n" horiz-adv-x="643" 
d="M412 558q46 0 82.5 -15t59.5 -44.5t31.5 -74.5t-2.5 -105l-57 -319h-90l55 311q14 85 -20.5 127.5t-105.5 42.5q-73 0 -127 -46.5t-71 -143.5v4l-52 -295h-92l97 549h92l-23 -129q34 69 94 103.5t129 34.5z" />
    <glyph glyph-name="o" unicode="o" horiz-adv-x="644" 
d="M370 556q59 0 106.5 -19.5t78.5 -57t43 -91t0 -121.5q-12 -64 -42 -115t-72.5 -86.5t-96 -54t-111.5 -18.5q-60 0 -107.5 19.5t-79 57t-43.5 91t0 120.5q12 65 42 116t73 86t97 54t112 19zM358 476q-35 0 -70 -12t-65 -36.5t-52.5 -62.5t-31.5 -91q-9 -52 -0.5 -90
t30 -62.5t52.5 -36.5t66 -12t70 12t65 36.5t52 62.5t31 90q9 53 0.5 91t-29.5 62.5t-52 36.5t-66 12z" />
    <glyph glyph-name="p" unicode="p" horiz-adv-x="674" 
d="M427 556q55 0 97.5 -19.5t69.5 -55.5t37 -88.5t-2 -118.5t-40 -118t-68 -88t-89.5 -55.5t-104.5 -19.5q-82 0 -129.5 41t-56.5 106l-71 -400h-91l143 809h91l-25 -140q32 65 94.5 106t144.5 41zM315 73q85 0 145 53t77 148t-24.5 148t-126.5 53q-40 0 -77 -14
t-66.5 -40.5t-50 -63.5t-28.5 -83t-0.5 -83t27.5 -63t52 -40.5t72 -14.5z" />
    <glyph glyph-name="q" unicode="q" horiz-adv-x="672" 
d="M645 549l-142 -809h-91l70 394q-35 -63 -94.5 -102t-137.5 -39q-58 0 -102 20t-72 57.5t-37.5 90.5t2.5 119q11 65 39.5 116t69.5 86t91 53.5t105 18.5q78 0 125.5 -36.5t60.5 -98.5l23 130h90zM355 475q-40 0 -76.5 -13.5t-66 -39t-50 -63.5t-28.5 -86q-9 -49 -1.5 -86
t28 -62.5t52.5 -38.5t72 -13q38 0 74.5 13.5t66 39.5t51 63.5t29.5 84.5t0 84.5t-28.5 63.5t-52 39.5t-70.5 13.5z" />
    <glyph glyph-name="r" unicode="r" horiz-adv-x="384" 
d="M192 438q36 56 94 88t130 32l-17 -99h-28q-33 0 -65.5 -8t-60.5 -27t-48.5 -50.5t-29.5 -78.5l-52 -295h-92l97 549h92z" />
    <glyph glyph-name="s" unicode="s" horiz-adv-x="504" 
d="M266 556q106 0 158.5 -49.5t53.5 -129.5h-90q2 47 -29.5 79.5t-100.5 32.5q-45 0 -74.5 -19.5t-35.5 -53.5q-7 -38 15.5 -58.5t58.5 -33.5t79 -24t78 -31t54.5 -54t8.5 -94q-11 -56 -61 -92t-136 -36q-103 0 -164 47t-60 131h90q-4 -48 32 -80t111 -32q45 0 71.5 20
t32.5 51q7 42 -14.5 64.5t-57.5 36t-78.5 24t-77.5 29t-54.5 51t-8.5 89.5q10 58 61 95t138 37z" />
    <glyph glyph-name="t" unicode="t" horiz-adv-x="373" 
d="M161 172q-9 -54 7.5 -73t64.5 -19h55l-14 -80h-68q-40 0 -69.5 9t-47 29.5t-23 53.5t3.5 82l52 296h-81l14 79h81l24 137h92l-24 -137h142l-14 -79h-142z" />
    <glyph glyph-name="u" unicode="u" horiz-adv-x="630" 
d="M607 549l-97 -549h-91l22 128q-34 -69 -94 -103t-128 -34q-46 0 -82.5 15t-59.5 44.5t-31.5 74t1.5 104.5l57 320h91l-55 -311q-15 -85 20 -128t105 -43q72 0 126 45.5t72 139.5l52 297h92z" />
    <glyph glyph-name="v" unicode="v" horiz-adv-x="560" 
d="M244 97l250 452h98l-312 -549h-108l-118 549h98z" />
    <glyph glyph-name="w" unicode="w" horiz-adv-x="831" 
d="M868 549l-254 -549h-99l-72 448l-231 -448h-98l-60 549h92l37 -460l232 460h95l72 -462l199 462h87z" />
    <glyph glyph-name="x" unicode="x" horiz-adv-x="498" 
d="M299 273l138 -273h-104l-105 209l-166 -209h-101l230 283l-134 266h103l103 -204l164 204h100z" />
    <glyph glyph-name="y" unicode="y" horiz-adv-x="561" 
d="M149 549l102 -432l241 432h101l-469 -809h-103l162 269l-136 540h102z" />
    <glyph glyph-name="z" unicode="z" horiz-adv-x="446" 
d="M92 77h293l-14 -77h-393l13 73l350 399h-272l13 77h376l-13 -74z" />
    <glyph glyph-name="braceleft" unicode="{" horiz-adv-x="371" 
d="M121 371q59 -13 79.5 -54t9.5 -97q-4 -25 -11.5 -47.5t-15.5 -45.5t-16.5 -49t-14.5 -59q-8 -45 -3 -82t18 -65.5t32 -48.5t38 -32l-1 -8h-94q-11 7 -29 24t-33 46.5t-22 71.5t3 99q5 30 13.5 55.5t17 49.5t16 46.5t11.5 46.5q3 17 3 36.5t-8 37.5t-26.5 32.5t-52.5 22.5
l7 42q38 8 61.5 23t38 33t21 37t9.5 36q4 24 4.5 46.5t0 46.5t0.5 49.5t6 55.5q10 57 32 99t47.5 71.5t49.5 46.5t38 24h94l-2 -8q-24 -12 -49.5 -32t-49 -48.5t-41.5 -65.5t-26 -82q-6 -33 -6.5 -59t-0.5 -49v-45t-5 -48q-10 -56 -44.5 -97t-98.5 -54v-2z" />
    <glyph glyph-name="bar" unicode="|" horiz-adv-x="216" 
d="M74 -107h-92l160 903h91z" />
    <glyph glyph-name="braceright" unicode="}" horiz-adv-x="369" 
d="M257 373q-59 13 -79.5 52t-11.5 92q5 25 12.5 47t16 45.5t16.5 49.5t14 59q8 44 3.5 82t-17.5 68t-31.5 51.5t-38.5 33.5l1 8h94q11 -7 29 -24t33 -46.5t22 -71.5t-3 -99q-5 -30 -13.5 -55.5t-17 -49.5t-16 -46.5t-11.5 -46.5q-3 -17 -3 -36.5t8 -37.5t26 -33t52 -22
l-7 -42q-36 -7 -60 -21.5t-38 -33t-21 -38t-10 -36.5q-4 -24 -4.5 -46.5t-0.5 -46.5t-1 -49.5t-6 -55.5q-10 -57 -32 -99t-47 -71.5t-49 -46.5t-38 -24h-93l1 8q24 12 50 33.5t49.5 51.5t41.5 68t26 82q6 33 7 59t1 49.5t0.5 45.5t4.5 47q9 53 43.5 92t97.5 52v2z" />
    <glyph glyph-name="asciitilde" unicode="~" horiz-adv-x="518" 
d="M187 395q29 0 50 -10.5t39 -23t35.5 -23t39.5 -10.5q27 0 46 18.5t30 48.5h71q-26 -75 -69 -112.5t-98 -37.5q-29 0 -50 10.5t-39 23t-35.5 23t-39.5 10.5q-27 0 -46 -19t-30 -49h-71q26 75 68.5 113t98.5 38z" />
    <glyph glyph-name="exclamdown" unicode="&#xa1;" horiz-adv-x="309" 
d="M132 452l20 107h117l-20 -107h-117zM23 -163l110 515h80l-82 -515h-108z" />
    <glyph glyph-name="cent" unicode="&#xa2;" horiz-adv-x="585" 
d="M332 441q-34 0 -66 -11t-58.5 -32.5t-45.5 -55t-27 -78.5t-0.5 -78.5t26 -55t47 -32.5t62.5 -11q58 0 106.5 32t68.5 91h85q-13 -43 -37.5 -78.5t-58 -61t-74.5 -40.5t-87 -18l-18 -101h-45l18 102q-49 4 -87.5 22.5t-62.5 50.5t-33 77t1 101t34.5 101t60 77t80 50.5
t95.5 22.5l17 96h46l-17 -95q90 -5 141 -57.5t46 -140.5h-85q-1 60 -37 91.5t-95 31.5z" />
    <glyph glyph-name="sterling" unicode="&#xa3;" horiz-adv-x="582" 
d="M496 525q5 57 -25.5 94.5t-90.5 37.5q-25 0 -49.5 -8t-45 -24.5t-35 -42t-20.5 -59.5q-7 -39 -2 -76t11 -75h185l-12 -63h-164q1 -17 0.5 -33t-3.5 -33q-8 -45 -34 -88t-74 -84h362l-13 -73h-450l-3 49q48 42 81 85.5t44 107.5q3 17 3 34t-2 35h-119l12 63h97
q-7 36 -10 75.5t5 85.5q8 44 29 81t53 63t74 40.5t91 14.5q53 0 90.5 -16t61 -44t33 -65.5t6.5 -81.5h-86z" />
    <glyph glyph-name="currency" unicode="&#xa4;" horiz-adv-x="537" 
d="M429 491q30 -46 18 -113q-6 -34 -20.5 -62t-35.5 -51l47 -56l-44 -37l-48 58q-49 -29 -108 -29q-60 0 -100 29l-69 -58l-31 37l68 57q-27 46 -15 112q6 34 20.5 62t35.5 50l-49 59l44 37l50 -61q50 28 108 28q57 0 96 -28l71 61l31 -37zM164 377q-10 -58 14.5 -89
t69.5 -31q20 0 40.5 8t37.5 23t30 37.5t18 51.5q10 58 -16 89t-68 31q-44 0 -79.5 -31t-46.5 -89z" />
    <glyph glyph-name="yen" unicode="&#xa5;" horiz-adv-x="622" 
d="M426 384h138l-11 -63h-171l-38 -54l-4 -23h200l-12 -64h-199l-32 -180h-91l31 180h-200l11 64h200l4 23l-19 54h-171l11 63h138l-113 321h105l110 -354l235 354h104z" />
    <glyph glyph-name="brokenbar" unicode="&#xa6;" horiz-adv-x="276" 
d="M172 796h91l-66 -379h-92zM104 -107h-92l67 380h92z" />
    <glyph glyph-name="section" unicode="&#xa7;" horiz-adv-x="576" 
d="M454 557q2 21 -2.5 41.5t-18.5 36.5t-37.5 26t-59.5 10q-45 0 -76 -18t-38 -56q-7 -43 24.5 -73t116.5 -59q39 -13 73 -29t57 -37.5t33.5 -50.5t3.5 -68q-8 -53 -51.5 -97t-123.5 -62q48 -23 75.5 -60t17.5 -94q-11 -63 -67 -104t-153 -41q-100 0 -151 48.5t-46 132.5h91
q-1 -23 4 -43.5t19 -36.5t37.5 -25t58.5 -9q44 0 75.5 18t37.5 56q8 47 -23.5 75.5t-116.5 57.5q-40 13 -73.5 28.5t-57 37t-34 50.5t-3.5 68q5 27 18 52.5t35.5 46.5t54 37t71.5 23q-47 24 -76.5 61.5t-19.5 92.5q11 63 67 104t153 41q100 0 150.5 -48.5t45.5 -132.5h-91z
M434 280q8 51 -24 82.5t-103 31.5q-35 0 -63.5 -9t-49.5 -25t-34 -36.5t-17 -43.5q-8 -51 24 -82.5t103 -31.5q35 0 63.5 9t49.5 25t34 36.5t17 43.5z" />
    <glyph glyph-name="dieresis" unicode="&#xa8;" horiz-adv-x="354" 
d="M104 674q4 21 20.5 35.5t37.5 14.5q22 0 34 -14.5t8 -35.5q-4 -20 -21 -34.5t-38 -14.5t-33 14.5t-8 34.5zM270 674q5 21 21.5 35.5t37.5 14.5t33 -14.5t8 -35.5q-4 -20 -21 -34.5t-38 -14.5t-33 14.5t-8 34.5z" />
    <glyph glyph-name="copyright" unicode="&#xa9;" horiz-adv-x="792" 
d="M459 708q77 0 136 -26t96.5 -73t51 -112t-0.5 -143q-13 -78 -49.5 -143t-90 -112.5t-122 -73.5t-146.5 -26q-77 0 -136.5 26t-97 73.5t-51 112.5t-0.5 143q14 78 50.5 143t90.5 112t122.5 73t146.5 26zM453 674q-72 0 -133.5 -23.5t-109 -66t-79.5 -101.5t-44 -129
t-1 -128.5t43.5 -101t85.5 -66.5t125 -24q71 0 132 24t109 66.5t80 101t44 128.5t1 129t-43.5 101.5t-85.5 66t-124 23.5zM441 586q-45 0 -87.5 -15.5t-77.5 -45t-60 -72.5t-35 -99t-0.5 -99.5t34 -73t62 -44.5t82.5 -15q36 0 71.5 10.5t66.5 31.5t56 51.5t41 70.5h-79
q-23 -48 -63 -74t-85 -26q-28 0 -52 10.5t-39.5 31.5t-21.5 52t1 73q8 42 25 73.5t40 52.5t50.5 31.5t55.5 10.5q45 0 75.5 -25.5t37.5 -73.5h79q-2 39 -16.5 69.5t-38 51.5t-55 32t-67.5 11z" />
    <glyph glyph-name="ordfeminine" unicode="&#xaa;" horiz-adv-x="443" 
d="M228 710q53 0 82.5 -23.5t37.5 -65.5l15 84h71l-62 -351h-71l15 84q-23 -42 -60.5 -66t-91.5 -24q-72 0 -109 48.5t-22 132.5q8 42 25.5 75.5t43.5 57t58 36t68 12.5zM238 652q-48 0 -85 -33t-47 -91q-11 -57 15 -89.5t74 -32.5q51 0 88.5 33t48.5 90q10 57 -16.5 90
t-77.5 33z" />
    <glyph glyph-name="guillemotleft" unicode="&#xab;" horiz-adv-x="461" 
d="M110 120l-65 175l127 175h89l-129 -175l67 -175h-89zM294 120l-65 175l127 175h89l-129 -175l67 -175h-89z" />
    <glyph glyph-name="logicalnot" unicode="&#xac;" horiz-adv-x="739" 
d="M705 433l-37 -213h-91l25 141h-550l12 72h641z" />
    <glyph glyph-name="registered" unicode="&#xae;" horiz-adv-x="798" 
d="M462 709q78 0 138 -25.5t98 -72t51.5 -111.5t-0.5 -145q-13 -78 -50 -143.5t-91.5 -112.5t-123.5 -73.5t-147 -26.5t-138 26.5t-97.5 73.5t-51.5 112.5t-1 143.5q14 80 51 145t91.5 111.5t123.5 72t147 25.5zM712 355q13 72 1.5 131t-44.5 101t-87 64.5t-126 22.5
t-134 -22.5t-110 -64.5t-80 -101t-45 -131q-12 -71 -0.5 -129t44.5 -99.5t87 -64.5t126 -23t133.5 23t109.5 64.5t80 99.5t45 129zM461 588q81 0 111.5 -36.5t20.5 -89.5q-9 -51 -45.5 -84.5t-99.5 -40.5l91 -192h-67l-89 190h-63l-33 -190h-61l78 443h157zM530 455
q7 37 -11.5 57.5t-72.5 20.5h-91l-28 -157h92q54 0 79.5 22t31.5 57z" />
    <glyph glyph-name="macron" unicode="&#xaf;" horiz-adv-x="411" 
d="M447 710l-11 -64h-352l11 64h352z" />
    <glyph glyph-name="degree" unicode="&#xb0;" horiz-adv-x="406" 
d="M234 700q79 0 118.5 -47.5t25.5 -128.5t-69.5 -129t-134.5 -48q-80 0 -120 48t-26 129t70 128.5t136 47.5zM225 647q-45 0 -79.5 -31.5t-45.5 -92.5q-11 -60 13.5 -91.5t69.5 -31.5t78 31.5t44 91.5q11 61 -12 92.5t-68 31.5z" />
    <glyph glyph-name="plusminus" unicode="&#xb1;" horiz-adv-x="576" 
d="M337 374l-35 -198h211l-14 -83h-510l14 83h211l35 198h-210l14 83h210l31 176h89l-31 -176h211l-15 -83h-211z" />
    <glyph glyph-name="uni00B2" unicode="&#xb2;" horiz-adv-x="344" 
d="M317 610q-8 -44 -41 -76t-91 -67l-92 -59h193l-10 -56h-265l9 50l139 97q30 23 54 47.5t29 58.5q5 29 -8.5 41t-35.5 12q-59 0 -77 -70h-71q6 25 20 47.5t35 39t48.5 26.5t61.5 10q60 0 85 -29.5t17 -71.5z" />
    <glyph glyph-name="uni00B3" unicode="&#xb3;" horiz-adv-x="338" 
d="M206 711q58 0 88 -27.5t22 -72.5q-5 -31 -26 -51.5t-58 -28.5v-3q69 -18 59 -84q-8 -41 -46.5 -68.5t-102.5 -27.5q-72 0 -100 28t-24 81h74q-3 -34 12.5 -46t41.5 -12q30 0 48.5 15t23.5 41q5 29 -11.5 43.5t-47.5 14.5h-50l5 31h49q30 0 51 15t26 44q5 24 -8.5 39.5
t-41.5 15.5q-29 0 -47.5 -14t-27.5 -40h-68q6 21 18 40.5t31.5 34t46.5 23.5t63 9z" />
    <glyph glyph-name="acute" unicode="&#xb4;" horiz-adv-x="271" 
d="M277 686l-173 -85l-12 34l166 100z" />
    <glyph glyph-name="uni00B5" unicode="&#xb5;" horiz-adv-x="648" 
d="M638 549l-97 -549h-92l21 122q-32 -66 -88.5 -98.5t-120.5 -32.5q-38 0 -72 15.5t-49 56.5l-57 -323h-91l143 809h91l-50 -285q-17 -97 20 -145t109 -48q66 0 116.5 41.5t69.5 127.5l55 309h92z" />
    <glyph glyph-name="paragraph" unicode="&#xb6;" horiz-adv-x="592" 
d="M449 0h-75l109 622h-90l-110 -622h-75l50 286h-12q-61 0 -103 16t-66 43.5t-31 64.5t0 79q8 43 28.5 80t54.5 64.5t81.5 43.5t107.5 16h253z" />
    <glyph glyph-name="periodcentered" unicode="&#xb7;" horiz-adv-x="182" 
d="M180 392l-19 -107h-110l18 107h111z" />
    <glyph glyph-name="cedilla" unicode="&#xb8;" horiz-adv-x="282" 
d="M136 -67q26 1 48.5 -4.5t38 -17.5t22.5 -31.5t2 -46.5q-8 -49 -47.5 -71t-90.5 -22h-103l9 53h92q37 0 54 11.5t21 30.5q4 21 -9 36t-49 15h-55l22 121h58z" />
    <glyph glyph-name="uni00B9" unicode="&#xb9;" horiz-adv-x="201" 
d="M54 647l10 57h129l-62 -352h-71l52 295h-58z" />
    <glyph glyph-name="ordmasculine" unicode="&#xba;" horiz-adv-x="425" 
d="M249 709q41 0 72.5 -13.5t51.5 -37.5t27.5 -57.5t0.5 -73.5t-26.5 -73.5t-48 -58t-64.5 -38t-77 -13.5t-72.5 13.5t-51.5 38t-27.5 58t-0.5 73.5t26.5 73.5t48 57.5t64.5 37.5t77 13.5zM239 652q-47 0 -85 -32t-49 -93t15.5 -93t74.5 -32q47 0 85 32t49 93t-15.5 93
t-74.5 32z" />
    <glyph glyph-name="guillemotright" unicode="&#xbb;" horiz-adv-x="461" 
d="M149 295l-68 175h90l64 -175l-126 -175h-90zM333 295l-68 175h90l64 -175l-126 -175h-90z" />
    <glyph glyph-name="onequarter" unicode="&#xbc;" 
d="M599 705l-486 -705h-90l486 705h90zM75 647l10 57h129l-62 -352h-71l52 295h-58zM578 70h-48l-12 -70h-71l12 70h-183l8 41l207 243h90l-42 -240h48zM501 288l-147 -172h117z" />
    <glyph glyph-name="onehalf" unicode="&#xbd;" horiz-adv-x="712" 
d="M601 706l-490 -706h-90l491 706h89zM152 647h-58l10 57h129l-62 -352h-71zM649 257q-8 -44 -41 -76t-91 -67l-92 -59h193l-10 -56h-265l9 50l139 97q30 23 54 47.5t29 58.5q5 29 -8.5 41t-35.5 12q-59 0 -77 -70h-71q6 25 20 47.5t35 39t48.5 26.5t61.5 10q60 0 85 -29.5
t17 -71.5z" />
    <glyph glyph-name="threequarters" unicode="&#xbe;" horiz-adv-x="707" 
d="M229 711q58 0 88 -27.5t22 -72.5q-5 -31 -26 -51.5t-58 -28.5v-3q69 -18 59 -84q-8 -41 -46.5 -68.5t-102.5 -27.5q-72 0 -100 28t-24 81h74q-3 -34 12.5 -46t41.5 -12q30 0 48.5 15t23.5 41q5 29 -11.5 43.5t-47.5 14.5h-50l5 31h49q30 0 51 15t26 44q5 24 -8.5 39.5
t-41.5 15.5q-29 0 -47.5 -14t-27.5 -40h-68q6 21 18 40.5t31.5 34t46.5 23.5t63 9zM665 706l-480 -706h-90l480 706h90zM638 70h-48l-12 -70h-71l12 70h-183l7 41l200 243h97l-42 -240h48zM562 295l-148 -181h116z" />
    <glyph glyph-name="questiondown" unicode="&#xbf;" horiz-adv-x="489" 
d="M306 443l19 107h110l-19 -107h-110zM184 -183q-100 0 -151 56t-34 157q9 54 35 92t63.5 62t84.5 35.5t99 12.5l21 118h87l-32 -180h-40q-36 0 -73.5 -5t-69.5 -20t-54.5 -42.5t-30.5 -71.5q-11 -66 19 -102.5t92 -36.5q66 0 103 35t51 92h88q-19 -91 -85 -146.5
t-173 -55.5z" />
    <glyph glyph-name="Agrave" unicode="&#xc0;" 
d="M504 752l-143 89l26 51l137 -102zM454 163h-310l-88 -163h-97l381 692h104l138 -692h-98zM441 234l-66 357l-193 -357h259z" />
    <glyph glyph-name="Aacute" unicode="&#xc1;" 
d="M345 757l-12 34l166 100l19 -49zM454 163h-310l-88 -163h-97l381 692h104l138 -692h-98zM441 234l-66 357l-193 -357h259z" />
    <glyph glyph-name="Acircumflex" unicode="&#xc2;" 
d="M309 755l-13 40l142 77l115 -77l-24 -40l-99 66zM454 163h-310l-88 -163h-97l381 692h104l138 -692h-98zM441 234l-66 357l-193 -357h259z" />
    <glyph glyph-name="Atilde" unicode="&#xc3;" 
d="M361 808q-33 0 -48 -45h-43q31 94 102 94q19 0 32 -7t23.5 -16t21.5 -16t27 -7q15 0 28.5 11t20.5 33h44q-14 -46 -41.5 -69.5t-62.5 -23.5q-20 0 -33 7t-24 16t-21.5 16t-25.5 7zM454 163h-310l-88 -163h-97l381 692h104l138 -692h-98zM441 234l-66 357l-193 -357h259z
" />
    <glyph glyph-name="Adieresis" unicode="&#xc4;" 
d="M332 782q-21 0 -33 14.5t-8 34.5q4 21 20.5 35.5t37.5 14.5q22 0 34 -14.5t8 -35.5q-4 -20 -21 -34.5t-38 -14.5zM498 782q-21 0 -33 14.5t-8 34.5q5 21 21.5 35.5t37.5 14.5t33 -14.5t8 -35.5q-4 -20 -21 -34.5t-38 -14.5zM454 163h-310l-88 -163h-97l381 692h104
l138 -692h-98zM441 234l-66 357l-193 -357h259z" />
    <glyph glyph-name="Aring" unicode="&#xc5;" 
d="M398 764q-44 0 -69.5 28t-17.5 77q9 49 44.5 77t79.5 28q43 0 69 -28t17 -77q-8 -49 -44 -77t-79 -28zM355 869q-5 -29 9.5 -46t40.5 -17t47 17t26 46t-10 46t-41 17t-46.5 -17t-25.5 -46zM454 163h-310l-88 -163h-97l381 692h104l138 -692h-98zM441 234l-66 357
l-193 -357h259z" />
    <glyph glyph-name="AE" unicode="&#xc6;" horiz-adv-x="890" 
d="M600 631l-42 -239h264l-12 -71h-264l-44 -247h295l-13 -74h-386l28 160h-262l-119 -160h-101l524 705h440l-13 -74h-295zM507 621l-291 -391h222z" />
    <glyph glyph-name="Ccedilla" unicode="&#xc7;" horiz-adv-x="763" 
d="M335 78q91 0 157.5 43t104.5 110h96q-45 -96 -124 -157.5t-189 -75.5l-11 -65q26 1 48.5 -4.5t38 -17.5t22.5 -31.5t2 -46.5q-8 -49 -47.5 -71t-90.5 -22h-103l9 53h92q37 0 54 11.5t21 30.5q4 21 -9 36t-49 15h-55l20 108q-75 0 -132 26.5t-93 74t-49 113t1 144.5
q14 80 50 146t88.5 113.5t119 74t141.5 26.5q132 0 203.5 -65t83.5 -172h-96q-14 67 -65 110t-142 43q-51 0 -98.5 -19t-86 -55t-66 -87t-38.5 -115q-11 -63 -1.5 -114t35.5 -86.5t66.5 -54.5t91.5 -19z" />
    <glyph glyph-name="Egrave" unicode="&#xc8;" horiz-adv-x="506" 
d="M453 790l-20 -38l-143 89l26 51zM213 631l-42 -241h268l-13 -70h-268l-43 -246h298l-13 -74h-389l124 705h389l-13 -74h-298z" />
    <glyph glyph-name="Eacute" unicode="&#xc9;" horiz-adv-x="506" 
d="M447 842l-173 -85l-12 34l166 100zM213 631l-42 -241h268l-13 -70h-268l-43 -246h298l-13 -74h-389l124 705h389l-13 -74h-298z" />
    <glyph glyph-name="Ecircumflex" unicode="&#xca;" horiz-adv-x="506" 
d="M359 821l-121 -66l-13 40l142 77l115 -77l-24 -40zM213 631l-42 -241h268l-13 -70h-268l-43 -246h298l-13 -74h-389l124 705h389l-13 -74h-298z" />
    <glyph glyph-name="Edieresis" unicode="&#xcb;" horiz-adv-x="506" 
d="M225 831q4 21 20.5 35.5t37.5 14.5q22 0 34 -14.5t8 -35.5q-4 -20 -21 -34.5t-38 -14.5t-33 14.5t-8 34.5zM391 831q5 21 21.5 35.5t37.5 14.5t33 -14.5t8 -35.5q-4 -20 -21 -34.5t-38 -14.5t-33 14.5t-8 34.5zM213 631l-42 -241h268l-13 -70h-268l-43 -246h298l-13 -74
h-389l124 705h389l-13 -74h-298z" />
    <glyph glyph-name="Igrave" unicode="&#xcc;" horiz-adv-x="237" 
d="M318 790l-20 -38l-143 89l26 51zM226 705l-124 -705h-91l124 705h91z" />
    <glyph glyph-name="Iacute" unicode="&#xcd;" horiz-adv-x="237" 
d="M312 842l-173 -85l-12 34l166 100zM226 705l-124 -705h-91l124 705h91z" />
    <glyph glyph-name="Icircumflex" unicode="&#xce;" horiz-adv-x="237" 
d="M224 821l-121 -66l-13 40l142 77l115 -77l-24 -40zM226 705l-124 -705h-91l124 705h91z" />
    <glyph glyph-name="Idieresis" unicode="&#xcf;" horiz-adv-x="237" 
d="M80 831q4 21 20.5 35.5t37.5 14.5q22 0 34 -14.5t8 -35.5q-4 -20 -21 -34.5t-38 -14.5t-33 14.5t-8 34.5zM246 831q5 21 21.5 35.5t37.5 14.5t33 -14.5t8 -35.5q-4 -20 -21 -34.5t-38 -14.5t-33 14.5t-8 34.5zM226 705l-124 -705h-91l124 705h91z" />
    <glyph glyph-name="Eth" unicode="&#xd0;" horiz-adv-x="742" 
d="M384 705q90 0 154.5 -24.5t103.5 -70.5t52 -111t-1 -146q-14 -80 -50 -145.5t-91 -111.5t-128.5 -71t-163.5 -25h-224l56 316h-92l13 74h92l55 315h224zM600 353q23 128 -36.5 200t-200.5 72h-125l-42 -235h197l-13 -74h-197l-41 -234h125q141 0 225.5 71.5t107.5 199.5z
" />
    <glyph glyph-name="Ntilde" unicode="&#xd1;" horiz-adv-x="694" 
d="M395 857q19 0 32 -7t23.5 -16t21.5 -16t27 -7q15 0 28.5 11t20.5 33h44q-14 -46 -41.5 -69.5t-62.5 -23.5q-20 0 -33 7t-24 16t-21.5 16t-25.5 7q-33 0 -48 -45h-43q31 94 102 94zM559 0h-91l-268 557l-98 -557h-91l124 705h91l267 -558l99 558h91z" />
    <glyph glyph-name="Ograve" unicode="&#xd2;" horiz-adv-x="785" 
d="M580 790l-20 -38l-143 89l26 51zM446 714q79 0 139.5 -27.5t98.5 -77.5t52 -118.5t-1 -151.5q-13 -76 -48.5 -140t-87 -110t-118 -71.5t-141.5 -25.5q-80 0 -140.5 27.5t-99 77.5t-52 119t1.5 151q14 77 49 140.5t87 109.5t118.5 71.5t141.5 25.5zM438 629
q-54 0 -103 -19t-88.5 -54t-67.5 -85.5t-39 -113.5q-11 -65 -1 -117t38 -88t72 -55.5t99 -19.5q53 0 102 19t89 54.5t67.5 86t38.5 113.5q11 65 1 116.5t-38 87.5t-71.5 55.5t-98.5 19.5z" />
    <glyph glyph-name="Oacute" unicode="&#xd3;" horiz-adv-x="785" 
d="M574 842l-173 -85l-12 34l166 100zM446 714q79 0 139.5 -27.5t98.5 -77.5t52 -118.5t-1 -151.5q-13 -76 -48.5 -140t-87 -110t-118 -71.5t-141.5 -25.5q-80 0 -140.5 27.5t-99 77.5t-52 119t1.5 151q14 77 49 140.5t87 109.5t118.5 71.5t141.5 25.5zM438 629
q-54 0 -103 -19t-88.5 -54t-67.5 -85.5t-39 -113.5q-11 -65 -1 -117t38 -88t72 -55.5t99 -19.5q53 0 102 19t89 54.5t67.5 86t38.5 113.5q11 65 1 116.5t-38 87.5t-71.5 55.5t-98.5 19.5z" />
    <glyph glyph-name="Ocircumflex" unicode="&#xd4;" horiz-adv-x="785" 
d="M486 821l-121 -66l-13 40l142 77l115 -77l-24 -40zM446 714q79 0 139.5 -27.5t98.5 -77.5t52 -118.5t-1 -151.5q-13 -76 -48.5 -140t-87 -110t-118 -71.5t-141.5 -25.5q-80 0 -140.5 27.5t-99 77.5t-52 119t1.5 151q14 77 49 140.5t87 109.5t118.5 71.5t141.5 25.5z
M438 629q-54 0 -103 -19t-88.5 -54t-67.5 -85.5t-39 -113.5q-11 -65 -1 -117t38 -88t72 -55.5t99 -19.5q53 0 102 19t89 54.5t67.5 86t38.5 113.5q11 65 1 116.5t-38 87.5t-71.5 55.5t-98.5 19.5z" />
    <glyph glyph-name="Otilde" unicode="&#xd5;" horiz-adv-x="785" 
d="M428 857q19 0 32 -7t23.5 -16t21.5 -16t27 -7q15 0 28.5 11t20.5 33h44q-14 -46 -41.5 -69.5t-62.5 -23.5q-20 0 -33 7t-24 16t-21.5 16t-25.5 7q-33 0 -48 -45h-43q31 94 102 94zM446 714q79 0 139.5 -27.5t98.5 -77.5t52 -118.5t-1 -151.5q-13 -76 -48.5 -140t-87 -110
t-118 -71.5t-141.5 -25.5q-80 0 -140.5 27.5t-99 77.5t-52 119t1.5 151q14 77 49 140.5t87 109.5t118.5 71.5t141.5 25.5zM438 629q-54 0 -103 -19t-88.5 -54t-67.5 -85.5t-39 -113.5q-11 -65 -1 -117t38 -88t72 -55.5t99 -19.5q53 0 102 19t89 54.5t67.5 86t38.5 113.5
q11 65 1 116.5t-38 87.5t-71.5 55.5t-98.5 19.5z" />
    <glyph glyph-name="Odieresis" unicode="&#xd6;" horiz-adv-x="785" 
d="M351 831q4 21 20.5 35.5t37.5 14.5q22 0 34 -14.5t8 -35.5q-4 -20 -21 -34.5t-38 -14.5t-33 14.5t-8 34.5zM517 831q5 21 21.5 35.5t37.5 14.5t33 -14.5t8 -35.5q-4 -20 -21 -34.5t-38 -14.5t-33 14.5t-8 34.5zM446 714q79 0 139.5 -27.5t98.5 -77.5t52 -118.5t-1 -151.5
q-13 -76 -48.5 -140t-87 -110t-118 -71.5t-141.5 -25.5q-80 0 -140.5 27.5t-99 77.5t-52 119t1.5 151q14 77 49 140.5t87 109.5t118.5 71.5t141.5 25.5zM438 629q-54 0 -103 -19t-88.5 -54t-67.5 -85.5t-39 -113.5q-11 -65 -1 -117t38 -88t72 -55.5t99 -19.5q53 0 102 19
t89 54.5t67.5 86t38.5 113.5q11 65 1 116.5t-38 87.5t-71.5 55.5t-98.5 19.5z" />
    <glyph glyph-name="multiply" unicode="&#xd7;" horiz-adv-x="509" 
d="M318 370l133 -162l-72 -61l-133 162l-188 -161l-49 59l188 161l-131 159l72 60l131 -158l185 158l49 -59z" />
    <glyph glyph-name="Oslash" unicode="&#xd8;" horiz-adv-x="791" 
d="M691 600q34 -50 46 -116t-2 -145q-13 -76 -48.5 -140t-87 -110t-118 -71.5t-141.5 -25.5q-70 0 -125.5 21.5t-93.5 60.5l-80 -74h-58l113 104q-35 49 -47.5 116t1.5 147q14 77 49 140.5t87 109.5t118.5 71.5t141.5 25.5q71 0 126.5 -22t94.5 -63l84 78h56zM140 357
q-10 -58 -3 -105.5t29 -83.5l432 398q-57 63 -160 63q-54 0 -103 -19t-88.5 -54t-67.5 -85.5t-39 -113.5zM645 350q10 57 3 103.5t-27 81.5l-431 -398q57 -60 158 -60q53 0 102 19t89 54.5t67.5 86t38.5 113.5z" />
    <glyph glyph-name="Ugrave" unicode="&#xd9;" horiz-adv-x="661" 
d="M530 790l-20 -38l-143 89l26 51zM222 705l-74 -423q-19 -107 19.5 -155t116.5 -48q77 0 132 48t74 155l74 423h92l-75 -423q-13 -75 -42.5 -129.5t-70.5 -90t-92.5 -52.5t-108.5 -17t-102 17t-73.5 52.5t-38.5 90t3 129.5l75 423h91z" />
    <glyph glyph-name="Uacute" unicode="&#xda;" horiz-adv-x="661" 
d="M524 842l-173 -85l-12 34l166 100zM222 705l-74 -423q-19 -107 19.5 -155t116.5 -48q77 0 132 48t74 155l74 423h92l-75 -423q-13 -75 -42.5 -129.5t-70.5 -90t-92.5 -52.5t-108.5 -17t-102 17t-73.5 52.5t-38.5 90t3 129.5l75 423h91z" />
    <glyph glyph-name="Ucircumflex" unicode="&#xdb;" horiz-adv-x="661" 
d="M436 821l-121 -66l-13 40l142 77l115 -77l-24 -40zM222 705l-74 -423q-19 -107 19.5 -155t116.5 -48q77 0 132 48t74 155l74 423h92l-75 -423q-13 -75 -42.5 -129.5t-70.5 -90t-92.5 -52.5t-108.5 -17t-102 17t-73.5 52.5t-38.5 90t3 129.5l75 423h91z" />
    <glyph glyph-name="Udieresis" unicode="&#xdc;" horiz-adv-x="661" 
d="M288 831q4 21 20.5 35.5t37.5 14.5q22 0 34 -14.5t8 -35.5q-4 -20 -21 -34.5t-38 -14.5t-33 14.5t-8 34.5zM454 831q5 21 21.5 35.5t37.5 14.5t33 -14.5t8 -35.5q-4 -20 -21 -34.5t-38 -14.5t-33 14.5t-8 34.5zM222 705l-74 -423q-19 -107 19.5 -155t116.5 -48
q77 0 132 48t74 155l74 423h92l-75 -423q-13 -75 -42.5 -129.5t-70.5 -90t-92.5 -52.5t-108.5 -17t-102 17t-73.5 52.5t-38.5 90t3 129.5l75 423h91z" />
    <glyph glyph-name="Yacute" unicode="&#xdd;" horiz-adv-x="593" 
d="M317 757l-12 34l166 100l19 -49zM636 705l-308 -438l-47 -267h-92l47 267l-155 438h106l113 -340l232 340h104z" />
    <glyph glyph-name="Thorn" unicode="&#xde;" horiz-adv-x="571" 
d="M128 147l-26 -147h-91l124 705h91l-26 -144h134q62 0 105 -15t67.5 -42.5t32 -65.5t-0.5 -85q-17 -97 -87.5 -151.5t-189.5 -54.5h-133zM265 219q86 0 128 36.5t52 97.5q11 63 -17.5 99t-114.5 36h-125l-47 -269h124z" />
    <glyph glyph-name="germandbls" unicode="&#xdf;" horiz-adv-x="650" 
d="M486 370q66 -45 90.5 -96.5t11.5 -121.5q-6 -34 -23.5 -64t-44.5 -51.5t-63 -34t-80 -12.5q-90 0 -137 50.5t-34 141.5h77q-8 -49 14 -80.5t78 -31.5q28 0 50 8.5t37.5 22.5t25 31.5t12.5 35.5q7 38 -6.5 69t-60.5 66l-140 103l7 37l37 17q68 32 80 98q8 48 -15.5 77.5
t-74.5 29.5q-53 0 -87.5 -31t-44.5 -86l-96 -548h-92l98 551q17 95 79 147t164 52q45 0 79.5 -12.5t56 -34.5t30 -52.5t1.5 -66.5q-8 -45 -40.5 -80t-88.5 -58l-5 -2z" />
    <glyph glyph-name="agrave" unicode="&#xe0;" horiz-adv-x="675" 
d="M510 634l-20 -38l-143 89l26 51zM345 556q84 0 132.5 -41t58.5 -106l24 140h91l-97 -549h-90l24 140q-32 -65 -94 -106t-144 -41q-56 0 -99.5 20t-70.5 57t-36 90.5t3 120.5q11 65 39 116t67.5 86t88.5 54t103 19zM361 475q-85 0 -144.5 -53t-76.5 -148t24 -148t126 -53
q40 0 76.5 14.5t66 40.5t50.5 63t29 83t0.5 83t-27.5 63.5t-52 40.5t-72 14z" />
    <glyph glyph-name="aacute" unicode="&#xe1;" horiz-adv-x="675" 
d="M504 686l-173 -85l-12 34l166 100zM345 556q84 0 132.5 -41t58.5 -106l24 140h91l-97 -549h-90l24 140q-32 -65 -94 -106t-144 -41q-56 0 -99.5 20t-70.5 57t-36 90.5t3 120.5q11 65 39 116t67.5 86t88.5 54t103 19zM361 475q-85 0 -144.5 -53t-76.5 -148t24 -148
t126 -53q40 0 76.5 14.5t66 40.5t50.5 63t29 83t0.5 83t-27.5 63.5t-52 40.5t-72 14z" />
    <glyph glyph-name="acircumflex" unicode="&#xe2;" horiz-adv-x="675" 
d="M416 665l-121 -66l-13 40l142 77l115 -77l-24 -40zM345 556q84 0 132.5 -41t58.5 -106l24 140h91l-97 -549h-90l24 140q-32 -65 -94 -106t-144 -41q-56 0 -99.5 20t-70.5 57t-36 90.5t3 120.5q11 65 39 116t67.5 86t88.5 54t103 19zM361 475q-85 0 -144.5 -53t-76.5 -148
t24 -148t126 -53q40 0 76.5 14.5t66 40.5t50.5 63t29 83t0.5 83t-27.5 63.5t-52 40.5t-72 14z" />
    <glyph glyph-name="atilde" unicode="&#xe3;" horiz-adv-x="675" 
d="M358 701q19 0 32 -7t23.5 -16t21.5 -16t27 -7q15 0 28.5 11t20.5 33h44q-14 -46 -41.5 -69.5t-62.5 -23.5q-20 0 -33 7t-24 16t-21.5 16t-25.5 7q-33 0 -48 -45h-43q31 94 102 94zM345 556q84 0 132.5 -41t58.5 -106l24 140h91l-97 -549h-90l24 140q-32 -65 -94 -106
t-144 -41q-56 0 -99.5 20t-70.5 57t-36 90.5t3 120.5q11 65 39 116t67.5 86t88.5 54t103 19zM361 475q-85 0 -144.5 -53t-76.5 -148t24 -148t126 -53q40 0 76.5 14.5t66 40.5t50.5 63t29 83t0.5 83t-27.5 63.5t-52 40.5t-72 14z" />
    <glyph glyph-name="adieresis" unicode="&#xe4;" horiz-adv-x="675" 
d="M258 674q4 21 20.5 35.5t37.5 14.5q22 0 34 -14.5t8 -35.5q-4 -20 -21 -34.5t-38 -14.5t-33 14.5t-8 34.5zM424 674q5 21 21.5 35.5t37.5 14.5t33 -14.5t8 -35.5q-4 -20 -21 -34.5t-38 -14.5t-33 14.5t-8 34.5zM345 556q84 0 132.5 -41t58.5 -106l24 140h91l-97 -549h-90
l24 140q-32 -65 -94 -106t-144 -41q-56 0 -99.5 20t-70.5 57t-36 90.5t3 120.5q11 65 39 116t67.5 86t88.5 54t103 19zM361 475q-85 0 -144.5 -53t-76.5 -148t24 -148t126 -53q40 0 76.5 14.5t66 40.5t50.5 63t29 83t0.5 83t-27.5 63.5t-52 40.5t-72 14z" />
    <glyph glyph-name="aring" unicode="&#xe5;" horiz-adv-x="675" 
d="M394 817q43 0 69 -28t17 -77q-8 -49 -44 -77t-79 -28q-44 0 -69.5 28t-17.5 77q9 49 44.5 77t79.5 28zM386 775q-26 0 -46.5 -17t-25.5 -46t9.5 -46t40.5 -17t47 17t26 46t-10 46t-41 17zM345 556q84 0 132.5 -41t58.5 -106l24 140h91l-97 -549h-90l24 140
q-32 -65 -94 -106t-144 -41q-56 0 -99.5 20t-70.5 57t-36 90.5t3 120.5q11 65 39 116t67.5 86t88.5 54t103 19zM361 475q-85 0 -144.5 -53t-76.5 -148t24 -148t126 -53q40 0 76.5 14.5t66 40.5t50.5 63t29 83t0.5 83t-27.5 63.5t-52 40.5t-72 14z" />
    <glyph glyph-name="ae" unicode="&#xe6;" horiz-adv-x="1107" 
d="M866 556q58 0 100 -20t67 -54.5t33.5 -80t-0.5 -96.5q-3 -17 -5.5 -27.5t-7.5 -22.5h-452q-7 -50 2.5 -85.5t30.5 -58.5t51.5 -34t65.5 -11q69 0 121 33t73 91h96q-15 -43 -41.5 -79t-61.5 -62t-78.5 -41t-93.5 -15q-76 0 -128 37t-60 110l-25 -140h-91l25 140
q-32 -65 -94 -106t-144 -41q-55 0 -98 19.5t-70 55.5t-37 88t2 118t40 118.5t68 88.5t89.5 55.5t104.5 19.5q82 0 129.5 -41t57.5 -106l24 140h91l-25 -141q34 73 97 110.5t144 37.5zM973 299q11 48 2.5 82.5t-29.5 57t-52.5 33t-66.5 10.5q-37 0 -72 -10.5t-64 -32.5
t-50 -56.5t-32 -83.5h364zM511 274q8 46 0.5 83t-27.5 63.5t-52 40.5t-72 14q-85 0 -144.5 -53t-76.5 -148t24 -148t126 -53q40 0 76.5 14.5t66 40.5t50.5 63t29 83z" />
    <glyph glyph-name="ccedilla" unicode="&#xe7;" horiz-adv-x="622" 
d="M279 72q66 0 116.5 33.5t70.5 93.5h97q-30 -87 -99 -141.5t-164 -63.5l-11 -61q26 1 48.5 -4.5t38 -17.5t22.5 -31.5t2 -46.5q-8 -49 -47.5 -71t-90.5 -22h-103l9 53h92q37 0 54 11.5t21 30.5q4 21 -9 36t-49 15h-55l20 108q-53 4 -94.5 25.5t-67.5 58.5t-35 88t2 115
q11 65 40 116t71 86t94.5 54t110.5 19q54 0 96 -14.5t71 -41.5t44.5 -65t15.5 -85h-97q0 60 -38.5 93t-104.5 33q-34 0 -68 -12t-62.5 -36.5t-50 -62.5t-30.5 -91q-9 -52 -1 -90t27.5 -63t49.5 -37t64 -12z" />
    <glyph glyph-name="egrave" unicode="&#xe8;" horiz-adv-x="624" 
d="M464 596l-143 89l26 51l137 -102zM365 556q62 0 107.5 -20t73 -54.5t37 -80t0.5 -96.5q-3 -17 -5.5 -27.5t-7.5 -22.5h-438q-7 -50 1.5 -85.5t29 -58.5t50 -33.5t62.5 -10.5q66 0 116.5 33t70.5 90h96q-15 -43 -42 -79t-64.5 -62t-84.5 -41t-101 -15q-59 0 -105 19.5
t-75.5 56.5t-40.5 89.5t1 119.5q12 65 41 116.5t71.5 87.5t95.5 55t111 19zM490 299q11 48 3.5 82.5t-28 57t-50.5 33t-63 10.5q-34 0 -68 -11t-63 -33.5t-50.5 -57t-31.5 -81.5h351z" />
    <glyph glyph-name="eacute" unicode="&#xe9;" horiz-adv-x="624" 
d="M305 601l-12 34l166 100l19 -49zM365 556q62 0 107.5 -20t73 -54.5t37 -80t0.5 -96.5q-3 -17 -5.5 -27.5t-7.5 -22.5h-438q-7 -50 1.5 -85.5t29 -58.5t50 -33.5t62.5 -10.5q66 0 116.5 33t70.5 90h96q-15 -43 -42 -79t-64.5 -62t-84.5 -41t-101 -15q-59 0 -105 19.5
t-75.5 56.5t-40.5 89.5t1 119.5q12 65 41 116.5t71.5 87.5t95.5 55t111 19zM490 299q11 48 3.5 82.5t-28 57t-50.5 33t-63 10.5q-34 0 -68 -11t-63 -33.5t-50.5 -57t-31.5 -81.5h351z" />
    <glyph glyph-name="ecircumflex" unicode="&#xea;" horiz-adv-x="624" 
d="M269 599l-13 40l142 77l115 -77l-24 -40l-99 66zM365 556q62 0 107.5 -20t73 -54.5t37 -80t0.5 -96.5q-3 -17 -5.5 -27.5t-7.5 -22.5h-438q-7 -50 1.5 -85.5t29 -58.5t50 -33.5t62.5 -10.5q66 0 116.5 33t70.5 90h96q-15 -43 -42 -79t-64.5 -62t-84.5 -41t-101 -15
q-59 0 -105 19.5t-75.5 56.5t-40.5 89.5t1 119.5q12 65 41 116.5t71.5 87.5t95.5 55t111 19zM490 299q11 48 3.5 82.5t-28 57t-50.5 33t-63 10.5q-34 0 -68 -11t-63 -33.5t-50.5 -57t-31.5 -81.5h351z" />
    <glyph glyph-name="edieresis" unicode="&#xeb;" horiz-adv-x="623" 
d="M283 625q-21 0 -33 14.5t-8 34.5q4 21 20.5 35.5t37.5 14.5q22 0 34 -14.5t8 -35.5q-4 -20 -21 -34.5t-38 -14.5zM449 625q-21 0 -33 14.5t-8 34.5q5 21 21.5 35.5t37.5 14.5t33 -14.5t8 -35.5q-4 -20 -21 -34.5t-38 -14.5zM365 556q62 0 107.5 -20t73 -54.5t37 -80
t0.5 -96.5q-3 -17 -5.5 -27.5t-7.5 -22.5h-438q-7 -50 1.5 -85.5t29 -58.5t50 -33.5t62.5 -10.5q66 0 116.5 33t70.5 90h96q-15 -43 -42 -79t-64.5 -62t-84.5 -41t-101 -15q-59 0 -105 19.5t-75.5 56.5t-40.5 89.5t1 119.5q12 65 41 116.5t71.5 87.5t95.5 55t111 19z
M490 299q11 48 3.5 82.5t-28 57t-50.5 33t-63 10.5q-34 0 -68 -11t-63 -33.5t-50.5 -57t-31.5 -81.5h351z" />
    <glyph glyph-name="igrave" unicode="&#xec;" horiz-adv-x="233" 
d="M288 634l-20 -38l-143 89l26 51zM211 549l-97 -549h-92l97 549h92z" />
    <glyph glyph-name="iacute" unicode="&#xed;" horiz-adv-x="233" 
d="M282 686l-173 -85l-12 34l166 100zM211 549l-97 -549h-92l97 549h92z" />
    <glyph glyph-name="icircumflex" unicode="&#xee;" horiz-adv-x="233" 
d="M194 665l-121 -66l-13 40l142 77l115 -77l-24 -40zM211 549l-97 -549h-92l97 549h92z" />
    <glyph glyph-name="idieresis" unicode="&#xef;" horiz-adv-x="237" 
d="M61 674q4 21 20.5 35.5t37.5 14.5q22 0 34 -14.5t8 -35.5q-4 -20 -21 -34.5t-38 -14.5t-33 14.5t-8 34.5zM227 674q5 21 21.5 35.5t37.5 14.5t33 -14.5t8 -35.5q-4 -20 -21 -34.5t-38 -14.5t-33 14.5t-8 34.5zM211 549l-97 -549h-92l97 549h92z" />
    <glyph glyph-name="eth" unicode="&#xf0;" horiz-adv-x="641" 
d="M610 702l-100 -32q118 -157 82 -359q-14 -79 -45 -139t-75 -99.5t-97.5 -59.5t-112.5 -20q-61 0 -109 21t-78 59.5t-41 92t1 119.5q11 62 39.5 112.5t70.5 86t94.5 55t112.5 19.5t106 -32t59 -101q-2 64 -18.5 118t-52.5 106l-144 -46l6 38l116 37q-26 30 -59 62h82
l21 -21t19 -21l129 41zM493 274q9 51 1 89t-29 63.5t-51.5 38.5t-66.5 13q-38 0 -74 -12t-65 -36.5t-50 -60.5t-30 -84q-9 -52 -1.5 -91.5t28 -66.5t51.5 -40.5t70 -13.5q38 0 73 13t64 38.5t50 63t30 86.5z" />
    <glyph glyph-name="ntilde" unicode="&#xf1;" horiz-adv-x="643" 
d="M331 652q-33 0 -48 -45h-43q31 94 102 94q19 0 32 -7t23.5 -16t21.5 -16t27 -7q15 0 28.5 11t20.5 33h44q-14 -46 -41.5 -69.5t-62.5 -23.5q-20 0 -33 7t-24 16t-21.5 16t-25.5 7zM412 558q46 0 82.5 -15t59.5 -44.5t31.5 -74.5t-2.5 -105l-57 -319h-90l55 311
q14 85 -20.5 127.5t-105.5 42.5q-73 0 -127 -46.5t-71 -143.5v4l-52 -295h-92l97 549h92l-23 -129q34 69 94 103.5t129 34.5z" />
    <glyph glyph-name="ograve" unicode="&#xf2;" horiz-adv-x="644" 
d="M494 634l-20 -38l-143 89l26 51zM370 556q59 0 106.5 -19.5t78.5 -57t43 -91t0 -121.5q-12 -64 -42 -115t-72.5 -86.5t-96 -54t-111.5 -18.5q-60 0 -107.5 19.5t-79 57t-43.5 91t0 120.5q12 65 42 116t73 86t97 54t112 19zM358 476q-35 0 -70 -12t-65 -36.5t-52.5 -62.5
t-31.5 -91q-9 -52 -0.5 -90t30 -62.5t52.5 -36.5t66 -12t70 12t65 36.5t52 62.5t31 90q9 53 0.5 91t-29.5 62.5t-52 36.5t-66 12z" />
    <glyph glyph-name="oacute" unicode="&#xf3;" horiz-adv-x="644" 
d="M488 686l-173 -85l-12 34l166 100zM370 556q59 0 106.5 -19.5t78.5 -57t43 -91t0 -121.5q-12 -64 -42 -115t-72.5 -86.5t-96 -54t-111.5 -18.5q-60 0 -107.5 19.5t-79 57t-43.5 91t0 120.5q12 65 42 116t73 86t97 54t112 19zM358 476q-35 0 -70 -12t-65 -36.5
t-52.5 -62.5t-31.5 -91q-9 -52 -0.5 -90t30 -62.5t52.5 -36.5t66 -12t70 12t65 36.5t52 62.5t31 90q9 53 0.5 91t-29.5 62.5t-52 36.5t-66 12z" />
    <glyph glyph-name="ocircumflex" unicode="&#xf4;" horiz-adv-x="644" 
d="M400 665l-121 -66l-13 40l142 77l115 -77l-24 -40zM370 556q59 0 106.5 -19.5t78.5 -57t43 -91t0 -121.5q-12 -64 -42 -115t-72.5 -86.5t-96 -54t-111.5 -18.5q-60 0 -107.5 19.5t-79 57t-43.5 91t0 120.5q12 65 42 116t73 86t97 54t112 19zM358 476q-35 0 -70 -12
t-65 -36.5t-52.5 -62.5t-31.5 -91q-9 -52 -0.5 -90t30 -62.5t52.5 -36.5t66 -12t70 12t65 36.5t52 62.5t31 90q9 53 0.5 91t-29.5 62.5t-52 36.5t-66 12z" />
    <glyph glyph-name="otilde" unicode="&#xf5;" horiz-adv-x="644" 
d="M342 701q19 0 32 -7t23.5 -16t21.5 -16t27 -7q15 0 28.5 11t20.5 33h44q-14 -46 -41.5 -69.5t-62.5 -23.5q-20 0 -33 7t-24 16t-21.5 16t-25.5 7q-33 0 -48 -45h-43q31 94 102 94zM370 556q59 0 106.5 -19.5t78.5 -57t43 -91t0 -121.5q-12 -64 -42 -115t-72.5 -86.5
t-96 -54t-111.5 -18.5q-60 0 -107.5 19.5t-79 57t-43.5 91t0 120.5q12 65 42 116t73 86t97 54t112 19zM358 476q-35 0 -70 -12t-65 -36.5t-52.5 -62.5t-31.5 -91q-9 -52 -0.5 -90t30 -62.5t52.5 -36.5t66 -12t70 12t65 36.5t52 62.5t31 90q9 53 0.5 91t-29.5 62.5t-52 36.5
t-66 12z" />
    <glyph glyph-name="odieresis" unicode="&#xf6;" horiz-adv-x="643" 
d="M255 674q4 21 20.5 35.5t37.5 14.5q22 0 34 -14.5t8 -35.5q-4 -20 -21 -34.5t-38 -14.5t-33 14.5t-8 34.5zM421 674q5 21 21.5 35.5t37.5 14.5t33 -14.5t8 -35.5q-4 -20 -21 -34.5t-38 -14.5t-33 14.5t-8 34.5zM370 556q59 0 106.5 -19.5t78.5 -57t43 -91t0 -121.5
q-12 -64 -42 -115t-72.5 -86.5t-96 -54t-111.5 -18.5q-60 0 -107.5 19.5t-79 57t-43.5 91t0 120.5q12 65 42 116t73 86t97 54t112 19zM358 476q-35 0 -70 -12t-65 -36.5t-52.5 -62.5t-31.5 -91q-9 -52 -0.5 -90t30 -62.5t52.5 -36.5t66 -12t70 12t65 36.5t52 62.5t31 90
q9 53 0.5 91t-29.5 62.5t-52 36.5t-66 12z" />
    <glyph glyph-name="divide" unicode="&#xf7;" horiz-adv-x="576" 
d="M391 640l-19 -106h-110l19 106h110zM550 407l-15 -83h-510l15 83h510zM313 200l-18 -106h-111l19 106h110z" />
    <glyph glyph-name="oslash" unicode="&#xf8;" horiz-adv-x="638" 
d="M556 471q27 -37 37 -88t-1 -116q-12 -64 -42 -115t-72.5 -86.5t-96 -54t-111.5 -18.5q-53 0 -96 15t-74 44l-57 -52h-51l85 78q-28 37 -38 88t1 115q12 65 42 116t73 86t97 54t112 19q52 0 94.5 -15t74.5 -44l56 52h51zM133 274q-8 -42 -3.5 -74.5t17.5 -56.5l317 291
q-21 22 -50 32t-62 10q-35 0 -70 -12t-65 -36.5t-52.5 -62.5t-31.5 -91zM499 274q8 42 3.5 75t-18.5 57l-316 -291q21 -21 50.5 -31.5t62.5 -10.5q35 0 70 12t65 36.5t52 62.5t31 90z" />
    <glyph glyph-name="ugrave" unicode="&#xf9;" horiz-adv-x="630" 
d="M467 596l-143 89l26 51l137 -102zM607 549l-97 -549h-91l22 128q-34 -69 -94 -103t-128 -34q-46 0 -82.5 15t-59.5 44.5t-31.5 74t1.5 104.5l57 320h91l-55 -311q-15 -85 20 -128t105 -43q72 0 126 45.5t72 139.5l52 297h92z" />
    <glyph glyph-name="uacute" unicode="&#xfa;" horiz-adv-x="630" 
d="M308 601l-12 34l166 100l19 -49zM607 549l-97 -549h-91l22 128q-34 -69 -94 -103t-128 -34q-46 0 -82.5 15t-59.5 44.5t-31.5 74t1.5 104.5l57 320h91l-55 -311q-15 -85 20 -128t105 -43q72 0 126 45.5t72 139.5l52 297h92z" />
    <glyph glyph-name="ucircumflex" unicode="&#xfb;" horiz-adv-x="630" 
d="M272 599l-13 40l142 77l115 -77l-24 -40l-99 66zM607 549l-97 -549h-91l22 128q-34 -69 -94 -103t-128 -34q-46 0 -82.5 15t-59.5 44.5t-31.5 74t1.5 104.5l57 320h91l-55 -311q-15 -85 20 -128t105 -43q72 0 126 45.5t72 139.5l52 297h92z" />
    <glyph glyph-name="udieresis" unicode="&#xfc;" horiz-adv-x="634" 
d="M285 625q-21 0 -33 14.5t-8 34.5q4 21 20.5 35.5t37.5 14.5q22 0 34 -14.5t8 -35.5q-4 -20 -21 -34.5t-38 -14.5zM451 625q-21 0 -33 14.5t-8 34.5q5 21 21.5 35.5t37.5 14.5t33 -14.5t8 -35.5q-4 -20 -21 -34.5t-38 -14.5zM607 549l-97 -549h-91l22 128
q-34 -69 -94 -103t-128 -34q-46 0 -82.5 15t-59.5 44.5t-31.5 74t1.5 104.5l57 320h91l-55 -311q-15 -85 20 -128t105 -43q72 0 126 45.5t72 139.5l52 297h92z" />
    <glyph glyph-name="yacute" unicode="&#xfd;" horiz-adv-x="561" 
d="M447 686l-173 -85l-12 34l166 100zM149 549l102 -432l241 432h101l-469 -809h-103l162 269l-136 540h102z" />
    <glyph glyph-name="thorn" unicode="&#xfe;" horiz-adv-x="674" 
d="M422 554q57 0 100.5 -20t71.5 -56.5t38 -88.5t-1 -116q-11 -67 -39 -119t-68 -88t-90 -54.5t-104 -18.5q-81 0 -128.5 38.5t-60.5 102.5l-69 -394h-91l176 1000h91l-57 -321q35 61 94 98t137 37zM317 73q41 0 77 13t65.5 38.5t49.5 62.5t29 86q9 48 1.5 86t-27.5 63.5
t-52 39t-72 13.5q-39 0 -75 -13.5t-66 -39.5t-51.5 -63.5t-29.5 -84.5t0 -84.5t28.5 -63.5t52 -39.5t70.5 -13.5z" />
    <glyph glyph-name="ydieresis" unicode="&#xff;" horiz-adv-x="565" 
d="M208 674q4 21 20.5 35.5t37.5 14.5q22 0 34 -14.5t8 -35.5q-4 -20 -21 -34.5t-38 -14.5t-33 14.5t-8 34.5zM374 674q5 21 21.5 35.5t37.5 14.5t33 -14.5t8 -35.5q-4 -20 -21 -34.5t-38 -14.5t-33 14.5t-8 34.5zM149 549l102 -432l241 432h101l-469 -809h-103l162 269
l-136 540h102z" />
    <glyph glyph-name="Amacron" unicode="&#x100;" 
d="M607 867l-11 -64h-352l11 64h352zM444 692l138 -692h-98l-30 163h-310l-88 -163h-97l381 692h104zM441 234l-66 357l-193 -357h259z" />
    <glyph glyph-name="amacron" unicode="&#x101;" horiz-adv-x="675" 
d="M567 710l-11 -64h-352l11 64h352zM345 556q84 0 132.5 -41t58.5 -106l24 140h91l-97 -549h-90l24 140q-32 -65 -94 -106t-144 -41q-56 0 -99.5 20t-70.5 57t-36 90.5t3 120.5q11 65 39 116t67.5 86t88.5 54t103 19zM361 475q-85 0 -144.5 -53t-76.5 -148t24 -148t126 -53
q40 0 76.5 14.5t66 40.5t50.5 63t29 83t0.5 83t-27.5 63.5t-52 40.5t-72 14z" />
    <glyph glyph-name="Abreve" unicode="&#x102;" 
d="M401 766q-64 0 -91 36.5t-18 90.5l2 8h43q-7 -37 11 -57t63 -20t70.5 20t31.5 57h43l-1 -8q-10 -54 -49.5 -90.5t-104.5 -36.5zM454 163h-310l-88 -163h-97l381 692h104l138 -692h-98zM441 234l-66 357l-193 -357h259z" />
    <glyph glyph-name="abreve" unicode="&#x103;" horiz-adv-x="675" 
d="M387 610q-64 0 -91 36.5t-18 90.5l2 8h43q-7 -37 11 -57t63 -20t70.5 20t31.5 57h43l-1 -8q-10 -54 -49.5 -90.5t-104.5 -36.5zM345 556q84 0 132.5 -41t58.5 -106l24 140h91l-97 -549h-90l24 140q-32 -65 -94 -106t-144 -41q-56 0 -99.5 20t-70.5 57t-36 90.5t3 120.5
q11 65 39 116t67.5 86t88.5 54t103 19zM361 475q-85 0 -144.5 -53t-76.5 -148t24 -148t126 -53q40 0 76.5 14.5t66 40.5t50.5 63t29 83t0.5 83t-27.5 63.5t-52 40.5t-72 14z" />
    <glyph glyph-name="Aogonek" unicode="&#x104;" 
d="M609 -147l-9 -53h-104q-55 0 -86.5 26.5t-21.5 77.5q5 36 31.5 62t77.5 36l-30 161h-309l-88 -163h-98l383 692h103l137 -687l-8 -45h-54q-33 0 -54 -13.5t-26 -39.5t11.5 -40t49.5 -14h95zM454 234l-66 357l-192 -357h258z" />
    <glyph glyph-name="aogonek" unicode="&#x105;" horiz-adv-x="675" 
d="M417 -85q-5 -28 11.5 -43.5t49.5 -15.5h95l-9 -53h-103q-56 0 -87 28t-22 82q8 43 38.5 68t75.5 30l22 129q-32 -65 -94 -106t-144 -41q-56 0 -99.5 20t-70.5 57t-36 90.5t3 120.5q11 65 39 116t67.5 86t88.5 54t103 19q84 0 132.5 -41t58.5 -106l24 140h91l-95 -536h4
l-9 -49h-54q-32 0 -53.5 -13t-26.5 -36zM290 73q40 0 76.5 14.5t66 40.5t50.5 63t29 83t0.5 83t-27.5 63.5t-52 40.5t-72 14q-85 0 -144.5 -53t-76.5 -148t24 -148t126 -53z" />
    <glyph glyph-name="Cacute" unicode="&#x106;" horiz-adv-x="763" 
d="M575 842l-173 -85l-12 34l166 100zM448 712q132 0 203.5 -65t83.5 -172h-96q-14 67 -65 110t-142 43q-51 0 -98.5 -19t-86 -55t-66 -87t-38.5 -115q-11 -63 -1.5 -114t35.5 -86.5t66.5 -54.5t91.5 -19q91 0 157.5 43t104.5 110h96q-25 -54 -61.5 -97.5t-83.5 -74.5
t-103.5 -48t-122.5 -17q-75 0 -132 26.5t-93 74t-49 113t1 144.5q14 80 50 146t88.5 113.5t119 74t141.5 26.5z" />
    <glyph glyph-name="cacute" unicode="&#x107;" horiz-adv-x="624" 
d="M478 686l-173 -85l-12 34l166 100zM363 556q54 0 96 -14.5t71 -41.5t44.5 -65t15.5 -85h-97q0 60 -38.5 93t-104.5 33q-34 0 -68 -12t-62.5 -36.5t-50 -62.5t-30.5 -91q-9 -52 -1 -90t27.5 -63t49.5 -37t64 -12q66 0 116.5 33.5t70.5 93.5h97q-16 -47 -44.5 -85
t-66.5 -65t-85 -41.5t-100 -14.5q-59 0 -105 19.5t-75.5 57t-40.5 91t1 120.5q11 65 40 116t71 86t94.5 54t110.5 19z" />
    <glyph glyph-name="Cdotaccent" unicode="&#x10a;" horiz-adv-x="763" 
d="M425 831q4 21 21 35.5t37 14.5q21 0 33.5 -14.5t8.5 -35.5q-4 -20 -21 -34.5t-38 -14.5t-33 14.5t-8 34.5zM448 712q132 0 203.5 -65t83.5 -172h-96q-14 67 -65 110t-142 43q-51 0 -98.5 -19t-86 -55t-66 -87t-38.5 -115q-11 -63 -1.5 -114t35.5 -86.5t66.5 -54.5
t91.5 -19q91 0 157.5 43t104.5 110h96q-25 -54 -61.5 -97.5t-83.5 -74.5t-103.5 -48t-122.5 -17q-75 0 -132 26.5t-93 74t-49 113t1 144.5q14 80 50 146t88.5 113.5t119 74t141.5 26.5z" />
    <glyph glyph-name="cdotaccent" unicode="&#x10b;" horiz-adv-x="622" 
d="M323 674q4 21 21 35.5t37 14.5q21 0 33.5 -14.5t8.5 -35.5q-4 -20 -21 -34.5t-38 -14.5t-33 14.5t-8 34.5zM363 556q54 0 96 -14.5t71 -41.5t44.5 -65t15.5 -85h-97q0 60 -38.5 93t-104.5 33q-34 0 -68 -12t-62.5 -36.5t-50 -62.5t-30.5 -91q-9 -52 -1 -90t27.5 -63
t49.5 -37t64 -12q66 0 116.5 33.5t70.5 93.5h97q-16 -47 -44.5 -85t-66.5 -65t-85 -41.5t-100 -14.5q-59 0 -105 19.5t-75.5 57t-40.5 91t1 120.5q11 65 40 116t71 86t94.5 54t110.5 19z" />
    <glyph glyph-name="Ccaron" unicode="&#x10c;" horiz-adv-x="763" 
d="M613 848l-153 -83l-124 83l11 64l125 -84l152 84zM448 712q132 0 203.5 -65t83.5 -172h-96q-14 67 -65 110t-142 43q-51 0 -98.5 -19t-86 -55t-66 -87t-38.5 -115q-11 -63 -1.5 -114t35.5 -86.5t66.5 -54.5t91.5 -19q91 0 157.5 43t104.5 110h96q-25 -54 -61.5 -97.5
t-83.5 -74.5t-103.5 -48t-122.5 -17q-75 0 -132 26.5t-93 74t-49 113t1 144.5q14 80 50 146t88.5 113.5t119 74t141.5 26.5z" />
    <glyph glyph-name="ccaron" unicode="&#x10d;" horiz-adv-x="622" 
d="M511 691l-153 -83l-124 83l11 64l125 -84l152 84zM363 556q54 0 96 -14.5t71 -41.5t44.5 -65t15.5 -85h-97q0 60 -38.5 93t-104.5 33q-34 0 -68 -12t-62.5 -36.5t-50 -62.5t-30.5 -91q-9 -52 -1 -90t27.5 -63t49.5 -37t64 -12q66 0 116.5 33.5t70.5 93.5h97
q-16 -47 -44.5 -85t-66.5 -65t-85 -41.5t-100 -14.5q-59 0 -105 19.5t-75.5 57t-40.5 91t1 120.5q11 65 40 116t71 86t94.5 54t110.5 19z" />
    <glyph glyph-name="Dcaron" unicode="&#x10e;" horiz-adv-x="717" 
d="M597 848l-153 -83l-124 83l11 64l125 -84l152 84zM667 353q-14 -80 -49.5 -145.5t-91 -111.5t-129 -71t-162.5 -25h-224l124 705h224q89 0 154 -24.5t104 -70.5t51.5 -111t-1.5 -146zM242 82q141 0 225.5 71.5t106.5 199.5q23 128 -36.5 200t-200.5 72h-125l-96 -543h126
z" />
    <glyph glyph-name="dcaron" unicode="&#x10f;" horiz-adv-x="737" 
d="M677 740l-131 -740h-91l25 140q-32 -65 -94.5 -106t-144.5 -41q-55 0 -98 20t-70 57t-36.5 90.5t2.5 120.5q11 65 39 116t67.5 86t88.5 54t103 19q84 0 132 -41t58 -106l58 331h92zM814 740q3 -51 -5 -92q-20 -113 -121 -113l6 41q26 0 40 13.5t19 41.5l4 23h-50l15 86
h92zM353 475q-85 0 -145 -53t-77 -148t24.5 -148t126.5 -53q40 0 76.5 14.5t66 40.5t50.5 63t29 83t0.5 83t-28 63.5t-52 40.5t-71.5 14z" />
    <glyph glyph-name="Dcroat" unicode="&#x110;" horiz-adv-x="742" 
d="M384 705q90 0 154.5 -24.5t103.5 -70.5t52 -111t-1 -146q-14 -80 -50 -145.5t-91 -111.5t-128.5 -71t-163.5 -25h-224l56 316h-92l13 74h92l55 315h224zM600 353q23 128 -36.5 200t-200.5 72h-125l-42 -235h197l-13 -74h-197l-41 -234h125q141 0 225.5 71.5t107.5 199.5z
" />
    <glyph glyph-name="dcroat" unicode="&#x111;" horiz-adv-x="669" 
d="M713 629h-56l-111 -629h-91l25 140q-32 -65 -94.5 -106t-144.5 -41q-55 0 -98 20t-70 57t-36.5 90.5t2.5 120.5q11 65 39 116t67.5 86t88.5 54t103 19q84 0 132 -41t58 -106l39 220h-164l8 46h164l11 65h92l-12 -65h56zM504 274q8 46 0.5 83t-28 63.5t-52 40.5t-71.5 14
q-85 0 -145 -53t-77 -148t24.5 -148t126.5 -53q40 0 76.5 14.5t66 40.5t50.5 63t29 83z" />
    <glyph glyph-name="Emacron" unicode="&#x112;" horiz-adv-x="506" 
d="M541 867l-11 -64h-352l11 64h352zM213 631l-42 -241h268l-13 -70h-268l-43 -246h298l-13 -74h-389l124 705h389l-13 -74h-298z" />
    <glyph glyph-name="emacron" unicode="&#x113;" horiz-adv-x="623" 
d="M547 646h-352l11 64h352zM365 556q62 0 107.5 -20t73 -54.5t37 -80t0.5 -96.5q-3 -17 -5.5 -27.5t-7.5 -22.5h-438q-7 -50 1.5 -85.5t29 -58.5t50 -33.5t62.5 -10.5q66 0 116.5 33t70.5 90h96q-15 -43 -42 -79t-64.5 -62t-84.5 -41t-101 -15q-59 0 -105 19.5t-75.5 56.5
t-40.5 89.5t1 119.5q12 65 41 116.5t71.5 87.5t95.5 55t111 19zM490 299q11 48 3.5 82.5t-28 57t-50.5 33t-63 10.5q-34 0 -68 -11t-63 -33.5t-50.5 -57t-31.5 -81.5h351z" />
    <glyph glyph-name="Ebreve" unicode="&#x114;" horiz-adv-x="506" 
d="M330 766q-64 0 -91 36.5t-18 90.5l2 8h43q-7 -37 11 -57t63 -20t70.5 20t31.5 57h43l-1 -8q-10 -54 -49.5 -90.5t-104.5 -36.5zM213 631l-42 -241h268l-13 -70h-268l-43 -246h298l-13 -74h-389l124 705h389l-13 -74h-298z" />
    <glyph glyph-name="ebreve" unicode="&#x115;" horiz-adv-x="624" 
d="M361 610q-64 0 -91 36.5t-18 90.5l2 8h43q-7 -37 11 -57t63 -20t70.5 20t31.5 57h43l-1 -8q-10 -54 -49.5 -90.5t-104.5 -36.5zM365 556q62 0 107.5 -20t73 -54.5t37 -80t0.5 -96.5q-3 -17 -5.5 -27.5t-7.5 -22.5h-438q-7 -50 1.5 -85.5t29 -58.5t50 -33.5t62.5 -10.5
q66 0 116.5 33t70.5 90h96q-15 -43 -42 -79t-64.5 -62t-84.5 -41t-101 -15q-59 0 -105 19.5t-75.5 56.5t-40.5 89.5t1 119.5q12 65 41 116.5t71.5 87.5t95.5 55t111 19zM490 299q11 48 3.5 82.5t-28 57t-50.5 33t-63 10.5q-34 0 -68 -11t-63 -33.5t-50.5 -57t-31.5 -81.5
h351z" />
    <glyph glyph-name="Edotaccent" unicode="&#x116;" horiz-adv-x="506" 
d="M308 831q4 21 21 35.5t37 14.5q21 0 33.5 -14.5t8.5 -35.5q-4 -20 -21 -34.5t-38 -14.5t-33 14.5t-8 34.5zM213 631l-42 -241h268l-13 -70h-268l-43 -246h298l-13 -74h-389l124 705h389l-13 -74h-298z" />
    <glyph glyph-name="edotaccent" unicode="&#x117;" horiz-adv-x="623" 
d="M366 625q-21 0 -33 14.5t-8 34.5q4 21 21 35.5t37 14.5q21 0 33.5 -14.5t8.5 -35.5q-4 -20 -21 -34.5t-38 -14.5zM365 556q62 0 107.5 -20t73 -54.5t37 -80t0.5 -96.5q-3 -17 -5.5 -27.5t-7.5 -22.5h-438q-7 -50 1.5 -85.5t29 -58.5t50 -33.5t62.5 -10.5q66 0 116.5 33
t70.5 90h96q-15 -43 -42 -79t-64.5 -62t-84.5 -41t-101 -15q-59 0 -105 19.5t-75.5 56.5t-40.5 89.5t1 119.5q12 65 41 116.5t71.5 87.5t95.5 55t111 19zM490 299q11 48 3.5 82.5t-28 57t-50.5 33t-63 10.5q-34 0 -68 -11t-63 -33.5t-50.5 -57t-31.5 -81.5h351z" />
    <glyph glyph-name="Eogonek" unicode="&#x118;" horiz-adv-x="506" 
d="M213 631l-42 -241h268l-13 -70h-268l-43 -246h298l-13 -74h-3l-2 -9h-54q-32 0 -53.5 -13t-26.5 -36q-5 -28 11.5 -43.5t49.5 -15.5h95l-9 -53h-103q-56 0 -87 28t-22 82q6 34 30 60h-215l124 705h389l-13 -74h-298z" />
    <glyph glyph-name="eogonek" unicode="&#x119;" horiz-adv-x="624" 
d="M376 556q62 0 107.5 -20t73 -54.5t37 -80t0.5 -96.5q-3 -17 -5.5 -27.5t-7.5 -22.5h-438q-7 -50 2 -85.5t29.5 -58.5t50 -33.5t62.5 -10.5q66 0 116 33t70 90h97q-26 -75 -89.5 -127t-151.5 -65q-23 -4 -27 -25t13 -34.5t52 -13.5h89l-9 -53h-100q-56 0 -87.5 26.5
t-22.5 77.5l4 21q-51 5 -90 26.5t-63.5 56.5t-33 84t2.5 110q11 66 40.5 118.5t71.5 88.5t95 55.5t112 19.5zM502 299q11 48 3 82.5t-28.5 57t-50.5 33t-63 10.5q-34 0 -68 -11t-62.5 -33.5t-50 -57t-31.5 -81.5h351z" />
    <glyph glyph-name="Ecaron" unicode="&#x11a;" horiz-adv-x="506" 
d="M495 848l-153 -83l-124 83l11 64l125 -84l152 84zM213 631l-42 -241h268l-13 -70h-268l-43 -246h298l-13 -74h-389l124 705h389l-13 -74h-298z" />
    <glyph glyph-name="ecaron" unicode="&#x11b;" horiz-adv-x="623" 
d="M360 608l-124 83l11 64l125 -84l152 84l-11 -64zM365 556q62 0 107.5 -20t73 -54.5t37 -80t0.5 -96.5q-3 -17 -5.5 -27.5t-7.5 -22.5h-438q-7 -50 1.5 -85.5t29 -58.5t50 -33.5t62.5 -10.5q66 0 116.5 33t70.5 90h96q-15 -43 -42 -79t-64.5 -62t-84.5 -41t-101 -15
q-59 0 -105 19.5t-75.5 56.5t-40.5 89.5t1 119.5q12 65 41 116.5t71.5 87.5t95.5 55t111 19zM490 299q11 48 3.5 82.5t-28 57t-50.5 33t-63 10.5q-34 0 -68 -11t-63 -33.5t-50.5 -57t-31.5 -81.5h351z" />
    <glyph glyph-name="Gbreve" unicode="&#x11e;" horiz-adv-x="778" 
d="M465 766q-64 0 -91 36.5t-18 90.5l2 8h43q-7 -37 11 -57t63 -20t70.5 20t31.5 57h43l-1 -8q-10 -54 -49.5 -90.5t-104.5 -36.5zM456 712q63 0 112 -17t84 -47t56 -71.5t28 -91.5h-96q-14 62 -64 102t-134 40q-54 0 -103 -19t-89 -54.5t-68 -86.5t-39 -115
q-12 -66 -1.5 -117.5t38.5 -87t72 -54.5t101 -19q48 0 94 16t84 46t67.5 74t44.5 99h-277l12 68h355l-15 -84q-18 -65 -53 -120t-85 -95t-113 -62.5t-136 -22.5q-77 0 -136 27t-96 75t-50.5 114.5t0.5 146.5q14 78 50.5 143.5t90 113t121.5 73.5t145 26z" />
    <glyph glyph-name="gbreve" unicode="&#x11f;" horiz-adv-x="674" 
d="M386 610q-64 0 -91 36.5t-18 90.5l2 8h43q-7 -37 11 -57t63 -20t70.5 20t31.5 57h43l-1 -8q-10 -54 -49.5 -90.5t-104.5 -36.5zM252 -8q-55 0 -98 20t-70.5 57.5t-37 91t2.5 120.5q11 65 39 116t67.5 86t89 54t103.5 19q84 0 132 -41t58 -106l25 140h90l-99 -558
q-10 -58 -36.5 -105.5t-65.5 -82t-89 -53.5t-107 -19q-113 0 -173 54.5t-67 143.5h90q8 -54 45.5 -86t109.5 -32q36 0 69 11.5t60.5 34t47 56t26.5 78.5l27 149q-32 -65 -94.5 -106.5t-144.5 -41.5zM363 476q-85 0 -144.5 -53t-76.5 -149q-17 -94 24.5 -147t125.5 -53
q40 0 77 14t66.5 40t50.5 63t29 83t0 83.5t-28 63.5t-52 40.5t-72 14.5z" />
    <glyph glyph-name="Gdotaccent" unicode="&#x120;" horiz-adv-x="778" 
d="M430 831q4 21 21 35.5t37 14.5q21 0 33.5 -14.5t8.5 -35.5q-4 -20 -21 -34.5t-38 -14.5t-33 14.5t-8 34.5zM456 712q63 0 112 -17t84 -47t56 -71.5t28 -91.5h-96q-14 62 -64 102t-134 40q-54 0 -103 -19t-89 -54.5t-68 -86.5t-39 -115q-12 -66 -1.5 -117.5t38.5 -87
t72 -54.5t101 -19q48 0 94 16t84 46t67.5 74t44.5 99h-277l12 68h355l-15 -84q-18 -65 -53 -120t-85 -95t-113 -62.5t-136 -22.5q-77 0 -136 27t-96 75t-50.5 114.5t0.5 146.5q14 78 50.5 143.5t90 113t121.5 73.5t145 26z" />
    <glyph glyph-name="gdotaccent" unicode="&#x121;" horiz-adv-x="674" 
d="M342 674q4 21 21 35.5t37 14.5q21 0 33.5 -14.5t8.5 -35.5q-4 -20 -21 -34.5t-38 -14.5t-33 14.5t-8 34.5zM252 -8q-55 0 -98 20t-70.5 57.5t-37 91t2.5 120.5q11 65 39 116t67.5 86t89 54t103.5 19q84 0 132 -41t58 -106l25 140h90l-99 -558q-10 -58 -36.5 -105.5
t-65.5 -82t-89 -53.5t-107 -19q-113 0 -173 54.5t-67 143.5h90q8 -54 45.5 -86t109.5 -32q36 0 69 11.5t60.5 34t47 56t26.5 78.5l27 149q-32 -65 -94.5 -106.5t-144.5 -41.5zM363 476q-85 0 -144.5 -53t-76.5 -149q-17 -94 24.5 -147t125.5 -53q40 0 77 14t66.5 40t50.5 63
t29 83t0 83.5t-28 63.5t-52 40.5t-72 14.5z" />
    <glyph glyph-name="Gcommaaccent" unicode="&#x122;" horiz-adv-x="780" 
d="M457 712q63 0 112 -17t84 -47t56 -71.5t28 -91.5h-96q-14 62 -64 102t-134 40q-54 0 -103 -19t-89 -54.5t-68 -86.5t-39 -115q-12 -66 -1.5 -117.5t38.5 -87t72 -54.5t101 -19q48 0 94 16t84 46t67.5 74t44.5 99h-277l12 68h355l-15 -84q-18 -65 -53 -120t-85 -95
t-113 -62.5t-136 -22.5q-77 0 -136 27t-96 75t-50.5 114.5t0.5 146.5q14 78 50.5 143.5t90 113t121.5 73.5t145 26zM387 -50q2 -17 1.5 -35t-3.5 -33q-11 -60 -42 -89t-79 -29l7 39q47 0 58 61l1 9h-45l13 77h89z" />
    <glyph glyph-name="gcommaaccent" unicode="&#x123;" horiz-adv-x="674" 
d="M351 595q-2 27 -0.5 50t5.5 43q20 112 121 112l-7 -40q-26 0 -39.5 -14t-18.5 -42l-4 -22h50l-15 -87h-92zM238 -8q-55 0 -98 20t-70.5 57.5t-37 91t2.5 120.5q11 65 39 116t67.5 86t89 54t103.5 19q84 0 132 -41t58 -106l25 140h90l-99 -558q-10 -58 -36.5 -105.5
t-65.5 -82t-89 -53.5t-107 -19q-113 0 -173 54.5t-67 143.5h90q8 -54 45.5 -86t109.5 -32q36 0 69 11.5t60.5 34t47 56t26.5 78.5l27 149q-32 -65 -94.5 -106.5t-144.5 -41.5zM349 476q-85 0 -144.5 -53t-76.5 -149q-17 -94 24.5 -147t125.5 -53q40 0 77 14t66.5 40t50.5 63
t29 83t0 83.5t-28 63.5t-52 40.5t-72 14.5z" />
    <glyph glyph-name="Itilde" unicode="&#x128;" horiz-adv-x="237" 
d="M166 857q19 0 32 -7t23.5 -16t21.5 -16t27 -7q15 0 28.5 11t20.5 33h44q-14 -46 -41.5 -69.5t-62.5 -23.5q-20 0 -33 7t-24 16t-21.5 16t-25.5 7q-33 0 -48 -45h-43q31 94 102 94zM226 705l-124 -705h-91l124 705h91z" />
    <glyph glyph-name="itilde" unicode="&#x129;" horiz-adv-x="233" 
d="M136 701q19 0 32 -7t23.5 -16t21.5 -16t27 -7q15 0 28.5 11t20.5 33h44q-14 -46 -41.5 -69.5t-62.5 -23.5q-20 0 -33 7t-24 16t-21.5 16t-25.5 7q-33 0 -48 -45h-43q31 94 102 94zM211 549l-97 -549h-92l97 549h92z" />
    <glyph glyph-name="Imacron" unicode="&#x12a;" horiz-adv-x="237" 
d="M395 867l-11 -64h-352l11 64h352zM226 705l-124 -705h-91l124 705h91z" />
    <glyph glyph-name="imacron" unicode="&#x12b;" horiz-adv-x="240" 
d="M369 710l-11 -64h-352l11 64h352zM211 549l-97 -549h-92l97 549h92z" />
    <glyph glyph-name="Ibreve" unicode="&#x12c;" horiz-adv-x="237" 
d="M195 766q-64 0 -91 36.5t-18 90.5l2 8h43q-7 -37 11 -57t63 -20t70.5 20t31.5 57h43l-1 -8q-10 -54 -49.5 -90.5t-104.5 -36.5zM226 705l-124 -705h-91l124 705h91z" />
    <glyph glyph-name="ibreve" unicode="&#x12d;" horiz-adv-x="233" 
d="M165 610q-64 0 -91 36.5t-18 90.5l2 8h43q-7 -37 11 -57t63 -20t70.5 20t31.5 57h43l-1 -8q-10 -54 -49.5 -90.5t-104.5 -36.5zM211 549l-97 -549h-92l97 549h92z" />
    <glyph glyph-name="Iogonek" unicode="&#x12e;" horiz-adv-x="237" 
d="M-39 -85q-5 -28 11.5 -43.5t49.5 -15.5h95l-9 -53h-103q-56 0 -87 28t-22 82q8 44 40 69t77 30l122 693h91l-124 -705l-7 -36h-54q-32 0 -53.5 -13t-26.5 -36z" />
    <glyph glyph-name="iogonek" unicode="&#x12f;" horiz-adv-x="233" 
d="M204 766q28 0 42.5 -15.5t9.5 -40.5q-4 -25 -24 -40.5t-48 -15.5t-42.5 15.5t-9.5 40.5t24.5 40.5t47.5 15.5zM52 -36q-32 0 -53.5 -13t-26.5 -36q-5 -28 11.5 -43.5t49.5 -15.5h95l-9 -53h-103q-56 0 -87 28t-22 82q8 44 40 69t78 30l95 537h91l-97 -549h-1l-7 -36h-54z
" />
    <glyph glyph-name="Idotaccent" unicode="&#x130;" horiz-adv-x="237" 
d="M162 831q4 21 21 35.5t37 14.5q21 0 33.5 -14.5t8.5 -35.5q-4 -20 -21 -34.5t-38 -14.5t-33 14.5t-8 34.5zM226 705l-124 -705h-91l124 705h91z" />
    <glyph glyph-name="dotlessi" unicode="&#x131;" horiz-adv-x="233" 
d="M211 549l-97 -549h-92l97 549h92z" />
    <glyph glyph-name="Kcommaaccent" unicode="&#x136;" horiz-adv-x="584" 
d="M244 356l259 -356h-112l-236 329l-58 -329h-91l124 705h91l-57 -326l352 326h111zM291 -50q2 -17 1.5 -35t-3.5 -33q-11 -60 -42 -89t-79 -29l7 39q49 0 58 61l2 9h-46l14 77h88z" />
    <glyph glyph-name="kcommaaccent" unicode="&#x137;" horiz-adv-x="495" 
d="M231 279l201 -279h-111l-166 251l-44 -251h-91l130 740h92l-75 -426l248 235h111zM235 -50q2 -17 1.5 -35t-3.5 -33q-11 -60 -42 -89t-79 -29l7 39q47 0 58 61l2 9h-46l14 77h88z" />
    <glyph glyph-name="Lacute" unicode="&#x139;" horiz-adv-x="434" 
d="M411 842l-173 -85l-12 34l166 100zM115 71h250l-13 -71h-341l124 705h91z" />
    <glyph glyph-name="lacute" unicode="&#x13a;" horiz-adv-x="235" 
d="M234 662l-116 -662h-92l108 613l-24 -12l-12 34l44 27l14 78h92l-3 -16l19 11l19 -49z" />
    <glyph glyph-name="Lcommaaccent" unicode="&#x13b;" horiz-adv-x="436" 
d="M110 71h250l-13 -71h-341l124 705h91zM246 -50q2 -17 1.5 -35t-2.5 -33q-11 -60 -42.5 -89t-79.5 -29l7 39q47 0 58 61l2 9h-46l13 77h89z" />
    <glyph glyph-name="lcommaaccent" unicode="&#x13c;" horiz-adv-x="237" 
d="M246 740l-130 -740h-92l130 740h92zM109 -50q2 -17 1.5 -35t-3.5 -33q-11 -60 -42 -89t-79 -29l7 39q47 0 58 61l2 9h-46l14 77h88z" />
    <glyph glyph-name="Lcaron" unicode="&#x13d;" horiz-adv-x="460" 
d="M113 71h250l-13 -71h-341l124 705h91zM434 705q2 -26 0.5 -49t-5.5 -43q-20 -113 -121 -113l7 41q26 0 39.5 14t18.5 41l4 23h-50l16 86h91z" />
    <glyph glyph-name="lcaron" unicode="&#x13e;" horiz-adv-x="299" 
d="M246 740l-130 -740h-92l130 740h92zM389 740q2 -26 0.5 -49t-5.5 -43q-20 -113 -121 -113l8 41q26 0 39.5 13.5t18.5 41.5l4 23h-50l15 86h91z" />
    <glyph glyph-name="Ldot" unicode="&#x13f;" horiz-adv-x="434" 
d="M115 71h250l-13 -71h-341l124 705h91zM277 352q4 21 21 35.5t37 14.5q21 0 33.5 -14.5t8.5 -35.5q-4 -20 -21 -34.5t-38 -14.5t-33 14.5t-8 34.5z" />
    <glyph glyph-name="ldot" unicode="&#x140;" horiz-adv-x="293" 
d="M248 740l-130 -740h-92l130 740h92zM228 370q4 21 21 35.5t37 14.5q21 0 33.5 -14.5t8.5 -35.5q-4 -20 -21 -34.5t-38 -14.5t-33 14.5t-8 34.5z" />
    <glyph glyph-name="Lslash" unicode="&#x141;" horiz-adv-x="453" 
d="M383 71l-12 -71h-342l55 312l-87 -32l16 91l87 32l53 302h92l-47 -267l139 51l-16 -91l-139 -51l-49 -276h250z" />
    <glyph glyph-name="lslash" unicode="&#x142;" horiz-adv-x="250" 
d="M269 455l-84 -33l-74 -422h-92l68 384l-84 -33l16 89l84 33l47 267h91l-40 -229l84 33z" />
    <glyph glyph-name="Nacute" unicode="&#x143;" horiz-adv-x="694" 
d="M541 842l-173 -85l-12 34l166 100zM559 0h-91l-268 557l-98 -557h-91l124 705h91l267 -558l99 558h91z" />
    <glyph glyph-name="nacute" unicode="&#x144;" horiz-adv-x="643" 
d="M315 601l-12 34l166 100l19 -49zM412 558q46 0 82.5 -15t59.5 -44.5t31.5 -74.5t-2.5 -105l-57 -319h-90l55 311q14 85 -20.5 127.5t-105.5 42.5q-73 0 -127 -46.5t-71 -143.5v4l-52 -295h-92l97 549h92l-23 -129q34 69 94 103.5t129 34.5z" />
    <glyph glyph-name="Ncommaaccent" unicode="&#x145;" horiz-adv-x="695" 
d="M555 0h-91l-268 557l-98 -557h-91l124 705h91l267 -558l99 558h91zM345 -50q3 -17 2.5 -35t-3.5 -33q-11 -60 -42 -89t-79 -29l7 39q47 0 58 61l1 9h-45l13 77h88z" />
    <glyph glyph-name="ncommaaccent" unicode="&#x146;" horiz-adv-x="643" 
d="M410 558q46 0 82.5 -15t59.5 -44.5t31.5 -74.5t-2.5 -105l-57 -319h-90l55 311q14 85 -20.5 127.5t-105.5 42.5q-73 0 -127 -46.5t-71 -143.5v4l-52 -295h-92l97 549h92l-23 -129q34 69 94 103.5t129 34.5zM337 -50q2 -17 1.5 -35t-3.5 -33q-11 -60 -42 -89t-79 -29l7 39
q47 0 58 61l1 9h-45l13 77h89z" />
    <glyph glyph-name="Ncaron" unicode="&#x147;" horiz-adv-x="694" 
d="M574 848l-153 -83l-124 83l11 64l125 -84l152 84zM559 0h-91l-268 557l-98 -557h-91l124 705h91l267 -558l99 558h91z" />
    <glyph glyph-name="ncaron" unicode="&#x148;" horiz-adv-x="644" 
d="M375 608l-124 83l11 64l125 -84l152 84l-11 -64zM412 558q46 0 82.5 -15t59.5 -44.5t31.5 -74.5t-2.5 -105l-57 -319h-90l55 311q14 85 -20.5 127.5t-105.5 42.5q-73 0 -127 -46.5t-71 -143.5v4l-52 -295h-92l97 549h92l-23 -129q34 69 94 103.5t129 34.5z" />
    <glyph glyph-name="Omacron" unicode="&#x14c;" horiz-adv-x="785" 
d="M669 867l-11 -64h-352l11 64h352zM446 714q79 0 139.5 -27.5t98.5 -77.5t52 -118.5t-1 -151.5q-13 -76 -48.5 -140t-87 -110t-118 -71.5t-141.5 -25.5q-80 0 -140.5 27.5t-99 77.5t-52 119t1.5 151q14 77 49 140.5t87 109.5t118.5 71.5t141.5 25.5zM438 629
q-54 0 -103 -19t-88.5 -54t-67.5 -85.5t-39 -113.5q-11 -65 -1 -117t38 -88t72 -55.5t99 -19.5q53 0 102 19t89 54.5t67.5 86t38.5 113.5q11 65 1 116.5t-38 87.5t-71.5 55.5t-98.5 19.5z" />
    <glyph glyph-name="omacron" unicode="&#x14d;" horiz-adv-x="643" 
d="M571 710l-11 -64h-352l11 64h352zM370 556q59 0 106.5 -19.5t78.5 -57t43 -91t0 -121.5q-12 -64 -42 -115t-72.5 -86.5t-96 -54t-111.5 -18.5q-60 0 -107.5 19.5t-79 57t-43.5 91t0 120.5q12 65 42 116t73 86t97 54t112 19zM358 476q-35 0 -70 -12t-65 -36.5t-52.5 -62.5
t-31.5 -91q-9 -52 -0.5 -90t30 -62.5t52.5 -36.5t66 -12t70 12t65 36.5t52 62.5t31 90q9 53 0.5 91t-29.5 62.5t-52 36.5t-66 12z" />
    <glyph glyph-name="Obreve" unicode="&#x14e;" horiz-adv-x="785" 
d="M457 766q-64 0 -91 36.5t-18 90.5l2 8h43q-7 -37 11 -57t63 -20t70.5 20t31.5 57h43l-1 -8q-10 -54 -49.5 -90.5t-104.5 -36.5zM446 714q79 0 139.5 -27.5t98.5 -77.5t52 -118.5t-1 -151.5q-13 -76 -48.5 -140t-87 -110t-118 -71.5t-141.5 -25.5q-80 0 -140.5 27.5
t-99 77.5t-52 119t1.5 151q14 77 49 140.5t87 109.5t118.5 71.5t141.5 25.5zM438 629q-54 0 -103 -19t-88.5 -54t-67.5 -85.5t-39 -113.5q-11 -65 -1 -117t38 -88t72 -55.5t99 -19.5q53 0 102 19t89 54.5t67.5 86t38.5 113.5q11 65 1 116.5t-38 87.5t-71.5 55.5t-98.5 19.5z
" />
    <glyph glyph-name="obreve" unicode="&#x14f;" horiz-adv-x="644" 
d="M371 610q-64 0 -91 36.5t-18 90.5l2 8h43q-7 -37 11 -57t63 -20t70.5 20t31.5 57h43l-1 -8q-10 -54 -49.5 -90.5t-104.5 -36.5zM370 556q59 0 106.5 -19.5t78.5 -57t43 -91t0 -121.5q-12 -64 -42 -115t-72.5 -86.5t-96 -54t-111.5 -18.5q-60 0 -107.5 19.5t-79 57
t-43.5 91t0 120.5q12 65 42 116t73 86t97 54t112 19zM358 476q-35 0 -70 -12t-65 -36.5t-52.5 -62.5t-31.5 -91q-9 -52 -0.5 -90t30 -62.5t52.5 -36.5t66 -12t70 12t65 36.5t52 62.5t31 90q9 53 0.5 91t-29.5 62.5t-52 36.5t-66 12z" />
    <glyph glyph-name="Ohungarumlaut" unicode="&#x150;" horiz-adv-x="785" 
d="M416 758h-60l94 154h75zM566 758h-60l107 154h74zM446 714q79 0 139.5 -27.5t98.5 -77.5t52 -118.5t-1 -151.5q-13 -76 -48.5 -140t-87 -110t-118 -71.5t-141.5 -25.5q-80 0 -140.5 27.5t-99 77.5t-52 119t1.5 151q14 77 49 140.5t87 109.5t118.5 71.5t141.5 25.5z
M438 629q-54 0 -103 -19t-88.5 -54t-67.5 -85.5t-39 -113.5q-11 -65 -1 -117t38 -88t72 -55.5t99 -19.5q53 0 102 19t89 54.5t67.5 86t38.5 113.5q11 65 1 116.5t-38 87.5t-71.5 55.5t-98.5 19.5z" />
    <glyph glyph-name="ohungarumlaut" unicode="&#x151;" horiz-adv-x="643" 
d="M324 601h-60l94 154h75zM474 601h-60l107 154h74zM370 556q59 0 106.5 -19.5t78.5 -57t43 -91t0 -121.5q-12 -64 -42 -115t-72.5 -86.5t-96 -54t-111.5 -18.5q-60 0 -107.5 19.5t-79 57t-43.5 91t0 120.5q12 65 42 116t73 86t97 54t112 19zM358 476q-35 0 -70 -12
t-65 -36.5t-52.5 -62.5t-31.5 -91q-9 -52 -0.5 -90t30 -62.5t52.5 -36.5t66 -12t70 12t65 36.5t52 62.5t31 90q9 53 0.5 91t-29.5 62.5t-52 36.5t-66 12z" />
    <glyph glyph-name="OE" unicode="&#x152;" horiz-adv-x="1086" 
d="M751 390h267l-12 -70h-268l-43 -246h298l-13 -74h-390l30 168q-21 -41 -52.5 -73.5t-70 -55.5t-82.5 -35.5t-89 -12.5q-74 0 -132 27t-94.5 76t-50 116.5t0.5 148.5q14 78 49.5 143t88 112.5t119.5 73.5t143 26q46 0 86 -12.5t71 -35.5t51 -56t27 -74l30 169h389l-13 -74
h-298zM347 75q54 0 104 19t90 55t68 87.5t39 115.5q11 65 1 116t-37.5 87t-70 55t-96.5 19t-103.5 -19t-89.5 -54t-68 -86t-39 -114q-11 -65 -1 -117t37 -88.5t69.5 -56t96.5 -19.5z" />
    <glyph glyph-name="oe" unicode="&#x153;" horiz-adv-x="1083" 
d="M824 556q62 0 107.5 -20t73 -54.5t37 -80t0.5 -96.5q-3 -17 -6 -27.5t-8 -22.5h-437q-8 -50 1 -85.5t29.5 -58.5t50 -33.5t62.5 -10.5q66 0 116.5 33t70.5 90h96q-15 -43 -43 -79t-66 -62t-84.5 -41t-99.5 -15q-79 0 -132 37.5t-68 106.5q-41 -69 -108.5 -106.5
t-146.5 -37.5q-59 0 -106 19t-78 55.5t-43 88.5t0 118t42 118.5t73.5 88.5t97.5 55.5t113 19.5q79 0 133 -37.5t71 -106.5q40 69 106 106.5t146 37.5zM949 299q11 48 3.5 82.5t-28 57t-50.5 33t-63 10.5q-35 0 -69 -11t-62.5 -33.5t-50 -57t-31.5 -81.5h351zM501 274
q9 53 0.5 91t-29.5 62.5t-52 36.5t-66 12t-70 -12t-65 -36.5t-52.5 -62.5t-31.5 -91q-9 -52 -0.5 -90t30 -62.5t52.5 -36.5t66 -12t70 12t65 36.5t52 62.5t31 90z" />
    <glyph glyph-name="Racute" unicode="&#x154;" horiz-adv-x="583" 
d="M312 757l-12 34l166 100l19 -49zM367 705q62 0 104.5 -16t67 -44t32 -66.5t-0.5 -83.5q-14 -85 -71 -138t-152 -66l141 -291h-103l-134 288h-98l-51 -288h-91l124 705h232zM477 490q11 62 -18 99t-113 37h-133l-49 -272h134q84 0 126 37.5t53 98.5z" />
    <glyph glyph-name="racute" unicode="&#x155;" horiz-adv-x="384" 
d="M185 601l-12 34l166 100l19 -49zM192 438q36 56 94 88t130 32l-17 -99h-28q-33 0 -65.5 -8t-60.5 -27t-48.5 -50.5t-29.5 -78.5l-52 -295h-92l97 549h92z" />
    <glyph glyph-name="Rcommaaccent" unicode="&#x156;" horiz-adv-x="594" 
d="M351 705q62 0 104.5 -16t67 -44t32 -66.5t-0.5 -83.5q-14 -85 -71 -138t-152 -66l141 -291h-103l-134 288h-98l-51 -288h-91l124 705h232zM461 490q11 62 -18 99t-113 37h-133l-49 -272h134q84 0 126 37.5t53 98.5zM287 -50q2 -17 1.5 -35t-3.5 -33q-11 -60 -42 -89
t-79 -29l7 39q47 0 58 61l1 9h-45l13 77h89z" />
    <glyph glyph-name="rcommaaccent" unicode="&#x157;" horiz-adv-x="383" 
d="M196 438q36 56 94 88t130 32l-17 -99h-28q-33 0 -65.5 -8t-60.5 -27t-48.5 -50.5t-29.5 -78.5l-52 -295h-92l97 549h92zM123 -50q2 -17 1.5 -35t-3.5 -33q-11 -60 -42 -89t-79 -29l7 39q47 0 58 61l1 9h-45l13 77h89z" />
    <glyph glyph-name="Rcaron" unicode="&#x158;" horiz-adv-x="583" 
d="M386 765l-124 83l11 64l125 -84l152 84l-11 -64zM367 705q62 0 104.5 -16t67 -44t32 -66.5t-0.5 -83.5q-14 -85 -71 -138t-152 -66l141 -291h-103l-134 288h-98l-51 -288h-91l124 705h232zM477 490q11 62 -18 99t-113 37h-133l-49 -272h134q84 0 126 37.5t53 98.5z" />
    <glyph glyph-name="rcaron" unicode="&#x159;" horiz-adv-x="384" 
d="M434 755l-11 -64l-153 -83l-124 83l11 64l125 -84zM192 438q36 56 94 88t130 32l-17 -99h-28q-33 0 -65.5 -8t-60.5 -27t-48.5 -50.5t-29.5 -78.5l-52 -295h-92l97 549h92z" />
    <glyph glyph-name="Sacute" unicode="&#x15a;" horiz-adv-x="566" 
d="M477 842l-173 -85l-12 34l166 100zM488 166q-5 -32 -22.5 -63t-47.5 -55.5t-71.5 -39.5t-95.5 -15q-57 0 -100 15.5t-71.5 42.5t-43 63t-14.5 76h97q-1 -21 5.5 -43t22.5 -40t42 -29.5t64 -11.5q60 0 95 31.5t43 76.5q9 54 -14 84t-61.5 49.5t-85 34.5t-84 39.5t-58.5 65
t-8 109.5q6 35 25.5 64t50 50t70.5 32.5t88 11.5q57 0 98 -15t68 -39.5t40.5 -57t14.5 -67.5h-98q0 18 -6.5 37t-21.5 34t-39 25t-59 10q-51 0 -88 -24t-45 -72q-9 -51 14 -79.5t61.5 -46.5t85 -33t84 -40t58 -66.5t7.5 -113.5z" />
    <glyph glyph-name="sacute" unicode="&#x15b;" horiz-adv-x="504" 
d="M418 686l-173 -85l-12 34l166 100zM266 556q106 0 158.5 -49.5t53.5 -129.5h-90q2 47 -29.5 79.5t-100.5 32.5q-45 0 -74.5 -19.5t-35.5 -53.5q-7 -38 15.5 -58.5t58.5 -33.5t79 -24t78 -31t54.5 -54t8.5 -94q-11 -56 -61 -92t-136 -36q-103 0 -164 47t-60 131h90
q-4 -48 32 -80t111 -32q45 0 71.5 20t32.5 51q7 42 -14.5 64.5t-57.5 36t-78.5 24t-77.5 29t-54.5 51t-8.5 89.5q10 58 61 95t138 37z" />
    <glyph glyph-name="Scedilla" unicode="&#x15e;" horiz-adv-x="567" 
d="M178 545q-9 -51 14 -79.5t61.5 -46.5t85 -33t84 -40t58 -66.5t7.5 -113.5q-5 -31 -21 -61t-43.5 -54t-66 -39.5t-88.5 -18.5l-11 -60q26 1 48.5 -4.5t38 -17.5t22.5 -31.5t2 -46.5q-8 -49 -47.5 -71t-90.5 -22h-103l9 53h92q37 0 54 11.5t21 30.5q4 21 -9 36t-49 15h-55
l20 109q-47 6 -82.5 23.5t-59.5 43.5t-35.5 59t-11.5 69h97q-1 -21 5.5 -43t22.5 -40t42 -29.5t64 -11.5q60 0 95 31.5t43 76.5q9 54 -14 84t-61.5 49.5t-85 34.5t-84 39.5t-58.5 65t-8 109.5q6 35 25.5 64t50 50t70.5 32.5t88 11.5q57 0 98 -15t68 -39.5t40.5 -57
t14.5 -67.5h-98q0 18 -6.5 37t-21.5 34t-39 25t-59 10q-51 0 -88 -24t-45 -72z" />
    <glyph glyph-name="scedilla" unicode="&#x15f;" horiz-adv-x="520" 
d="M148 416q-7 -38 15.5 -58.5t58.5 -33.5t79 -24t78 -31t54.5 -54t8.5 -94q-10 -51 -53 -86t-117 -41l-11 -61q26 1 48.5 -4.5t38 -17.5t22.5 -31.5t2 -46.5q-8 -49 -47.5 -71t-90.5 -22h-103l9 53h92q37 0 54 11.5t21 30.5q4 21 -9 36t-49 15h-55l20 108q-90 8 -142 53.5
t-51 123.5h90q-4 -48 32 -80t111 -32q45 0 71.5 20t32.5 51q7 42 -14.5 64.5t-57.5 36t-78.5 24t-77.5 29t-54.5 51t-8.5 89.5q10 58 61 95t138 37q106 0 158.5 -49.5t53.5 -129.5h-90q2 47 -29.5 79.5t-100.5 32.5q-45 0 -74.5 -19.5t-35.5 -53.5z" />
    <glyph glyph-name="Scaron" unicode="&#x160;" horiz-adv-x="567" 
d="M512 848l-153 -83l-124 83l11 64l125 -84l152 84zM488 166q-5 -32 -22.5 -63t-47.5 -55.5t-71.5 -39.5t-95.5 -15q-57 0 -100 15.5t-71.5 42.5t-43 63t-14.5 76h97q-1 -21 5.5 -43t22.5 -40t42 -29.5t64 -11.5q60 0 95 31.5t43 76.5q9 54 -14 84t-61.5 49.5t-85 34.5
t-84 39.5t-58.5 65t-8 109.5q6 35 25.5 64t50 50t70.5 32.5t88 11.5q57 0 98 -15t68 -39.5t40.5 -57t14.5 -67.5h-98q0 18 -6.5 37t-21.5 34t-39 25t-59 10q-51 0 -88 -24t-45 -72q-9 -51 14 -79.5t61.5 -46.5t85 -33t84 -40t58 -66.5t7.5 -113.5z" />
    <glyph glyph-name="scaron" unicode="&#x161;" horiz-adv-x="520" 
d="M463 691l-153 -83l-124 83l11 64l125 -84l152 84zM266 556q106 0 158.5 -49.5t53.5 -129.5h-90q2 47 -29.5 79.5t-100.5 32.5q-45 0 -74.5 -19.5t-35.5 -53.5q-7 -38 15.5 -58.5t58.5 -33.5t79 -24t78 -31t54.5 -54t8.5 -94q-11 -56 -61 -92t-136 -36q-103 0 -164 47
t-60 131h90q-4 -48 32 -80t111 -32q45 0 71.5 20t32.5 51q7 42 -14.5 64.5t-57.5 36t-78.5 24t-77.5 29t-54.5 51t-8.5 89.5q10 58 61 95t138 37z" />
    <glyph glyph-name="uni0162" unicode="&#x162;" horiz-adv-x="522" 
d="M567 705l-13 -74h-199l-110 -627q51 -8 70 -31t13 -58q-8 -50 -47.5 -74.5t-91.5 -24.5h-101l10 53h92q37 0 53 13t21 35q3 19 -9 32t-49 13h-61l118 669h-198l13 74h489z" />
    <glyph glyph-name="uni0163" unicode="&#x163;" horiz-adv-x="373" 
d="M165 172q-10 -54 6.5 -73t64.5 -19h55l-14 -80h-68h-5l-12 -67q27 1 49.5 -4t37.5 -16.5t22 -30t2 -43.5q-9 -50 -48 -74.5t-91 -24.5h-102l9 53h92q37 0 54 13.5t21 34.5q4 19 -8.5 32t-49.5 13h-54l21 121q-48 13 -68 52t-6 115l52 296h-82l15 79h81l24 137h92
l-24 -137h142l-14 -79h-142z" />
    <glyph glyph-name="Tcaron" unicode="&#x164;" horiz-adv-x="522" 
d="M489 848l-153 -83l-124 83l11 64l125 -84l152 84zM567 705l-13 -74h-199l-111 -631h-91l111 631h-199l13 74h489z" />
    <glyph glyph-name="tcaron" unicode="&#x165;" horiz-adv-x="369" 
d="M415 793q2 -26 0.5 -47t-4.5 -41q-10 -54 -40.5 -80t-80.5 -26l8 41q26 0 39 11t17 31l4 25h-50l15 86h92zM225 549h142l-14 -79h-142l-53 -298q-9 -54 7.5 -73t64.5 -19h55l-14 -80h-68q-40 0 -69.5 9t-47 29.5t-23 53.5t3.5 82l52 296h-81l14 79h81l24 137h92z" />
    <glyph glyph-name="Utilde" unicode="&#x168;" horiz-adv-x="661" 
d="M378 857q19 0 32 -7t23.5 -16t21.5 -16t27 -7q15 0 28.5 11t20.5 33h44q-14 -46 -41.5 -69.5t-62.5 -23.5q-20 0 -33 7t-24 16t-21.5 16t-25.5 7q-33 0 -48 -45h-43q31 94 102 94zM222 705l-74 -423q-19 -107 19.5 -155t116.5 -48q77 0 132 48t74 155l74 423h92l-75 -423
q-13 -75 -42.5 -129.5t-70.5 -90t-92.5 -52.5t-108.5 -17t-102 17t-73.5 52.5t-38.5 90t3 129.5l75 423h91z" />
    <glyph glyph-name="utilde" unicode="&#x169;" horiz-adv-x="630" 
d="M324 652q-33 0 -48 -45h-43q31 94 102 94q19 0 32 -7t23.5 -16t21.5 -16t27 -7q15 0 28.5 11t20.5 33h44q-14 -46 -41.5 -69.5t-62.5 -23.5q-20 0 -33 7t-24 16t-21.5 16t-25.5 7zM607 549l-97 -549h-91l22 128q-34 -69 -94 -103t-128 -34q-46 0 -82.5 15t-59.5 44.5
t-31.5 74t1.5 104.5l57 320h91l-55 -311q-15 -85 20 -128t105 -43q72 0 126 45.5t72 139.5l52 297h92z" />
    <glyph glyph-name="Umacron" unicode="&#x16a;" horiz-adv-x="661" 
d="M604 867l-11 -64h-352l11 64h352zM222 705l-74 -423q-19 -107 19.5 -155t116.5 -48q77 0 132 48t74 155l74 423h92l-75 -423q-13 -75 -42.5 -129.5t-70.5 -90t-92.5 -52.5t-108.5 -17t-102 17t-73.5 52.5t-38.5 90t3 129.5l75 423h91z" />
    <glyph glyph-name="umacron" unicode="&#x16b;" horiz-adv-x="634" 
d="M548 646h-352l11 64h352zM607 549l-97 -549h-91l22 128q-34 -69 -94 -103t-128 -34q-46 0 -82.5 15t-59.5 44.5t-31.5 74t1.5 104.5l57 320h91l-55 -311q-15 -85 20 -128t105 -43q72 0 126 45.5t72 139.5l52 297h92z" />
    <glyph glyph-name="Ubreve" unicode="&#x16c;" horiz-adv-x="661" 
d="M407 766q-64 0 -91 36.5t-18 90.5l2 8h43q-7 -37 11 -57t63 -20t70.5 20t31.5 57h43l-1 -8q-10 -54 -49.5 -90.5t-104.5 -36.5zM222 705l-74 -423q-19 -107 19.5 -155t116.5 -48q77 0 132 48t74 155l74 423h92l-75 -423q-13 -75 -42.5 -129.5t-70.5 -90t-92.5 -52.5
t-108.5 -17t-102 17t-73.5 52.5t-38.5 90t3 129.5l75 423h91z" />
    <glyph glyph-name="ubreve" unicode="&#x16d;" horiz-adv-x="630" 
d="M364 610q-64 0 -91 36.5t-18 90.5l2 8h43q-7 -37 11 -57t63 -20t70.5 20t31.5 57h43l-1 -8q-10 -54 -49.5 -90.5t-104.5 -36.5zM607 549l-97 -549h-91l22 128q-34 -69 -94 -103t-128 -34q-46 0 -82.5 15t-59.5 44.5t-31.5 74t1.5 104.5l57 320h91l-55 -311
q-15 -85 20 -128t105 -43q72 0 126 45.5t72 139.5l52 297h92z" />
    <glyph glyph-name="Uring" unicode="&#x16e;" horiz-adv-x="661" 
d="M431 974q43 0 69 -28t17 -77q-8 -49 -44 -77t-79 -28q-44 0 -69.5 28t-17.5 77q9 49 44.5 77t79.5 28zM423 932q-26 0 -46.5 -17t-25.5 -46t9.5 -46t40.5 -17t47 17t26 46t-10 46t-41 17zM222 705l-74 -423q-19 -107 19.5 -155t116.5 -48q77 0 132 48t74 155l74 423h92
l-75 -423q-13 -75 -42.5 -129.5t-70.5 -90t-92.5 -52.5t-108.5 -17t-102 17t-73.5 52.5t-38.5 90t3 129.5l75 423h91z" />
    <glyph glyph-name="uring" unicode="&#x16f;" horiz-adv-x="634" 
d="M350 607q-44 0 -69.5 28t-17.5 77q9 49 44.5 77t79.5 28q43 0 69 -28t17 -77q-8 -49 -44 -77t-79 -28zM307 712q-5 -29 9.5 -46t40.5 -17t47 17t26 46t-10 46t-41 17t-46.5 -17t-25.5 -46zM607 549l-97 -549h-91l22 128q-34 -69 -94 -103t-128 -34q-46 0 -82.5 15
t-59.5 44.5t-31.5 74t1.5 104.5l57 320h91l-55 -311q-15 -85 20 -128t105 -43q72 0 126 45.5t72 139.5l52 297h92z" />
    <glyph glyph-name="Uhungarumlaut" unicode="&#x170;" horiz-adv-x="661" 
d="M332 758h-60l94 154h75zM482 758h-60l107 154h74zM222 705l-74 -423q-19 -107 19.5 -155t116.5 -48q77 0 132 48t74 155l74 423h92l-75 -423q-13 -75 -42.5 -129.5t-70.5 -90t-92.5 -52.5t-108.5 -17t-102 17t-73.5 52.5t-38.5 90t3 129.5l75 423h91z" />
    <glyph glyph-name="uhungarumlaut" unicode="&#x171;" horiz-adv-x="634" 
d="M287 601h-60l94 154h75zM377 601l107 154h74l-121 -154h-60zM607 549l-97 -549h-91l22 128q-34 -69 -94 -103t-128 -34q-46 0 -82.5 15t-59.5 44.5t-31.5 74t1.5 104.5l57 320h91l-55 -311q-15 -85 20 -128t105 -43q72 0 126 45.5t72 139.5l52 297h92z" />
    <glyph glyph-name="Uogonek" unicode="&#x172;" horiz-adv-x="661" 
d="M226 705l-75 -423q-19 -107 19.5 -155t116.5 -48q35 0 68 10t60 33.5t47.5 62.5t30.5 97l75 423h91l-75 -423q-12 -68 -37 -118.5t-60.5 -85t-78 -54t-89.5 -25.5q-32 -4 -50.5 -19t-22.5 -38q-5 -25 11 -39.5t50 -14.5h91l-9 -52h-107q-53 0 -81.5 28t-20.5 78
q3 18 15 34t29 21q-43 8 -78.5 29t-58.5 56t-31 85t3 115l75 423h92z" />
    <glyph glyph-name="uogonek" unicode="&#x173;" horiz-adv-x="634" 
d="M365 -85q-5 -28 11.5 -43.5t49.5 -15.5h95l-9 -53h-103q-56 0 -87 28t-22 82q8 45 41 70t80 29l20 116q-34 -69 -94 -103t-128 -34q-46 0 -82.5 15t-59.5 44.5t-31.5 74t1.5 104.5l57 320h91l-55 -311q-15 -85 20 -128t105 -43q72 0 126 45.5t72 139.5l52 297h92
l-97 -549h-4l-7 -36h-54q-32 0 -53.5 -13t-26.5 -36z" />
    <glyph glyph-name="Wcircumflex" unicode="&#x174;" horiz-adv-x="974" 
d="M471 755l-13 40l142 77l115 -77l-24 -40l-99 66zM1002 705l-303 -705h-111l-62 578l-265 -578h-110l-56 705h101l30 -597l272 597h102l61 -599l241 599h100z" />
    <glyph glyph-name="wcircumflex" unicode="&#x175;" horiz-adv-x="831" 
d="M373 599l-13 40l142 77l115 -77l-24 -40l-99 66zM868 549l-254 -549h-99l-72 448l-231 -448h-98l-60 549h92l37 -460l232 460h95l72 -462l199 462h87z" />
    <glyph glyph-name="Ycircumflex" unicode="&#x176;" horiz-adv-x="593" 
d="M281 755l-13 40l142 77l115 -77l-24 -40l-99 66zM636 705l-308 -438l-47 -267h-92l47 267l-155 438h106l113 -340l232 340h104z" />
    <glyph glyph-name="ycircumflex" unicode="&#x177;" horiz-adv-x="561" 
d="M359 665l-121 -66l-13 40l142 77l115 -77l-24 -40zM149 549l102 -432l241 432h101l-469 -809h-103l162 269l-136 540h102z" />
    <glyph glyph-name="Ydieresis" unicode="&#x178;" horiz-adv-x="593" 
d="M295 782q-21 0 -33 14.5t-8 34.5q4 21 20.5 35.5t37.5 14.5q22 0 34 -14.5t8 -35.5q-4 -20 -21 -34.5t-38 -14.5zM461 782q-21 0 -33 14.5t-8 34.5q5 21 21.5 35.5t37.5 14.5t33 -14.5t8 -35.5q-4 -20 -21 -34.5t-38 -14.5zM636 705l-308 -438l-47 -267h-92l47 267
l-155 438h106l113 -340l232 340h104z" />
    <glyph glyph-name="Zacute" unicode="&#x179;" horiz-adv-x="538" 
d="M462 842l-173 -85l-12 34l166 100zM93 75h356l-14 -75h-457l13 72l446 558h-340l14 75h442l-13 -72z" />
    <glyph glyph-name="zacute" unicode="&#x17a;" horiz-adv-x="446" 
d="M389 686l-173 -85l-12 34l166 100zM92 77h293l-14 -77h-393l13 73l350 399h-272l13 77h376l-13 -74z" />
    <glyph glyph-name="Zdotaccent" unicode="&#x17b;" horiz-adv-x="537" 
d="M308 831q4 21 21 35.5t37 14.5q21 0 33.5 -14.5t8.5 -35.5q-4 -20 -21 -34.5t-38 -14.5t-33 14.5t-8 34.5zM93 75h356l-14 -75h-457l13 72l446 558h-340l14 75h442l-13 -72z" />
    <glyph glyph-name="zdotaccent" unicode="&#x17c;" horiz-adv-x="446" 
d="M232 674q4 21 21 35.5t37 14.5q21 0 33.5 -14.5t8.5 -35.5q-4 -20 -21 -34.5t-38 -14.5t-33 14.5t-8 34.5zM92 77h293l-14 -77h-393l13 73l350 399h-272l13 77h376l-13 -74z" />
    <glyph glyph-name="Zcaron" unicode="&#x17d;" horiz-adv-x="538" 
d="M496 848l-153 -83l-124 83l11 64l125 -84l152 84zM93 75h356l-14 -75h-457l13 72l446 558h-340l14 75h442l-13 -72z" />
    <glyph glyph-name="zcaron" unicode="&#x17e;" horiz-adv-x="447" 
d="M427 691l-153 -83l-124 83l11 64l125 -84l152 84zM92 77h293l-14 -77h-393l13 73l350 399h-272l13 77h376l-13 -74z" />
    <glyph glyph-name="florin" unicode="&#x192;" horiz-adv-x="334" 
d="M418 688q-57 0 -92 -21.5t-49 -71.5l-13 -46h122l-21 -78h-123l-149 -528q-22 -75 -68 -108t-120 -33h-31l21 79h31q29 0 46.5 12.5t28.5 49.5l150 528h-71l21 78h72l13 46q26 91 89 131.5t164 40.5z" />
    <glyph glyph-name="Ohorn" unicode="&#x1a0;" horiz-adv-x="785" 
d="M619 668q73 -46 104.5 -131.5t11.5 -197.5q-13 -76 -48.5 -140t-87 -110t-118 -71.5t-141.5 -25.5q-80 0 -140.5 27.5t-99 77.5t-52 119t1.5 151q14 77 49 140.5t87 109.5t118.5 71.5t141.5 25.5q45 0 82 -9q45 2 76.5 27.5t42.5 85.5h66q-10 -55 -35 -92t-59 -58z
M645 350q11 65 1 116.5t-38 87.5t-71.5 55.5t-98.5 19.5q-54 0 -103 -19t-88.5 -54t-67.5 -85.5t-39 -113.5q-11 -65 -1 -117t38 -88t72 -55.5t99 -19.5q53 0 102 19t89 54.5t67.5 86t38.5 113.5z" />
    <glyph glyph-name="ohorn" unicode="&#x1a1;" horiz-adv-x="644" 
d="M523 510q48 -36 69 -97.5t6 -145.5q-12 -64 -42 -115t-72.5 -86.5t-96 -54t-111.5 -18.5q-60 0 -107.5 19.5t-79 57t-43.5 91t0 120.5q12 65 42 116t73 86t97 54t112 19q37 0 66 -7q45 2 76.5 27t42.5 86h66q-10 -57 -36.5 -94t-61.5 -58zM505 274q9 53 0.5 91
t-29.5 62.5t-52 36.5t-66 12t-70 -12t-65 -36.5t-52.5 -62.5t-31.5 -91q-9 -52 -0.5 -90t30 -62.5t52.5 -36.5t66 -12t70 12t65 36.5t52 62.5t31 90z" />
    <glyph glyph-name="Uhorn" unicode="&#x1af;" horiz-adv-x="661" 
d="M788 818q-14 -74 -53 -115.5t-89 -56.5l-65 -364q-13 -75 -42.5 -129.5t-70.5 -90t-92.5 -52.5t-108.5 -17t-102 17t-73.5 52.5t-38.5 90t3 129.5l75 423h91l-74 -423q-19 -107 19.5 -155t116.5 -48q77 0 132 48t74 155l74 423h31q48 0 82 25t45 88h66z" />
    <glyph glyph-name="uhorn" unicode="&#x1b0;" horiz-adv-x="630" 
d="M740 662q-14 -74 -53.5 -115.5t-89.5 -56.5l-87 -490h-91l22 128q-34 -69 -94 -103t-128 -34q-46 0 -82.5 15t-59.5 44.5t-31.5 74t1.5 104.5l57 320h91l-55 -311q-15 -85 20 -128t105 -43q72 0 126 45.5t72 139.5l52 297h32q48 0 82 25t45 88h66z" />
    <glyph glyph-name="AEacute" unicode="&#x1fc;" horiz-adv-x="890" 
d="M588 758l-12 34l166 100l19 -49zM600 631l-42 -239h264l-12 -71h-264l-44 -247h295l-13 -74h-386l28 160h-262l-119 -160h-101l524 705h440l-13 -74h-295zM507 621l-291 -391h222z" />
    <glyph glyph-name="aeacute" unicode="&#x1fd;" horiz-adv-x="1106" 
d="M581 601l-12 34l166 100l19 -49zM866 556q58 0 100 -20t67 -54.5t33.5 -80t-0.5 -96.5q-3 -17 -5.5 -27.5t-7.5 -22.5h-452q-7 -50 2.5 -85.5t30.5 -58.5t51.5 -34t65.5 -11q69 0 121 33t73 91h96q-15 -43 -41.5 -79t-61.5 -62t-78.5 -41t-93.5 -15q-76 0 -128 37
t-60 110l-25 -140h-91l25 140q-32 -65 -94 -106t-144 -41q-55 0 -98 19.5t-70 55.5t-37 88t2 118t40 118.5t68 88.5t89.5 55.5t104.5 19.5q82 0 129.5 -41t57.5 -106l24 140h91l-25 -141q34 73 97 110.5t144 37.5zM973 299q11 48 2.5 82.5t-29.5 57t-52.5 33t-66.5 10.5
q-37 0 -72 -10.5t-64 -32.5t-50 -56.5t-32 -83.5h364zM511 274q8 46 0.5 83t-27.5 63.5t-52 40.5t-72 14q-85 0 -144.5 -53t-76.5 -148t24 -148t126 -53q40 0 76.5 14.5t66 40.5t50.5 63t29 83z" />
    <glyph glyph-name="Scommaaccent" unicode="&#x218;" horiz-adv-x="568" 
d="M485 166q-5 -32 -22.5 -63t-47.5 -55.5t-71.5 -39.5t-95.5 -15q-57 0 -100 15.5t-71.5 42.5t-43 63t-14.5 76h97q-1 -21 5.5 -43t22.5 -40t42 -29.5t64 -11.5q60 0 95 31.5t43 76.5q9 54 -14 84t-61.5 49.5t-85 34.5t-84 39.5t-58.5 65t-8 109.5q6 35 25.5 64t50 50
t70.5 32.5t88 11.5q57 0 98 -15t68 -39.5t40.5 -57t14.5 -67.5h-98q0 18 -6.5 37t-21.5 34t-39 25t-59 10q-51 0 -88 -24t-45 -72q-9 -51 14 -79.5t61.5 -46.5t85 -33t84 -40t58 -66.5t7.5 -113.5zM302 -50q2 -17 2 -35t-3 -33q-11 -60 -42.5 -89t-79.5 -29l7 39q47 0 58 61
l2 9h-46l14 77h88z" />
    <glyph glyph-name="scommaaccent" unicode="&#x219;" horiz-adv-x="520" 
d="M269 556q106 0 158.5 -49.5t53.5 -129.5h-90q2 47 -29.5 79.5t-100.5 32.5q-45 0 -74.5 -19.5t-35.5 -53.5q-7 -38 15.5 -58.5t58.5 -33.5t79 -24t78 -31t54.5 -54t8.5 -94q-11 -56 -61 -92t-136 -36q-103 0 -164 47t-60 131h90q-4 -48 32 -80t111 -32q45 0 71.5 20
t32.5 51q7 42 -14.5 64.5t-57.5 36t-78.5 24t-77.5 29t-54 51t-9 89.5q10 58 61 95t138 37zM266 -50q2 -17 1.5 -35t-3.5 -33q-11 -60 -42 -89t-79 -29l7 39q48 0 59 61l1 9h-46l14 77h88z" />
    <glyph glyph-name="uni021A" unicode="&#x21a;" horiz-adv-x="522" 
d="M562 705l-13 -74h-199l-111 -631h-91l111 631h-199l13 74h489zM229 -50q2 -17 1.5 -35t-2.5 -33q-11 -60 -42.5 -89t-79.5 -29l8 39q46 0 57 61l2 9h-46l14 77h88z" />
    <glyph glyph-name="uni021B" unicode="&#x21b;" horiz-adv-x="373" 
d="M171 172q-9 -54 7.5 -73t64.5 -19h55l-14 -80h-68q-40 0 -69.5 9t-47 29.5t-23 53.5t3.5 82l52 296h-81l14 79h81l24 137h92l-24 -137h142l-14 -79h-142zM220 -50q2 -17 1.5 -35t-2.5 -33q-11 -60 -42 -89t-79 -29l7 39q47 0 58 61l1 9h-45l13 77h88z" />
    <glyph glyph-name="circumflex" unicode="&#x2c6;" horiz-adv-x="336" 
d="M231 691l-121 -66l-13 40l142 77l115 -77l-24 -40z" />
    <glyph glyph-name="caron" unicode="&#x2c7;" horiz-adv-x="336" 
d="M368 691l-153 -83l-124 83l11 64l125 -84l152 84z" />
    <glyph glyph-name="breve" unicode="&#x2d8;" horiz-adv-x="344" 
d="M221 610q-64 0 -91 36.5t-18 90.5l2 8h43q-7 -37 11 -57t63 -20t70.5 20t31.5 57h43l-1 -8q-10 -54 -49.5 -90.5t-104.5 -36.5z" />
    <glyph glyph-name="dotaccent" unicode="&#x2d9;" horiz-adv-x="167" 
d="M94 674q4 21 21 35.5t37 14.5q21 0 33.5 -14.5t8.5 -35.5q-4 -20 -21 -34.5t-38 -14.5t-33 14.5t-8 34.5z" />
    <glyph glyph-name="ring" unicode="&#x2da;" horiz-adv-x="268" 
d="M213 817q43 0 69 -28t17 -77q-8 -49 -44 -77t-79 -28q-44 0 -69.5 28t-17.5 77q9 49 44.5 77t79.5 28zM205 775q-26 0 -46.5 -17t-25.5 -46t9.5 -46t40.5 -17t47 17t26 46t-10 46t-41 17z" />
    <glyph glyph-name="ogonek" unicode="&#x2db;" horiz-adv-x="283" 
d="M234 -14l-9 -49h-54q-32 0 -53.5 -13t-26.5 -36q-5 -28 11.5 -43.5t49.5 -15.5h95l-9 -53h-103q-56 0 -87 28t-22 82q8 49 46.5 74.5t92.5 25.5h69z" />
    <glyph glyph-name="tilde" unicode="&#x2dc;" horiz-adv-x="363" 
d="M194 701q19 0 32 -7t23.5 -16t21.5 -16t27 -7q15 0 28.5 11t20.5 33h44q-14 -46 -41.5 -69.5t-62.5 -23.5q-20 0 -33 7t-24 16t-21.5 16t-25.5 7q-33 0 -48 -45h-43q31 94 102 94z" />
    <glyph glyph-name="hungarumlaut" unicode="&#x2dd;" horiz-adv-x="363" 
d="M136 601h-60l94 154h75zM286 601h-60l107 154h74z" />
    <glyph glyph-name="gravecomb" unicode="&#x300;" horiz-adv-x="0" 
d="M8 634l-20 -38l-143 89l26 51z" />
    <glyph glyph-name="acutecomb" unicode="&#x301;" horiz-adv-x="0" 
d="M6 686l-173 -85l-12 34l166 100z" />
    <glyph glyph-name="uni0302" unicode="&#x302;" horiz-adv-x="0" 
d="M-105 691l-121 -66l-13 40l142 77l115 -77l-24 -40z" />
    <glyph glyph-name="tildecomb" unicode="&#x303;" horiz-adv-x="0" 
d="M-169 701q19 0 32 -7t23.5 -16t21.5 -16t27 -7q15 0 28.5 11t20.5 33h44q-14 -46 -41.5 -69.5t-62.5 -23.5q-20 0 -33 7t-24 16t-21.5 16t-25.5 7q-33 0 -48 -45h-43q31 94 102 94z" />
    <glyph glyph-name="uni0306" unicode="&#x306;" horiz-adv-x="0" 
d="M-123 610q-64 0 -91 36.5t-18 90.5l2 8h43q-7 -37 11 -57t63 -20t70.5 20t31.5 57h43l-1 -8q-10 -54 -49.5 -90.5t-104.5 -36.5z" />
    <glyph glyph-name="hookabovecomb" unicode="&#x309;" horiz-adv-x="0" 
d="M-252 748q44 0 60.5 -22t9.5 -59q-5 -30 -29 -52t-61 -53l-25 25q29 24 47 42.5t22 37.5q4 22 -4.5 30t-28.5 8q-22 0 -31.5 -11.5t-17.5 -34.5l-44 4q4 14 10.5 29t18 27.5t29 20.5t44.5 8z" />
    <glyph glyph-name="uni031B" unicode="&#x31b;" horiz-adv-x="0" 
d="M-416 549q48 0 82 25t45 88h66q-9 -48 -29.5 -82.5t-48.5 -56t-61 -32t-66 -10.5z" />
    <glyph glyph-name="dotbelowcomb" unicode="&#x323;" horiz-adv-x="0" 
d="M-207 -125q4 20 20 34.5t36 14.5t32.5 -14.5t8.5 -34.5t-20.5 -33.5t-36.5 -13.5t-32 13.5t-8 33.5z" />
    <glyph glyph-name="pi" unicode="&#x3c0;" horiz-adv-x="716" 
d="M721 549l-13 -71h-79l-84 -478h-92l85 478h-286l-84 -478h-92l84 478h-79l13 71h627z" />
    <glyph glyph-name="Wgrave" unicode="&#x1e80;" horiz-adv-x="974" 
d="M666 752l-143 89l26 51l137 -102zM1002 705l-303 -705h-111l-62 578l-265 -578h-110l-56 705h101l30 -597l272 597h102l61 -599l241 599h100z" />
    <glyph glyph-name="wgrave" unicode="&#x1e81;" horiz-adv-x="831" 
d="M568 596l-143 89l26 51l137 -102zM868 549l-254 -549h-99l-72 448l-231 -448h-98l-60 549h92l37 -460l232 460h95l72 -462l199 462h87z" />
    <glyph glyph-name="Wacute" unicode="&#x1e82;" horiz-adv-x="974" 
d="M507 757l-12 34l166 100l19 -49zM1002 705l-303 -705h-111l-62 578l-265 -578h-110l-56 705h101l30 -597l272 597h102l61 -599l241 599h100z" />
    <glyph glyph-name="wacute" unicode="&#x1e83;" horiz-adv-x="831" 
d="M409 601l-12 34l166 100l19 -49zM868 549l-254 -549h-99l-72 448l-231 -448h-98l-60 549h92l37 -460l232 460h95l72 -462l199 462h87z" />
    <glyph glyph-name="Wdieresis" unicode="&#x1e84;" horiz-adv-x="974" 
d="M485 782q-21 0 -33 14.5t-8 34.5q4 21 20.5 35.5t37.5 14.5q22 0 34 -14.5t8 -35.5q-4 -20 -21 -34.5t-38 -14.5zM651 782q-21 0 -33 14.5t-8 34.5q5 21 21.5 35.5t37.5 14.5t33 -14.5t8 -35.5q-4 -20 -21 -34.5t-38 -14.5zM1002 705l-303 -705h-111l-62 578l-265 -578
h-110l-56 705h101l30 -597l272 597h102l61 -599l241 599h100z" />
    <glyph glyph-name="wdieresis" unicode="&#x1e85;" horiz-adv-x="839" 
d="M393 625q-21 0 -33 14.5t-8 34.5q4 21 20.5 35.5t37.5 14.5q22 0 34 -14.5t8 -35.5q-4 -20 -21 -34.5t-38 -14.5zM559 625q-21 0 -33 14.5t-8 34.5q5 21 21.5 35.5t37.5 14.5t33 -14.5t8 -35.5q-4 -20 -21 -34.5t-38 -14.5zM868 549l-254 -549h-99l-72 448l-231 -448h-98
l-60 549h92l37 -460l232 460h95l72 -462l199 462h87z" />
    <glyph glyph-name="uni1EA0" unicode="&#x1ea0;" 
d="M484 0l-30 163h-310l-88 -163h-97l381 692h104l138 -692h-98zM441 234l-66 357l-193 -357h259zM269 -76q20 0 32.5 -14.5t8.5 -34.5t-20.5 -33.5t-36.5 -13.5t-32 13.5t-8 33.5t20 34.5t36 14.5z" />
    <glyph glyph-name="uni1EA1" unicode="&#x1ea1;" horiz-adv-x="675" 
d="M345 556q84 0 132.5 -41t58.5 -106l24 140h91l-97 -549h-90l24 140q-32 -65 -94 -106t-144 -41q-56 0 -99.5 20t-70.5 57t-36 90.5t3 120.5q11 65 39 116t67.5 86t88.5 54t103 19zM361 475q-85 0 -144.5 -53t-76.5 -148t24 -148t126 -53q40 0 76.5 14.5t66 40.5t50.5 63
t29 83t0.5 83t-27.5 63.5t-52 40.5t-72 14zM219 -125q4 20 20 34.5t36 14.5t32.5 -14.5t8.5 -34.5t-20.5 -33.5t-36.5 -13.5t-32 13.5t-8 33.5z" />
    <glyph glyph-name="uni1EA2" unicode="&#x1ea2;" 
d="M434 896q-22 0 -31.5 -11.5t-17.5 -34.5l-44 4q4 14 10.5 29t18 27.5t29 20.5t44.5 8q44 0 60.5 -22t9.5 -59q-5 -30 -29 -52t-61 -53l-25 25q29 24 47 42.5t22 37.5q4 22 -4.5 30t-28.5 8zM454 163h-310l-88 -163h-97l381 692h104l138 -692h-98zM441 234l-66 357
l-193 -357h259z" />
    <glyph glyph-name="uni1EA3" unicode="&#x1ea3;" horiz-adv-x="675" 
d="M429 783q44 0 60.5 -22t9.5 -59q-5 -30 -29 -52t-61 -53l-25 25q29 24 47 42.5t22 37.5q4 22 -4.5 30t-28.5 8q-22 0 -31.5 -11.5t-17.5 -34.5l-44 4q4 14 10.5 29t18 27.5t29 20.5t44.5 8zM345 556q84 0 132.5 -41t58.5 -106l24 140h91l-97 -549h-90l24 140
q-32 -65 -94 -106t-144 -41q-56 0 -99.5 20t-70.5 57t-36 90.5t3 120.5q11 65 39 116t67.5 86t88.5 54t103 19zM361 475q-85 0 -144.5 -53t-76.5 -148t24 -148t126 -53q40 0 76.5 14.5t66 40.5t50.5 63t29 83t0.5 83t-27.5 63.5t-52 40.5t-72 14z" />
    <glyph glyph-name="uni1EA4" unicode="&#x1ea4;" 
d="M375 882l-12 33l161 96l18 -47zM312 754l-12 39l137 74l112 -74l-24 -39l-95 64zM454 163h-310l-88 -163h-97l381 692h104l138 -692h-98zM441 234l-66 357l-193 -357h259z" />
    <glyph glyph-name="uni1EA5" unicode="&#x1ea5;" horiz-adv-x="675" 
d="M528 808l-167 -82l-12 33l161 96zM416 662l-118 -64l-12 39l137 74l112 -74l-24 -39zM345 556q84 0 132.5 -41t58.5 -106l24 140h91l-97 -549h-90l24 140q-32 -65 -94 -106t-144 -41q-56 0 -99.5 20t-70.5 57t-36 90.5t3 120.5q11 65 39 116t67.5 86t88.5 54t103 19z
M361 475q-85 0 -144.5 -53t-76.5 -148t24 -148t126 -53q40 0 76.5 14.5t66 40.5t50.5 63t29 83t0.5 83t-27.5 63.5t-52 40.5t-72 14z" />
    <glyph glyph-name="uni1EA6" unicode="&#x1ea6;" 
d="M530 860l-138 86l25 49l132 -98zM312 754l-12 39l137 74l112 -74l-24 -39l-95 64zM454 163h-310l-88 -163h-97l381 692h104l138 -692h-98zM441 234l-66 357l-193 -357h259z" />
    <glyph glyph-name="uni1EA7" unicode="&#x1ea7;" horiz-adv-x="675" 
d="M535 741l-19 -37l-138 86l25 49zM416 662l-118 -64l-12 39l137 74l112 -74l-24 -39zM345 556q84 0 132.5 -41t58.5 -106l24 140h91l-97 -549h-90l24 140q-32 -65 -94 -106t-144 -41q-56 0 -99.5 20t-70.5 57t-36 90.5t3 120.5q11 65 39 116t67.5 86t88.5 54t103 19z
M361 475q-85 0 -144.5 -53t-76.5 -148t24 -148t126 -53q40 0 76.5 14.5t66 40.5t50.5 63t29 83t0.5 83t-27.5 63.5t-52 40.5t-72 14z" />
    <glyph glyph-name="uni1EA8" unicode="&#x1ea8;" 
d="M577 1018q42 0 58 -21.5t10 -57.5q-5 -29 -28.5 -50t-59.5 -51l-24 24q29 23 46 41t21 36q4 22 -4.5 29.5t-27.5 7.5q-21 0 -30.5 -11t-16.5 -33l-43 4q4 14 10.5 28.5t17.5 26.5t28 19.5t43 7.5zM312 754l-12 39l137 74l112 -74l-24 -39l-95 64zM444 692l138 -692h-98
l-30 163h-310l-88 -163h-97l381 692h104zM441 234l-66 357l-193 -357h259z" />
    <glyph glyph-name="uni1EA9" unicode="&#x1ea9;" horiz-adv-x="675" 
d="M563 862q42 0 58 -21.5t10 -57.5q-5 -29 -28.5 -50t-59.5 -51l-24 24q29 23 46 41t21 36q4 22 -4.5 29.5t-27.5 7.5q-21 0 -30.5 -11t-16.5 -33l-43 4q4 14 10.5 28.5t17.5 26.5t28 19.5t43 7.5zM416 662l-118 -64l-12 39l137 74l112 -74l-24 -39zM345 556
q84 0 132.5 -41t58.5 -106l24 140h91l-97 -549h-90l24 140q-32 -65 -94 -106t-144 -41q-56 0 -99.5 20t-70.5 57t-36 90.5t3 120.5q11 65 39 116t67.5 86t88.5 54t103 19zM361 475q-85 0 -144.5 -53t-76.5 -148t24 -148t126 -53q40 0 76.5 14.5t66 40.5t50.5 63t29 83
t0.5 83t-27.5 63.5t-52 40.5t-72 14z" />
    <glyph glyph-name="uni1EAA" unicode="&#x1eaa;" 
d="M409 924q-31 0 -44 -41h-39q28 86 93 86q17 0 28.5 -6.5t21.5 -14.5t20 -14.5t25 -6.5q14 0 26 10t18 30h40q-13 -42 -37.5 -63t-56.5 -21q-18 0 -30.5 6.5t-22.5 14t-19.5 14t-22.5 6.5zM312 754l-12 39l137 74l112 -74l-24 -39l-95 64zM444 692l138 -692h-98l-30 163
h-310l-88 -163h-97l381 692h104zM441 234l-66 357l-193 -357h259z" />
    <glyph glyph-name="uni1EAB" unicode="&#x1eab;" horiz-adv-x="675" 
d="M405 813q17 0 28.5 -6.5t21.5 -14.5t20 -14.5t25 -6.5q14 0 26 10t18 30h40q-13 -42 -37.5 -63t-56.5 -21q-18 0 -30.5 6.5t-22.5 14t-19.5 14t-22.5 6.5q-31 0 -44 -41h-39q28 86 93 86zM416 662l-118 -64l-12 39l137 74l112 -74l-24 -39zM345 556q84 0 132.5 -41
t58.5 -106l24 140h91l-97 -549h-90l24 140q-32 -65 -94 -106t-144 -41q-56 0 -99.5 20t-70.5 57t-36 90.5t3 120.5q11 65 39 116t67.5 86t88.5 54t103 19zM361 475q-85 0 -144.5 -53t-76.5 -148t24 -148t126 -53q40 0 76.5 14.5t66 40.5t50.5 63t29 83t0.5 83t-27.5 63.5
t-52 40.5t-72 14z" />
    <glyph glyph-name="uni1EAC" unicode="&#x1eac;" 
d="M309 755l-13 40l142 77l115 -77l-24 -40l-99 66zM484 0l-30 163h-310l-88 -163h-97l381 692h104l138 -692h-98zM441 234l-66 357l-193 -357h259zM269 -76q20 0 32.5 -14.5t8.5 -34.5t-20.5 -33.5t-36.5 -13.5t-32 13.5t-8 33.5t20 34.5t36 14.5z" />
    <glyph glyph-name="uni1EAD" unicode="&#x1ead;" horiz-adv-x="675" 
d="M416 665l-121 -66l-13 40l142 77l115 -77l-24 -40zM345 556q84 0 132.5 -41t58.5 -106l24 140h91l-97 -549h-90l24 140q-32 -65 -94 -106t-144 -41q-56 0 -99.5 20t-70.5 57t-36 90.5t3 120.5q11 65 39 116t67.5 86t88.5 54t103 19zM361 475q-85 0 -144.5 -53t-76.5 -148
t24 -148t126 -53q40 0 76.5 14.5t66 40.5t50.5 63t29 83t0.5 83t-27.5 63.5t-52 40.5t-72 14zM219 -125q4 20 20 34.5t36 14.5t32.5 -14.5t8.5 -34.5t-20.5 -33.5t-36.5 -13.5t-32 13.5t-8 33.5z" />
    <glyph glyph-name="uni1EAE" unicode="&#x1eae;" 
d="M380 946l-12 33l161 96l18 -47zM401 764q-61 0 -87.5 36t-18.5 87l2 8h42q-7 -35 10.5 -55t61.5 -20q43 0 68 20t30 55h42l-1 -8q-10 -51 -48 -87t-101 -36zM454 163h-310l-88 -163h-97l381 692h104l138 -692h-98zM441 234l-66 357l-193 -357h259z" />
    <glyph glyph-name="uni1EAF" unicode="&#x1eaf;" horiz-adv-x="675" 
d="M533 872l-167 -82l-12 33l161 96zM387 608q-61 0 -87.5 36t-18.5 87l2 8h42q-7 -35 10.5 -55t61.5 -20q43 0 68 20t30 55h42l-1 -8q-10 -51 -48 -87t-101 -36zM345 556q84 0 132.5 -41t58.5 -106l24 140h91l-97 -549h-90l24 140q-32 -65 -94 -106t-144 -41
q-56 0 -99.5 20t-70.5 57t-36 90.5t3 120.5q11 65 39 116t67.5 86t88.5 54t103 19zM361 475q-85 0 -144.5 -53t-76.5 -148t24 -148t126 -53q40 0 76.5 14.5t66 40.5t50.5 63t29 83t0.5 83t-27.5 63.5t-52 40.5t-72 14z" />
    <glyph glyph-name="uni1EB0" unicode="&#x1eb0;" 
d="M533 941l-138 86l25 49l132 -98zM401 764q-61 0 -87.5 36t-18.5 87l2 8h42q-7 -35 10.5 -55t61.5 -20q43 0 68 20t30 55h42l-1 -8q-10 -51 -48 -87t-101 -36zM454 163h-310l-88 -163h-97l381 692h104l138 -692h-98zM441 234l-66 357l-193 -357h259z" />
    <glyph glyph-name="uni1EB1" unicode="&#x1eb1;" horiz-adv-x="675" 
d="M538 822l-19 -37l-138 86l25 49zM387 608q-61 0 -87.5 36t-18.5 87l2 8h42q-7 -35 10.5 -55t61.5 -20q43 0 68 20t30 55h42l-1 -8q-10 -51 -48 -87t-101 -36zM345 556q84 0 132.5 -41t58.5 -106l24 140h91l-97 -549h-90l24 140q-32 -65 -94 -106t-144 -41q-56 0 -99.5 20
t-70.5 57t-36 90.5t3 120.5q11 65 39 116t67.5 86t88.5 54t103 19zM361 475q-85 0 -144.5 -53t-76.5 -148t24 -148t126 -53q40 0 76.5 14.5t66 40.5t50.5 63t29 83t0.5 83t-27.5 63.5t-52 40.5t-72 14z" />
    <glyph glyph-name="uni1EB2" unicode="&#x1eb2;" 
d="M466 1080q-21 0 -30.5 -11t-16.5 -33l-43 4q4 14 10.5 28.5t17.5 26.5t28 19.5t43 7.5q42 0 58 -21.5t10 -57.5q-5 -29 -28.5 -50t-59.5 -51l-24 24q29 23 46 41t21 36q4 22 -4.5 29.5t-27.5 7.5zM401 764q-61 0 -87.5 36t-18.5 87l2 8h42q-7 -35 10.5 -55t61.5 -20
q43 0 68 20t30 55h42l-1 -8q-10 -51 -48 -87t-101 -36zM454 163h-310l-88 -163h-97l381 692h104l138 -692h-98zM441 234l-66 357l-193 -357h259z" />
    <glyph glyph-name="uni1EB3" unicode="&#x1eb3;" horiz-adv-x="675" 
d="M461 966q42 0 58 -21.5t10 -57.5q-5 -29 -28.5 -50t-59.5 -51l-24 24q29 23 46 41t21 36q4 22 -4.5 29.5t-27.5 7.5q-21 0 -30.5 -11t-16.5 -33l-43 4q4 14 10.5 28.5t17.5 26.5t28 19.5t43 7.5zM387 608q-61 0 -87.5 36t-18.5 87l2 8h42q-7 -35 10.5 -55t61.5 -20
q43 0 68 20t30 55h42l-1 -8q-10 -51 -48 -87t-101 -36zM345 556q84 0 132.5 -41t58.5 -106l24 140h91l-97 -549h-90l24 140q-32 -65 -94 -106t-144 -41q-56 0 -99.5 20t-70.5 57t-36 90.5t3 120.5q11 65 39 116t67.5 86t88.5 54t103 19zM361 475q-85 0 -144.5 -53
t-76.5 -148t24 -148t126 -53q40 0 76.5 14.5t66 40.5t50.5 63t29 83t0.5 83t-27.5 63.5t-52 40.5t-72 14z" />
    <glyph glyph-name="uni1EB4" unicode="&#x1eb4;" 
d="M395 995q-33 0 -46 -44h-42q30 91 99 91q18 0 30.5 -7t23 -15t21 -15t25.5 -7t28 10.5t20 31.5h42q-14 -45 -40.5 -67.5t-59.5 -22.5q-19 0 -32 7t-23.5 15.5t-21 15.5t-24.5 7zM401 764q-61 0 -87.5 36t-18.5 87l2 8h42q-7 -35 10.5 -55t61.5 -20q43 0 68 20t30 55h42
l-1 -8q-10 -51 -48 -87t-101 -36zM444 692l138 -692h-98l-30 163h-310l-88 -163h-97l381 692h104zM441 234l-66 357l-193 -357h259z" />
    <glyph glyph-name="uni1EB5" unicode="&#x1eb5;" horiz-adv-x="675" 
d="M392 886q18 0 30.5 -7t23 -15t21 -15t25.5 -7t28 10.5t20 31.5h42q-14 -45 -40.5 -67.5t-59.5 -22.5q-19 0 -32 7t-23.5 15.5t-21 15.5t-24.5 7q-33 0 -46 -44h-42q30 91 99 91zM387 608q-61 0 -87.5 36t-18.5 87l2 8h42q-7 -35 10.5 -55t61.5 -20q43 0 68 20t30 55h42
l-1 -8q-10 -51 -48 -87t-101 -36zM345 556q84 0 132.5 -41t58.5 -106l24 140h91l-97 -549h-90l24 140q-32 -65 -94 -106t-144 -41q-56 0 -99.5 20t-70.5 57t-36 90.5t3 120.5q11 65 39 116t67.5 86t88.5 54t103 19zM361 475q-85 0 -144.5 -53t-76.5 -148t24 -148t126 -53
q40 0 76.5 14.5t66 40.5t50.5 63t29 83t0.5 83t-27.5 63.5t-52 40.5t-72 14z" />
    <glyph glyph-name="uni1EB6" unicode="&#x1eb6;" 
d="M401 766q-64 0 -91 36.5t-18 90.5l2 8h43q-7 -37 11 -57t63 -20t70.5 20t31.5 57h43l-1 -8q-10 -54 -49.5 -90.5t-104.5 -36.5zM484 0l-30 163h-310l-88 -163h-97l381 692h104l138 -692h-98zM441 234l-66 357l-193 -357h259zM269 -76q20 0 32.5 -14.5t8.5 -34.5
t-20.5 -33.5t-36.5 -13.5t-32 13.5t-8 33.5t20 34.5t36 14.5z" />
    <glyph glyph-name="uni1EB7" unicode="&#x1eb7;" horiz-adv-x="675" 
d="M387 610q-64 0 -91 36.5t-18 90.5l2 8h43q-7 -37 11 -57t63 -20t70.5 20t31.5 57h43l-1 -8q-10 -54 -49.5 -90.5t-104.5 -36.5zM345 556q84 0 132.5 -41t58.5 -106l24 140h91l-97 -549h-90l24 140q-32 -65 -94 -106t-144 -41q-56 0 -99.5 20t-70.5 57t-36 90.5t3 120.5
q11 65 39 116t67.5 86t88.5 54t103 19zM361 475q-85 0 -144.5 -53t-76.5 -148t24 -148t126 -53q40 0 76.5 14.5t66 40.5t50.5 63t29 83t0.5 83t-27.5 63.5t-52 40.5t-72 14zM219 -125q4 20 20 34.5t36 14.5t32.5 -14.5t8.5 -34.5t-20.5 -33.5t-36.5 -13.5t-32 13.5t-8 33.5z
" />
    <glyph glyph-name="uni1EB8" unicode="&#x1eb8;" horiz-adv-x="506" 
d="M213 631l-42 -241h268l-13 -70h-268l-43 -246h298l-13 -74h-389l124 705h389l-13 -74h-298zM135 -125q4 20 20 34.5t36 14.5t32.5 -14.5t8.5 -34.5t-20.5 -33.5t-36.5 -13.5t-32 13.5t-8 33.5z" />
    <glyph glyph-name="uni1EB9" unicode="&#x1eb9;" horiz-adv-x="624" 
d="M365 556q62 0 107.5 -20t73 -54.5t37 -80t0.5 -96.5q-3 -17 -5.5 -27.5t-7.5 -22.5h-438q-7 -50 1.5 -85.5t29 -58.5t50 -33.5t62.5 -10.5q66 0 116.5 33t70.5 90h96q-15 -43 -42 -79t-64.5 -62t-84.5 -41t-101 -15q-59 0 -105 19.5t-75.5 56.5t-40.5 89.5t1 119.5
q12 65 41 116.5t71.5 87.5t95.5 55t111 19zM490 299q11 48 3.5 82.5t-28 57t-50.5 33t-63 10.5q-34 0 -68 -11t-63 -33.5t-50.5 -57t-31.5 -81.5h351zM250 -76q20 0 32.5 -14.5t8.5 -34.5t-20.5 -33.5t-36.5 -13.5t-32 13.5t-8 33.5t20 34.5t36 14.5z" />
    <glyph glyph-name="uni1EBA" unicode="&#x1eba;" horiz-adv-x="506" 
d="M372 939q44 0 60.5 -22t9.5 -59q-5 -30 -29 -52t-61 -53l-25 25q29 24 47 42.5t22 37.5q4 22 -4.5 30t-28.5 8q-22 0 -31.5 -11.5t-17.5 -34.5l-44 4q4 14 10.5 29t18 27.5t29 20.5t44.5 8zM213 631l-42 -241h268l-13 -70h-268l-43 -246h298l-13 -74h-389l124 705h389
l-13 -74h-298z" />
    <glyph glyph-name="uni1EBB" unicode="&#x1ebb;" horiz-adv-x="624" 
d="M394 740q-22 0 -31.5 -11.5t-17.5 -34.5l-44 4q4 14 10.5 29t18 27.5t29 20.5t44.5 8q44 0 60.5 -22t9.5 -59q-5 -30 -29 -52t-61 -53l-25 25q29 24 47 42.5t22 37.5q4 22 -4.5 30t-28.5 8zM365 556q62 0 107.5 -20t73 -54.5t37 -80t0.5 -96.5q-3 -17 -5.5 -27.5
t-7.5 -22.5h-438q-7 -50 1.5 -85.5t29 -58.5t50 -33.5t62.5 -10.5q66 0 116.5 33t70.5 90h96q-15 -43 -42 -79t-64.5 -62t-84.5 -41t-101 -15q-59 0 -105 19.5t-75.5 56.5t-40.5 89.5t1 119.5q12 65 41 116.5t71.5 87.5t95.5 55t111 19zM490 299q11 48 3.5 82.5t-28 57
t-50.5 33t-63 10.5q-34 0 -68 -11t-63 -33.5t-50.5 -57t-31.5 -81.5h351z" />
    <glyph glyph-name="uni1EBC" unicode="&#x1ebc;" horiz-adv-x="506" 
d="M301 857q19 0 32 -7t23.5 -16t21.5 -16t27 -7q15 0 28.5 11t20.5 33h44q-14 -46 -41.5 -69.5t-62.5 -23.5q-20 0 -33 7t-24 16t-21.5 16t-25.5 7q-33 0 -48 -45h-43q31 94 102 94zM213 631l-42 -241h268l-13 -70h-268l-43 -246h298l-13 -74h-389l124 705h389l-13 -74
h-298z" />
    <glyph glyph-name="uni1EBD" unicode="&#x1ebd;" horiz-adv-x="624" 
d="M321 652q-33 0 -48 -45h-43q31 94 102 94q19 0 32 -7t23.5 -16t21.5 -16t27 -7q15 0 28.5 11t20.5 33h44q-14 -46 -41.5 -69.5t-62.5 -23.5q-20 0 -33 7t-24 16t-21.5 16t-25.5 7zM365 556q62 0 107.5 -20t73 -54.5t37 -80t0.5 -96.5q-3 -17 -5.5 -27.5t-7.5 -22.5h-438
q-7 -50 1.5 -85.5t29 -58.5t50 -33.5t62.5 -10.5q66 0 116.5 33t70.5 90h96q-15 -43 -42 -79t-64.5 -62t-84.5 -41t-101 -15q-59 0 -105 19.5t-75.5 56.5t-40.5 89.5t1 119.5q12 65 41 116.5t71.5 87.5t95.5 55t111 19zM490 299q11 48 3.5 82.5t-28 57t-50.5 33t-63 10.5
q-34 0 -68 -11t-63 -33.5t-50.5 -57t-31.5 -81.5h351z" />
    <glyph glyph-name="uni1EBE" unicode="&#x1ebe;" horiz-adv-x="506" 
d="M471 964l-167 -82l-12 33l161 96zM359 818l-118 -64l-12 39l137 74l112 -74l-24 -39zM213 631l-42 -241h268l-13 -70h-268l-43 -246h298l-13 -74h-389l124 705h389l-13 -74h-298z" />
    <glyph glyph-name="uni1EBF" unicode="&#x1ebf;" horiz-adv-x="624" 
d="M335 726l-12 33l161 96l18 -47zM272 598l-12 39l137 74l112 -74l-24 -39l-95 64zM365 556q62 0 107.5 -20t73 -54.5t37 -80t0.5 -96.5q-3 -17 -5.5 -27.5t-7.5 -22.5h-438q-7 -50 1.5 -85.5t29 -58.5t50 -33.5t62.5 -10.5q66 0 116.5 33t70.5 90h96q-15 -43 -42 -79
t-64.5 -62t-84.5 -41t-101 -15q-59 0 -105 19.5t-75.5 56.5t-40.5 89.5t1 119.5q12 65 41 116.5t71.5 87.5t95.5 55t111 19zM490 299q11 48 3.5 82.5t-28 57t-50.5 33t-63 10.5q-34 0 -68 -11t-63 -33.5t-50.5 -57t-31.5 -81.5h351z" />
    <glyph glyph-name="uni1EC0" unicode="&#x1ec0;" horiz-adv-x="506" 
d="M478 897l-19 -37l-138 86l25 49zM359 818l-118 -64l-12 39l137 74l112 -74l-24 -39zM213 631l-42 -241h268l-13 -70h-268l-43 -246h298l-13 -74h-389l124 705h389l-13 -74h-298z" />
    <glyph glyph-name="uni1EC1" unicode="&#x1ec1;" horiz-adv-x="624" 
d="M490 704l-138 86l25 49l132 -98zM272 598l-12 39l137 74l112 -74l-24 -39l-95 64zM365 556q62 0 107.5 -20t73 -54.5t37 -80t0.5 -96.5q-3 -17 -5.5 -27.5t-7.5 -22.5h-438q-7 -50 1.5 -85.5t29 -58.5t50 -33.5t62.5 -10.5q66 0 116.5 33t70.5 90h96q-15 -43 -42 -79
t-64.5 -62t-84.5 -41t-101 -15q-59 0 -105 19.5t-75.5 56.5t-40.5 89.5t1 119.5q12 65 41 116.5t71.5 87.5t95.5 55t111 19zM490 299q11 48 3.5 82.5t-28 57t-50.5 33t-63 10.5q-34 0 -68 -11t-63 -33.5t-50.5 -57t-31.5 -81.5h351z" />
    <glyph glyph-name="uni1EC2" unicode="&#x1ec2;" horiz-adv-x="506" 
d="M506 1018q42 0 58 -21.5t10 -57.5q-5 -29 -28.5 -50t-59.5 -51l-24 24q29 23 46 41t21 36q4 22 -4.5 29.5t-27.5 7.5q-21 0 -30.5 -11t-16.5 -33l-43 4q4 14 10.5 28.5t17.5 26.5t28 19.5t43 7.5zM359 818l-118 -64l-12 39l137 74l112 -74l-24 -39zM213 631l-42 -241h268
l-13 -70h-268l-43 -246h298l-13 -74h-389l124 705h389l-13 -74h-298z" />
    <glyph glyph-name="uni1EC3" unicode="&#x1ec3;" horiz-adv-x="624" 
d="M537 862q42 0 58 -21.5t10 -57.5q-5 -29 -28.5 -50t-59.5 -51l-24 24q29 23 46 41t21 36q4 22 -4.5 29.5t-27.5 7.5q-21 0 -30.5 -11t-16.5 -33l-43 4q4 14 10.5 28.5t17.5 26.5t28 19.5t43 7.5zM272 598l-12 39l137 74l112 -74l-24 -39l-95 64zM365 556q62 0 107.5 -20
t73 -54.5t37 -80t0.5 -96.5q-3 -17 -5.5 -27.5t-7.5 -22.5h-438q-7 -50 1.5 -85.5t29 -58.5t50 -33.5t62.5 -10.5q66 0 116.5 33t70.5 90h96q-15 -43 -42 -79t-64.5 -62t-84.5 -41t-101 -15q-59 0 -105 19.5t-75.5 56.5t-40.5 89.5t1 119.5q12 65 41 116.5t71.5 87.5
t95.5 55t111 19zM490 299q11 48 3.5 82.5t-28 57t-50.5 33t-63 10.5q-34 0 -68 -11t-63 -33.5t-50.5 -57t-31.5 -81.5h351z" />
    <glyph glyph-name="uni1EC4" unicode="&#x1ec4;" horiz-adv-x="506" 
d="M348 969q17 0 28.5 -6.5t21.5 -14.5t20 -14.5t25 -6.5q14 0 26 10t18 30h40q-13 -42 -37.5 -63t-56.5 -21q-18 0 -30.5 6.5t-22.5 14t-19.5 14t-22.5 6.5q-31 0 -44 -41h-39q28 86 93 86zM359 818l-118 -64l-12 39l137 74l112 -74l-24 -39zM213 631l-42 -241h268l-13 -70
h-268l-43 -246h298l-13 -74h-389l124 705h389l-13 -74h-298z" />
    <glyph glyph-name="uni1EC5" unicode="&#x1ec5;" horiz-adv-x="624" 
d="M369 768q-31 0 -44 -41h-39q28 86 93 86q17 0 28.5 -6.5t21.5 -14.5t20 -14.5t25 -6.5q14 0 26 10t18 30h40q-13 -42 -37.5 -63t-56.5 -21q-18 0 -30.5 6.5t-22.5 14t-19.5 14t-22.5 6.5zM272 598l-12 39l137 74l112 -74l-24 -39l-95 64zM365 556q62 0 107.5 -20
t73 -54.5t37 -80t0.5 -96.5q-3 -17 -5.5 -27.5t-7.5 -22.5h-438q-7 -50 1.5 -85.5t29 -58.5t50 -33.5t62.5 -10.5q66 0 116.5 33t70.5 90h96q-15 -43 -42 -79t-64.5 -62t-84.5 -41t-101 -15q-59 0 -105 19.5t-75.5 56.5t-40.5 89.5t1 119.5q12 65 41 116.5t71.5 87.5
t95.5 55t111 19zM490 299q11 48 3.5 82.5t-28 57t-50.5 33t-63 10.5q-34 0 -68 -11t-63 -33.5t-50.5 -57t-31.5 -81.5h351z" />
    <glyph glyph-name="uni1EC6" unicode="&#x1ec6;" horiz-adv-x="506" 
d="M359 821l-121 -66l-13 40l142 77l115 -77l-24 -40zM213 631l-42 -241h268l-13 -70h-268l-43 -246h298l-13 -74h-389l124 705h389l-13 -74h-298zM135 -125q4 20 20 34.5t36 14.5t32.5 -14.5t8.5 -34.5t-20.5 -33.5t-36.5 -13.5t-32 13.5t-8 33.5z" />
    <glyph glyph-name="uni1EC7" unicode="&#x1ec7;" horiz-adv-x="624" 
d="M269 599l-13 40l142 77l115 -77l-24 -40l-99 66zM365 556q62 0 107.5 -20t73 -54.5t37 -80t0.5 -96.5q-3 -17 -5.5 -27.5t-7.5 -22.5h-438q-7 -50 1.5 -85.5t29 -58.5t50 -33.5t62.5 -10.5q66 0 116.5 33t70.5 90h96q-15 -43 -42 -79t-64.5 -62t-84.5 -41t-101 -15
q-59 0 -105 19.5t-75.5 56.5t-40.5 89.5t1 119.5q12 65 41 116.5t71.5 87.5t95.5 55t111 19zM490 299q11 48 3.5 82.5t-28 57t-50.5 33t-63 10.5q-34 0 -68 -11t-63 -33.5t-50.5 -57t-31.5 -81.5h351zM250 -76q20 0 32.5 -14.5t8.5 -34.5t-20.5 -33.5t-36.5 -13.5t-32 13.5
t-8 33.5t20 34.5t36 14.5z" />
    <glyph glyph-name="uni1EC8" unicode="&#x1ec8;" horiz-adv-x="237" 
d="M237 939q44 0 60.5 -22t9.5 -59q-5 -30 -29 -52t-61 -53l-25 25q29 24 47 42.5t22 37.5q4 22 -4.5 30t-28.5 8q-22 0 -31.5 -11.5t-17.5 -34.5l-44 4q4 14 10.5 29t18 27.5t29 20.5t44.5 8zM226 705l-124 -705h-91l124 705h91z" />
    <glyph glyph-name="uni1EC9" unicode="&#x1ec9;" horiz-adv-x="233" 
d="M207 783q44 0 60.5 -22t9.5 -59q-5 -30 -29 -52t-61 -53l-25 25q29 24 47 42.5t22 37.5q4 22 -4.5 30t-28.5 8q-22 0 -31.5 -11.5t-17.5 -34.5l-44 4q4 14 10.5 29t18 27.5t29 20.5t44.5 8zM211 549l-97 -549h-92l97 549h92z" />
    <glyph glyph-name="uni1ECA" unicode="&#x1eca;" horiz-adv-x="237" 
d="M226 705l-124 -705h-91l124 705h91zM0 -125q4 20 20 34.5t36 14.5t32.5 -14.5t8.5 -34.5t-20.5 -33.5t-36.5 -13.5t-32 13.5t-8 33.5z" />
    <glyph glyph-name="uni1ECB" unicode="&#x1ecb;" horiz-adv-x="236" 
d="M132 710q5 25 24.5 40.5t47.5 15.5t42.5 -15.5t9.5 -40.5q-4 -25 -24 -40.5t-48 -15.5t-42.5 15.5t-9.5 40.5zM211 549l-97 -549h-91l97 549h91zM-1 -125q4 20 20 34.5t36 14.5t32.5 -14.5t8.5 -34.5t-20.5 -33.5t-36.5 -13.5t-32 13.5t-8 33.5z" />
    <glyph glyph-name="uni1ECC" unicode="&#x1ecc;" horiz-adv-x="785" 
d="M446 714q79 0 139.5 -27.5t98.5 -77.5t52 -118.5t-1 -151.5q-13 -76 -48.5 -140t-87 -110t-118 -71.5t-141.5 -25.5q-80 0 -140.5 27.5t-99 77.5t-52 119t1.5 151q14 77 49 140.5t87 109.5t118.5 71.5t141.5 25.5zM438 629q-54 0 -103 -19t-88.5 -54t-67.5 -85.5
t-39 -113.5q-11 -65 -1 -117t38 -88t72 -55.5t99 -19.5q53 0 102 19t89 54.5t67.5 86t38.5 113.5q11 65 1 116.5t-38 87.5t-71.5 55.5t-98.5 19.5zM274 -125q4 20 20 34.5t36 14.5t32.5 -14.5t8.5 -34.5t-20.5 -33.5t-36.5 -13.5t-32 13.5t-8 33.5z" />
    <glyph glyph-name="uni1ECD" unicode="&#x1ecd;" horiz-adv-x="644" 
d="M370 556q59 0 106.5 -19.5t78.5 -57t43 -91t0 -121.5q-12 -64 -42 -115t-72.5 -86.5t-96 -54t-111.5 -18.5q-60 0 -107.5 19.5t-79 57t-43.5 91t0 120.5q12 65 42 116t73 86t97 54t112 19zM358 476q-35 0 -70 -12t-65 -36.5t-52.5 -62.5t-31.5 -91q-9 -52 -0.5 -90
t30 -62.5t52.5 -36.5t66 -12t70 12t65 36.5t52 62.5t31 90q9 53 0.5 91t-29.5 62.5t-52 36.5t-66 12zM204 -125q4 20 20 34.5t36 14.5t32.5 -14.5t8.5 -34.5t-20.5 -33.5t-36.5 -13.5t-32 13.5t-8 33.5z" />
    <glyph glyph-name="uni1ECE" unicode="&#x1ece;" horiz-adv-x="785" 
d="M499 939q44 0 60.5 -22t9.5 -59q-5 -30 -29 -52t-61 -53l-25 25q29 24 47 42.5t22 37.5q4 22 -4.5 30t-28.5 8q-22 0 -31.5 -11.5t-17.5 -34.5l-44 4q4 14 10.5 29t18 27.5t29 20.5t44.5 8zM446 714q79 0 139.5 -27.5t98.5 -77.5t52 -118.5t-1 -151.5q-13 -76 -48.5 -140
t-87 -110t-118 -71.5t-141.5 -25.5q-80 0 -140.5 27.5t-99 77.5t-52 119t1.5 151q14 77 49 140.5t87 109.5t118.5 71.5t141.5 25.5zM438 629q-54 0 -103 -19t-88.5 -54t-67.5 -85.5t-39 -113.5q-11 -65 -1 -117t38 -88t72 -55.5t99 -19.5q53 0 102 19t89 54.5t67.5 86
t38.5 113.5q11 65 1 116.5t-38 87.5t-71.5 55.5t-98.5 19.5z" />
    <glyph glyph-name="uni1ECF" unicode="&#x1ecf;" horiz-adv-x="644" 
d="M413 783q44 0 60.5 -22t9.5 -59q-5 -30 -29 -52t-61 -53l-25 25q29 24 47 42.5t22 37.5q4 22 -4.5 30t-28.5 8q-22 0 -31.5 -11.5t-17.5 -34.5l-44 4q4 14 10.5 29t18 27.5t29 20.5t44.5 8zM370 556q59 0 106.5 -19.5t78.5 -57t43 -91t0 -121.5q-12 -64 -42 -115
t-72.5 -86.5t-96 -54t-111.5 -18.5q-60 0 -107.5 19.5t-79 57t-43.5 91t0 120.5q12 65 42 116t73 86t97 54t112 19zM358 476q-35 0 -70 -12t-65 -36.5t-52.5 -62.5t-31.5 -91q-9 -52 -0.5 -90t30 -62.5t52.5 -36.5t66 -12t70 12t65 36.5t52 62.5t31 90q9 53 0.5 91
t-29.5 62.5t-52 36.5t-66 12z" />
    <glyph glyph-name="uni1ED0" unicode="&#x1ed0;" horiz-adv-x="785" 
d="M598 964l-167 -82l-12 33l161 96zM486 818l-118 -64l-12 39l137 74l112 -74l-24 -39zM446 714q79 0 139.5 -27.5t98.5 -77.5t52 -118.5t-1 -151.5q-13 -76 -48.5 -140t-87 -110t-118 -71.5t-141.5 -25.5q-80 0 -140.5 27.5t-99 77.5t-52 119t1.5 151q14 77 49 140.5
t87 109.5t118.5 71.5t141.5 25.5zM438 629q-54 0 -103 -19t-88.5 -54t-67.5 -85.5t-39 -113.5q-11 -65 -1 -117t38 -88t72 -55.5t99 -19.5q53 0 102 19t89 54.5t67.5 86t38.5 113.5q11 65 1 116.5t-38 87.5t-71.5 55.5t-98.5 19.5z" />
    <glyph glyph-name="uni1ED1" unicode="&#x1ed1;" horiz-adv-x="644" 
d="M512 808l-167 -82l-12 33l161 96zM400 662l-118 -64l-12 39l137 74l112 -74l-24 -39zM370 556q59 0 106.5 -19.5t78.5 -57t43 -91t0 -121.5q-12 -64 -42 -115t-72.5 -86.5t-96 -54t-111.5 -18.5q-60 0 -107.5 19.5t-79 57t-43.5 91t0 120.5q12 65 42 116t73 86t97 54
t112 19zM358 476q-35 0 -70 -12t-65 -36.5t-52.5 -62.5t-31.5 -91q-9 -52 -0.5 -90t30 -62.5t52.5 -36.5t66 -12t70 12t65 36.5t52 62.5t31 90q9 53 0.5 91t-29.5 62.5t-52 36.5t-66 12z" />
    <glyph glyph-name="uni1ED2" unicode="&#x1ed2;" horiz-adv-x="785" 
d="M605 897l-19 -37l-138 86l25 49zM486 818l-118 -64l-12 39l137 74l112 -74l-24 -39zM446 714q79 0 139.5 -27.5t98.5 -77.5t52 -118.5t-1 -151.5q-13 -76 -48.5 -140t-87 -110t-118 -71.5t-141.5 -25.5q-80 0 -140.5 27.5t-99 77.5t-52 119t1.5 151q14 77 49 140.5
t87 109.5t118.5 71.5t141.5 25.5zM438 629q-54 0 -103 -19t-88.5 -54t-67.5 -85.5t-39 -113.5q-11 -65 -1 -117t38 -88t72 -55.5t99 -19.5q53 0 102 19t89 54.5t67.5 86t38.5 113.5q11 65 1 116.5t-38 87.5t-71.5 55.5t-98.5 19.5z" />
    <glyph glyph-name="uni1ED3" unicode="&#x1ed3;" horiz-adv-x="644" 
d="M519 741l-19 -37l-138 86l25 49zM400 662l-118 -64l-12 39l137 74l112 -74l-24 -39zM370 556q59 0 106.5 -19.5t78.5 -57t43 -91t0 -121.5q-12 -64 -42 -115t-72.5 -86.5t-96 -54t-111.5 -18.5q-60 0 -107.5 19.5t-79 57t-43.5 91t0 120.5q12 65 42 116t73 86t97 54
t112 19zM358 476q-35 0 -70 -12t-65 -36.5t-52.5 -62.5t-31.5 -91q-9 -52 -0.5 -90t30 -62.5t52.5 -36.5t66 -12t70 12t65 36.5t52 62.5t31 90q9 53 0.5 91t-29.5 62.5t-52 36.5t-66 12z" />
    <glyph glyph-name="uni1ED4" unicode="&#x1ed4;" horiz-adv-x="785" 
d="M633 1018q42 0 58 -21.5t10 -57.5q-5 -29 -28.5 -50t-59.5 -51l-24 24q29 23 46 41t21 36q4 22 -4.5 29.5t-27.5 7.5q-21 0 -30.5 -11t-16.5 -33l-43 4q4 14 10.5 28.5t17.5 26.5t28 19.5t43 7.5zM486 818l-118 -64l-12 39l137 74l112 -74l-24 -39zM446 714
q79 0 139.5 -27.5t98.5 -77.5t52 -118.5t-1 -151.5q-13 -76 -48.5 -140t-87 -110t-118 -71.5t-141.5 -25.5q-80 0 -140.5 27.5t-99 77.5t-52 119t1.5 151q14 77 49 140.5t87 109.5t118.5 71.5t141.5 25.5zM438 629q-54 0 -103 -19t-88.5 -54t-67.5 -85.5t-39 -113.5
q-11 -65 -1 -117t38 -88t72 -55.5t99 -19.5q53 0 102 19t89 54.5t67.5 86t38.5 113.5q11 65 1 116.5t-38 87.5t-71.5 55.5t-98.5 19.5z" />
    <glyph glyph-name="uni1ED5" unicode="&#x1ed5;" horiz-adv-x="644" 
d="M547 862q42 0 58 -21.5t10 -57.5q-5 -29 -28.5 -50t-59.5 -51l-24 24q29 23 46 41t21 36q4 22 -4.5 29.5t-27.5 7.5q-21 0 -30.5 -11t-16.5 -33l-43 4q4 14 10.5 28.5t17.5 26.5t28 19.5t43 7.5zM400 662l-118 -64l-12 39l137 74l112 -74l-24 -39zM370 556
q59 0 106.5 -19.5t78.5 -57t43 -91t0 -121.5q-12 -64 -42 -115t-72.5 -86.5t-96 -54t-111.5 -18.5q-60 0 -107.5 19.5t-79 57t-43.5 91t0 120.5q12 65 42 116t73 86t97 54t112 19zM358 476q-35 0 -70 -12t-65 -36.5t-52.5 -62.5t-31.5 -91q-9 -52 -0.5 -90t30 -62.5
t52.5 -36.5t66 -12t70 12t65 36.5t52 62.5t31 90q9 53 0.5 91t-29.5 62.5t-52 36.5t-66 12z" />
    <glyph glyph-name="uni1ED6" unicode="&#x1ed6;" horiz-adv-x="785" 
d="M475 969q17 0 28.5 -6.5t21.5 -14.5t20 -14.5t25 -6.5q14 0 26 10t18 30h40q-13 -42 -37.5 -63t-56.5 -21q-18 0 -30.5 6.5t-22.5 14t-19.5 14t-22.5 6.5q-31 0 -44 -41h-39q28 86 93 86zM486 818l-118 -64l-12 39l137 74l112 -74l-24 -39zM446 714q79 0 139.5 -27.5
t98.5 -77.5t52 -118.5t-1 -151.5q-13 -76 -48.5 -140t-87 -110t-118 -71.5t-141.5 -25.5q-80 0 -140.5 27.5t-99 77.5t-52 119t1.5 151q14 77 49 140.5t87 109.5t118.5 71.5t141.5 25.5zM438 629q-54 0 -103 -19t-88.5 -54t-67.5 -85.5t-39 -113.5q-11 -65 -1 -117t38 -88
t72 -55.5t99 -19.5q53 0 102 19t89 54.5t67.5 86t38.5 113.5q11 65 1 116.5t-38 87.5t-71.5 55.5t-98.5 19.5z" />
    <glyph glyph-name="uni1ED7" unicode="&#x1ed7;" horiz-adv-x="644" 
d="M389 813q17 0 28.5 -6.5t21.5 -14.5t20 -14.5t25 -6.5q14 0 26 10t18 30h40q-13 -42 -37.5 -63t-56.5 -21q-18 0 -30.5 6.5t-22.5 14t-19.5 14t-22.5 6.5q-31 0 -44 -41h-39q28 86 93 86zM400 662l-118 -64l-12 39l137 74l112 -74l-24 -39zM370 556q59 0 106.5 -19.5
t78.5 -57t43 -91t0 -121.5q-12 -64 -42 -115t-72.5 -86.5t-96 -54t-111.5 -18.5q-60 0 -107.5 19.5t-79 57t-43.5 91t0 120.5q12 65 42 116t73 86t97 54t112 19zM358 476q-35 0 -70 -12t-65 -36.5t-52.5 -62.5t-31.5 -91q-9 -52 -0.5 -90t30 -62.5t52.5 -36.5t66 -12t70 12
t65 36.5t52 62.5t31 90q9 53 0.5 91t-29.5 62.5t-52 36.5t-66 12z" />
    <glyph glyph-name="uni1ED8" unicode="&#x1ed8;" horiz-adv-x="785" 
d="M486 821l-121 -66l-13 40l142 77l115 -77l-24 -40zM446 714q79 0 139.5 -27.5t98.5 -77.5t52 -118.5t-1 -151.5q-13 -76 -48.5 -140t-87 -110t-118 -71.5t-141.5 -25.5q-80 0 -140.5 27.5t-99 77.5t-52 119t1.5 151q14 77 49 140.5t87 109.5t118.5 71.5t141.5 25.5z
M438 629q-54 0 -103 -19t-88.5 -54t-67.5 -85.5t-39 -113.5q-11 -65 -1 -117t38 -88t72 -55.5t99 -19.5q53 0 102 19t89 54.5t67.5 86t38.5 113.5q11 65 1 116.5t-38 87.5t-71.5 55.5t-98.5 19.5zM274 -125q4 20 20 34.5t36 14.5t32.5 -14.5t8.5 -34.5t-20.5 -33.5
t-36.5 -13.5t-32 13.5t-8 33.5z" />
    <glyph glyph-name="uni1ED9" unicode="&#x1ed9;" horiz-adv-x="644" 
d="M400 665l-121 -66l-13 40l142 77l115 -77l-24 -40zM370 556q59 0 106.5 -19.5t78.5 -57t43 -91t0 -121.5q-12 -64 -42 -115t-72.5 -86.5t-96 -54t-111.5 -18.5q-60 0 -107.5 19.5t-79 57t-43.5 91t0 120.5q12 65 42 116t73 86t97 54t112 19zM358 476q-35 0 -70 -12
t-65 -36.5t-52.5 -62.5t-31.5 -91q-9 -52 -0.5 -90t30 -62.5t52.5 -36.5t66 -12t70 12t65 36.5t52 62.5t31 90q9 53 0.5 91t-29.5 62.5t-52 36.5t-66 12zM204 -125q4 20 20 34.5t36 14.5t32.5 -14.5t8.5 -34.5t-20.5 -33.5t-36.5 -13.5t-32 13.5t-8 33.5z" />
    <glyph glyph-name="uni1EDA" unicode="&#x1eda;" horiz-adv-x="785" 
d="M401 757l-12 34l166 100l19 -49zM619 668q73 -46 104.5 -131.5t11.5 -197.5q-13 -76 -48.5 -140t-87 -110t-118 -71.5t-141.5 -25.5q-80 0 -140.5 27.5t-99 77.5t-52 119t1.5 151q14 77 49 140.5t87 109.5t118.5 71.5t141.5 25.5q45 0 82 -9q45 2 76.5 27.5t42.5 85.5h66
q-10 -55 -35 -92t-59 -58zM645 350q11 65 1 116.5t-38 87.5t-71.5 55.5t-98.5 19.5q-54 0 -103 -19t-88.5 -54t-67.5 -85.5t-39 -113.5q-11 -65 -1 -117t38 -88t72 -55.5t99 -19.5q53 0 102 19t89 54.5t67.5 86t38.5 113.5z" />
    <glyph glyph-name="uni1EDB" unicode="&#x1edb;" horiz-adv-x="644" 
d="M315 601l-12 34l166 100l19 -49zM523 510q48 -36 69 -97.5t6 -145.5q-12 -64 -42 -115t-72.5 -86.5t-96 -54t-111.5 -18.5q-60 0 -107.5 19.5t-79 57t-43.5 91t0 120.5q12 65 42 116t73 86t97 54t112 19q37 0 66 -7q45 2 76.5 27t42.5 86h66q-10 -57 -36.5 -94t-61.5 -58
zM505 274q9 53 0.5 91t-29.5 62.5t-52 36.5t-66 12t-70 -12t-65 -36.5t-52.5 -62.5t-31.5 -91q-9 -52 -0.5 -90t30 -62.5t52.5 -36.5t66 -12t70 12t65 36.5t52 62.5t31 90z" />
    <glyph glyph-name="uni1EDC" unicode="&#x1edc;" horiz-adv-x="785" 
d="M560 752l-143 89l26 51l137 -102zM619 668q73 -46 104.5 -131.5t11.5 -197.5q-13 -76 -48.5 -140t-87 -110t-118 -71.5t-141.5 -25.5q-80 0 -140.5 27.5t-99 77.5t-52 119t1.5 151q14 77 49 140.5t87 109.5t118.5 71.5t141.5 25.5q45 0 82 -9q45 2 76.5 27.5t42.5 85.5
h66q-10 -55 -35 -92t-59 -58zM645 350q11 65 1 116.5t-38 87.5t-71.5 55.5t-98.5 19.5q-54 0 -103 -19t-88.5 -54t-67.5 -85.5t-39 -113.5q-11 -65 -1 -117t38 -88t72 -55.5t99 -19.5q53 0 102 19t89 54.5t67.5 86t38.5 113.5z" />
    <glyph glyph-name="uni1EDD" unicode="&#x1edd;" horiz-adv-x="644" 
d="M474 596l-143 89l26 51l137 -102zM523 510q48 -36 69 -97.5t6 -145.5q-12 -64 -42 -115t-72.5 -86.5t-96 -54t-111.5 -18.5q-60 0 -107.5 19.5t-79 57t-43.5 91t0 120.5q12 65 42 116t73 86t97 54t112 19q37 0 66 -7q45 2 76.5 27t42.5 86h66q-10 -57 -36.5 -94
t-61.5 -58zM505 274q9 53 0.5 91t-29.5 62.5t-52 36.5t-66 12t-70 -12t-65 -36.5t-52.5 -62.5t-31.5 -91q-9 -52 -0.5 -90t30 -62.5t52.5 -36.5t66 -12t70 12t65 36.5t52 62.5t31 90z" />
    <glyph glyph-name="uni1EDE" unicode="&#x1ede;" horiz-adv-x="785" 
d="M490 896q-22 0 -31.5 -11.5t-17.5 -34.5l-44 4q4 14 10.5 29t18 27.5t29 20.5t44.5 8q44 0 60.5 -22t9.5 -59q-5 -30 -29 -52t-61 -53l-25 25q29 24 47 42.5t22 37.5q4 22 -4.5 30t-28.5 8zM619 668q73 -46 104.5 -131.5t11.5 -197.5q-13 -76 -48.5 -140t-87 -110
t-118 -71.5t-141.5 -25.5q-80 0 -140.5 27.5t-99 77.5t-52 119t1.5 151q14 77 49 140.5t87 109.5t118.5 71.5t141.5 25.5q45 0 82 -9q45 2 76.5 27.5t42.5 85.5h66q-10 -55 -35 -92t-59 -58zM645 350q11 65 1 116.5t-38 87.5t-71.5 55.5t-98.5 19.5q-54 0 -103 -19
t-88.5 -54t-67.5 -85.5t-39 -113.5q-11 -65 -1 -117t38 -88t72 -55.5t99 -19.5q53 0 102 19t89 54.5t67.5 86t38.5 113.5z" />
    <glyph glyph-name="uni1EDF" unicode="&#x1edf;" horiz-adv-x="644" 
d="M404 740q-22 0 -31.5 -11.5t-17.5 -34.5l-44 4q4 14 10.5 29t18 27.5t29 20.5t44.5 8q44 0 60.5 -22t9.5 -59q-5 -30 -29 -52t-61 -53l-25 25q29 24 47 42.5t22 37.5q4 22 -4.5 30t-28.5 8zM523 510q48 -36 69 -97.5t6 -145.5q-12 -64 -42 -115t-72.5 -86.5t-96 -54
t-111.5 -18.5q-60 0 -107.5 19.5t-79 57t-43.5 91t0 120.5q12 65 42 116t73 86t97 54t112 19q37 0 66 -7q45 2 76.5 27t42.5 86h66q-10 -57 -36.5 -94t-61.5 -58zM505 274q9 53 0.5 91t-29.5 62.5t-52 36.5t-66 12t-70 -12t-65 -36.5t-52.5 -62.5t-31.5 -91q-9 -52 -0.5 -90
t30 -62.5t52.5 -36.5t66 -12t70 12t65 36.5t52 62.5t31 90z" />
    <glyph glyph-name="uni1EE0" unicode="&#x1ee0;" horiz-adv-x="785" 
d="M387 839q-33 0 -48 -45h-43q31 94 102 94q19 0 32 -7t23.5 -16t21.5 -16t27 -7q15 0 28.5 11t20.5 33h44q-14 -46 -41.5 -69.5t-62.5 -23.5q-20 0 -33 7t-24 16t-21.5 16t-25.5 7zM619 668q73 -46 104.5 -131.5t11.5 -197.5q-13 -76 -48.5 -140t-87 -110t-118 -71.5
t-141.5 -25.5q-80 0 -140.5 27.5t-99 77.5t-52 119t1.5 151q14 77 49 140.5t87 109.5t118.5 71.5t141.5 25.5q45 0 82 -9q45 2 76.5 27.5t42.5 85.5h66q-10 -55 -35 -92t-59 -58zM645 350q11 65 1 116.5t-38 87.5t-71.5 55.5t-98.5 19.5q-54 0 -103 -19t-88.5 -54
t-67.5 -85.5t-39 -113.5q-11 -65 -1 -117t38 -88t72 -55.5t99 -19.5q53 0 102 19t89 54.5t67.5 86t38.5 113.5z" />
    <glyph glyph-name="uni1EE1" unicode="&#x1ee1;" horiz-adv-x="644" 
d="M305 665q-33 0 -48 -45h-43q31 94 102 94q19 0 32 -7t23.5 -16t21.5 -16t27 -7q15 0 28.5 11t20.5 33h44q-14 -46 -41.5 -69.5t-62.5 -23.5q-20 0 -33 7t-24 16t-21.5 16t-25.5 7zM523 510q48 -36 69 -97.5t6 -145.5q-12 -64 -42 -115t-72.5 -86.5t-96 -54t-111.5 -18.5
q-60 0 -107.5 19.5t-79 57t-43.5 91t0 120.5q12 65 42 116t73 86t97 54t112 19q37 0 66 -7q45 2 76.5 27t42.5 86h66q-10 -57 -36.5 -94t-61.5 -58zM505 274q9 53 0.5 91t-29.5 62.5t-52 36.5t-66 12t-70 -12t-65 -36.5t-52.5 -62.5t-31.5 -91q-9 -52 -0.5 -90t30 -62.5
t52.5 -36.5t66 -12t70 12t65 36.5t52 62.5t31 90z" />
    <glyph glyph-name="uni1EE2" unicode="&#x1ee2;" horiz-adv-x="785" 
d="M619 668q73 -46 104.5 -131.5t11.5 -197.5q-13 -76 -48.5 -140t-87 -110t-118 -71.5t-141.5 -25.5q-80 0 -140.5 27.5t-99 77.5t-52 119t1.5 151q14 77 49 140.5t87 109.5t118.5 71.5t141.5 25.5q45 0 82 -9q45 2 76.5 27.5t42.5 85.5h66q-10 -55 -35 -92t-59 -58z
M645 350q11 65 1 116.5t-38 87.5t-71.5 55.5t-98.5 19.5q-54 0 -103 -19t-88.5 -54t-67.5 -85.5t-39 -113.5q-11 -65 -1 -117t38 -88t72 -55.5t99 -19.5q53 0 102 19t89 54.5t67.5 86t38.5 113.5zM330 -76q20 0 32.5 -14.5t8.5 -34.5t-20.5 -33.5t-36.5 -13.5t-32 13.5
t-8 33.5t20 34.5t36 14.5z" />
    <glyph glyph-name="uni1EE3" unicode="&#x1ee3;" horiz-adv-x="644" 
d="M523 510q48 -36 69 -97.5t6 -145.5q-12 -64 -42 -115t-72.5 -86.5t-96 -54t-111.5 -18.5q-60 0 -107.5 19.5t-79 57t-43.5 91t0 120.5q12 65 42 116t73 86t97 54t112 19q37 0 66 -7q45 2 76.5 27t42.5 86h66q-10 -57 -36.5 -94t-61.5 -58zM505 274q9 53 0.5 91
t-29.5 62.5t-52 36.5t-66 12t-70 -12t-65 -36.5t-52.5 -62.5t-31.5 -91q-9 -52 -0.5 -90t30 -62.5t52.5 -36.5t66 -12t70 12t65 36.5t52 62.5t31 90zM260 -76q20 0 32.5 -14.5t8.5 -34.5t-20.5 -33.5t-36.5 -13.5t-32 13.5t-8 33.5t20 34.5t36 14.5z" />
    <glyph glyph-name="uni1EE4" unicode="&#x1ee4;" horiz-adv-x="661" 
d="M222 705l-74 -423q-19 -107 19.5 -155t116.5 -48q77 0 132 48t74 155l74 423h92l-75 -423q-13 -75 -42.5 -129.5t-70.5 -90t-92.5 -52.5t-108.5 -17t-102 17t-73.5 52.5t-38.5 90t3 129.5l75 423h91zM205 -125q4 20 20 34.5t36 14.5t32.5 -14.5t8.5 -34.5t-20.5 -33.5
t-36.5 -13.5t-32 13.5t-8 33.5z" />
    <glyph glyph-name="uni1EE5" unicode="&#x1ee5;" horiz-adv-x="630" 
d="M607 549l-97 -549h-91l22 128q-34 -69 -94 -103t-128 -34q-46 0 -82.5 15t-59.5 44.5t-31.5 74t1.5 104.5l57 320h91l-55 -311q-15 -85 20 -128t105 -43q72 0 126 45.5t72 139.5l52 297h92zM253 -76q20 0 32.5 -14.5t8.5 -34.5t-20.5 -33.5t-36.5 -13.5t-32 13.5t-8 33.5
t20 34.5t36 14.5z" />
    <glyph glyph-name="uni1EE6" unicode="&#x1ee6;" horiz-adv-x="661" 
d="M449 939q44 0 60.5 -22t9.5 -59q-5 -30 -29 -52t-61 -53l-25 25q29 24 47 42.5t22 37.5q4 22 -4.5 30t-28.5 8q-22 0 -31.5 -11.5t-17.5 -34.5l-44 4q4 14 10.5 29t18 27.5t29 20.5t44.5 8zM222 705l-74 -423q-19 -107 19.5 -155t116.5 -48q77 0 132 48t74 155l74 423h92
l-75 -423q-13 -75 -42.5 -129.5t-70.5 -90t-92.5 -52.5t-108.5 -17t-102 17t-73.5 52.5t-38.5 90t3 129.5l75 423h91z" />
    <glyph glyph-name="uni1EE7" unicode="&#x1ee7;" horiz-adv-x="630" 
d="M397 740q-22 0 -31.5 -11.5t-17.5 -34.5l-44 4q4 14 10.5 29t18 27.5t29 20.5t44.5 8q44 0 60.5 -22t9.5 -59q-5 -30 -29 -52t-61 -53l-25 25q29 24 47 42.5t22 37.5q4 22 -4.5 30t-28.5 8zM607 549l-97 -549h-91l22 128q-34 -69 -94 -103t-128 -34q-46 0 -82.5 15
t-59.5 44.5t-31.5 74t1.5 104.5l57 320h91l-55 -311q-15 -85 20 -128t105 -43q72 0 126 45.5t72 139.5l52 297h92z" />
    <glyph glyph-name="uni1EE8" unicode="&#x1ee8;" horiz-adv-x="661" 
d="M351 757l-12 34l166 100l19 -49zM788 818q-14 -74 -53 -115.5t-89 -56.5l-65 -364q-13 -75 -42.5 -129.5t-70.5 -90t-92.5 -52.5t-108.5 -17t-102 17t-73.5 52.5t-38.5 90t3 129.5l75 423h91l-74 -423q-19 -107 19.5 -155t116.5 -48q77 0 132 48t74 155l74 423h31
q48 0 82 25t45 88h66z" />
    <glyph glyph-name="uni1EE9" unicode="&#x1ee9;" horiz-adv-x="630" 
d="M308 601l-12 34l166 100l19 -49zM740 662q-14 -74 -53.5 -115.5t-89.5 -56.5l-87 -490h-91l22 128q-34 -69 -94 -103t-128 -34q-46 0 -82.5 15t-59.5 44.5t-31.5 74t1.5 104.5l57 320h91l-55 -311q-15 -85 20 -128t105 -43q72 0 126 45.5t72 139.5l52 297h32q48 0 82 25
t45 88h66z" />
    <glyph glyph-name="uni1EEA" unicode="&#x1eea;" horiz-adv-x="661" 
d="M510 752l-143 89l26 51l137 -102zM788 818q-14 -74 -53 -115.5t-89 -56.5l-65 -364q-13 -75 -42.5 -129.5t-70.5 -90t-92.5 -52.5t-108.5 -17t-102 17t-73.5 52.5t-38.5 90t3 129.5l75 423h91l-74 -423q-19 -107 19.5 -155t116.5 -48q77 0 132 48t74 155l74 423h31
q48 0 82 25t45 88h66z" />
    <glyph glyph-name="uni1EEB" unicode="&#x1eeb;" horiz-adv-x="630" 
d="M467 596l-143 89l26 51l137 -102zM740 662q-14 -74 -53.5 -115.5t-89.5 -56.5l-87 -490h-91l22 128q-34 -69 -94 -103t-128 -34q-46 0 -82.5 15t-59.5 44.5t-31.5 74t1.5 104.5l57 320h91l-55 -311q-15 -85 20 -128t105 -43q72 0 126 45.5t72 139.5l52 297h32q48 0 82 25
t45 88h66z" />
    <glyph glyph-name="uni1EEC" unicode="&#x1eec;" horiz-adv-x="661" 
d="M440 896q-22 0 -31.5 -11.5t-17.5 -34.5l-44 4q4 14 10.5 29t18 27.5t29 20.5t44.5 8q44 0 60.5 -22t9.5 -59q-5 -30 -29 -52t-61 -53l-25 25q29 24 47 42.5t22 37.5q4 22 -4.5 30t-28.5 8zM788 818q-14 -74 -53 -115.5t-89 -56.5l-65 -364q-13 -75 -42.5 -129.5
t-70.5 -90t-92.5 -52.5t-108.5 -17t-102 17t-73.5 52.5t-38.5 90t3 129.5l75 423h91l-74 -423q-19 -107 19.5 -155t116.5 -48q77 0 132 48t74 155l74 423h31q48 0 82 25t45 88h66z" />
    <glyph glyph-name="uni1EED" unicode="&#x1eed;" horiz-adv-x="630" 
d="M397 740q-22 0 -31.5 -11.5t-17.5 -34.5l-44 4q4 14 10.5 29t18 27.5t29 20.5t44.5 8q44 0 60.5 -22t9.5 -59q-5 -30 -29 -52t-61 -53l-25 25q29 24 47 42.5t22 37.5q4 22 -4.5 30t-28.5 8zM740 662q-14 -74 -53.5 -115.5t-89.5 -56.5l-87 -490h-91l22 128
q-34 -69 -94 -103t-128 -34q-46 0 -82.5 15t-59.5 44.5t-31.5 74t1.5 104.5l57 320h91l-55 -311q-15 -85 20 -128t105 -43q72 0 126 45.5t72 139.5l52 297h32q48 0 82 25t45 88h66z" />
    <glyph glyph-name="uni1EEE" unicode="&#x1eee;" horiz-adv-x="661" 
d="M367 808q-33 0 -48 -45h-43q31 94 102 94q19 0 32 -7t23.5 -16t21.5 -16t27 -7q15 0 28.5 11t20.5 33h44q-14 -46 -41.5 -69.5t-62.5 -23.5q-20 0 -33 7t-24 16t-21.5 16t-25.5 7zM788 818q-14 -74 -53 -115.5t-89 -56.5l-65 -364q-13 -75 -42.5 -129.5t-70.5 -90
t-92.5 -52.5t-108.5 -17t-102 17t-73.5 52.5t-38.5 90t3 129.5l75 423h91l-74 -423q-19 -107 19.5 -155t116.5 -48q77 0 132 48t74 155l74 423h31q48 0 82 25t45 88h66z" />
    <glyph glyph-name="uni1EEF" unicode="&#x1eef;" horiz-adv-x="630" 
d="M324 652q-33 0 -48 -45h-43q31 94 102 94q19 0 32 -7t23.5 -16t21.5 -16t27 -7q15 0 28.5 11t20.5 33h44q-14 -46 -41.5 -69.5t-62.5 -23.5q-20 0 -33 7t-24 16t-21.5 16t-25.5 7zM740 662q-14 -74 -53.5 -115.5t-89.5 -56.5l-87 -490h-91l22 128q-34 -69 -94 -103
t-128 -34q-46 0 -82.5 15t-59.5 44.5t-31.5 74t1.5 104.5l57 320h91l-55 -311q-15 -85 20 -128t105 -43q72 0 126 45.5t72 139.5l52 297h32q48 0 82 25t45 88h66z" />
    <glyph glyph-name="uni1EF0" unicode="&#x1ef0;" horiz-adv-x="661" 
d="M788 818q-14 -74 -53 -115.5t-89 -56.5l-65 -364q-13 -75 -42.5 -129.5t-70.5 -90t-92.5 -52.5t-108.5 -17t-102 17t-73.5 52.5t-38.5 90t3 129.5l75 423h91l-74 -423q-19 -107 19.5 -155t116.5 -48q77 0 132 48t74 155l74 423h31q48 0 82 25t45 88h66zM261 -76
q20 0 32.5 -14.5t8.5 -34.5t-20.5 -33.5t-36.5 -13.5t-32 13.5t-8 33.5t20 34.5t36 14.5z" />
    <glyph glyph-name="uni1EF1" unicode="&#x1ef1;" horiz-adv-x="630" 
d="M740 662q-14 -74 -53.5 -115.5t-89.5 -56.5l-87 -490h-91l22 128q-34 -69 -94 -103t-128 -34q-46 0 -82.5 15t-59.5 44.5t-31.5 74t1.5 104.5l57 320h91l-55 -311q-15 -85 20 -128t105 -43q72 0 126 45.5t72 139.5l52 297h32q48 0 82 25t45 88h66zM253 -76
q20 0 32.5 -14.5t8.5 -34.5t-20.5 -33.5t-36.5 -13.5t-32 13.5t-8 33.5t20 34.5t36 14.5z" />
    <glyph glyph-name="Ygrave" unicode="&#x1ef2;" horiz-adv-x="593" 
d="M476 752l-143 89l26 51l137 -102zM636 705l-308 -438l-47 -267h-92l47 267l-155 438h106l113 -340l232 340h104z" />
    <glyph glyph-name="ygrave" unicode="&#x1ef3;" horiz-adv-x="561" 
d="M453 634l-20 -38l-143 89l26 51zM149 549l102 -432l241 432h101l-469 -809h-103l162 269l-136 540h102z" />
    <glyph glyph-name="uni1EF4" unicode="&#x1ef4;" horiz-adv-x="593" 
d="M636 705l-308 -438l-47 -267h-92l47 267l-155 438h106l113 -340l232 340h104zM234 -76q20 0 32.5 -14.5t8.5 -34.5t-20.5 -33.5t-36.5 -13.5t-32 13.5t-8 33.5t20 34.5t36 14.5z" />
    <glyph glyph-name="uni1EF5" unicode="&#x1ef5;" horiz-adv-x="561" 
d="M149 549l102 -432l241 432h101l-469 -809h-103l162 269l-136 540h102zM236 -125q4 20 20 34.5t36 14.5t32.5 -14.5t8.5 -34.5t-20.5 -33.5t-36.5 -13.5t-32 13.5t-8 33.5z" />
    <glyph glyph-name="uni1EF6" unicode="&#x1ef6;" horiz-adv-x="593" 
d="M406 896q-22 0 -31.5 -11.5t-17.5 -34.5l-44 4q4 14 10.5 29t18 27.5t29 20.5t44.5 8q44 0 60.5 -22t9.5 -59q-5 -30 -29 -52t-61 -53l-25 25q29 24 47 42.5t22 37.5q4 22 -4.5 30t-28.5 8zM636 705l-308 -438l-47 -267h-92l47 267l-155 438h106l113 -340l232 340h104z
" />
    <glyph glyph-name="uni1EF7" unicode="&#x1ef7;" horiz-adv-x="561" 
d="M372 783q44 0 60.5 -22t9.5 -59q-5 -30 -29 -52t-61 -53l-25 25q29 24 47 42.5t22 37.5q4 22 -4.5 30t-28.5 8q-22 0 -31.5 -11.5t-17.5 -34.5l-44 4q4 14 10.5 29t18 27.5t29 20.5t44.5 8zM149 549l102 -432l241 432h101l-469 -809h-103l162 269l-136 540h102z" />
    <glyph glyph-name="uni1EF8" unicode="&#x1ef8;" horiz-adv-x="593" 
d="M333 808q-33 0 -48 -45h-43q31 94 102 94q19 0 32 -7t23.5 -16t21.5 -16t27 -7q15 0 28.5 11t20.5 33h44q-14 -46 -41.5 -69.5t-62.5 -23.5q-20 0 -33 7t-24 16t-21.5 16t-25.5 7zM636 705l-308 -438l-47 -267h-92l47 267l-155 438h106l113 -340l232 340h104z" />
    <glyph glyph-name="uni1EF9" unicode="&#x1ef9;" horiz-adv-x="561" 
d="M301 701q19 0 32 -7t23.5 -16t21.5 -16t27 -7q15 0 28.5 11t20.5 33h44q-14 -46 -41.5 -69.5t-62.5 -23.5q-20 0 -33 7t-24 16t-21.5 16t-25.5 7q-33 0 -48 -45h-43q31 94 102 94zM149 549l102 -432l241 432h101l-469 -809h-103l162 269l-136 540h102z" />
    <glyph glyph-name="endash" unicode="&#x2013;" horiz-adv-x="617" 
d="M579 405l-14 -77h-526l13 77h527z" />
    <glyph glyph-name="emdash" unicode="&#x2014;" horiz-adv-x="825" 
d="M786 405l-13 -77h-734l13 77h734z" />
    <glyph glyph-name="quoteleft" unicode="&#x2018;" horiz-adv-x="178" 
d="M31 583q-2 26 -0.5 49t4.5 43q10 57 41 85t81 28l-7 -40q-26 0 -40 -14t-19 -42l-3 -23h50l-16 -86h-91z" />
    <glyph glyph-name="quoteright" unicode="&#x2019;" horiz-adv-x="178" 
d="M148 788q2 -26 0.5 -49t-5.5 -43q-20 -113 -121 -113l7 41q26 0 39.5 13.5t18.5 41.5l5 23h-51l15 86h92z" />
    <glyph glyph-name="quotesinglbase" unicode="&#x201a;" horiz-adv-x="187" 
d="M119 67q5 -37 0.5 -72.5t-19.5 -63t-41 -44.5t-64 -17l7 39q47 0 56 56l2 9h-50l15 93h94z" />
    <glyph glyph-name="quotedblleft" unicode="&#x201c;" horiz-adv-x="314" 
d="M31 583q-2 26 -0.5 49t4.5 43q10 57 41 85t81 28l-7 -40q-26 0 -40 -14t-19 -42l-3 -23h50l-16 -86h-91zM166 583q-3 51 5 92q20 113 121 113l-7 -40q-26 0 -40 -14t-19 -42l-3 -23h50l-16 -86h-91z" />
    <glyph glyph-name="quotedblright" unicode="&#x201d;" horiz-adv-x="314" 
d="M148 788q2 -26 0.5 -49t-5.5 -43q-20 -113 -121 -113l7 41q26 0 39.5 13.5t18.5 41.5l5 23h-51l15 86h92zM283 788q2 -26 0.5 -49t-4.5 -43q-21 -113 -122 -113l7 41q26 0 39.5 13.5t18.5 41.5l4 23h-50l15 86h92z" />
    <glyph glyph-name="quotedblbase" unicode="&#x201e;" horiz-adv-x="314" 
d="M120 86q2 -26 0.5 -49t-5.5 -43q-20 -113 -121 -113l7 41q26 0 39.5 13.5t18.5 41.5l5 23h-51l15 86h92zM255 86q2 -26 0.5 -49t-4.5 -43q-21 -113 -122 -113l7 41q26 0 39.5 13.5t18.5 41.5l4 23h-50l15 86h92z" />
    <glyph glyph-name="dagger" unicode="&#x2020;" horiz-adv-x="531" 
d="M532 477l-191 7l-122 -744h-90l139 744l-192 -7l12 72l190 -8l34 240h91l-52 -240l193 8z" />
    <glyph glyph-name="daggerdbl" unicode="&#x2021;" horiz-adv-x="532" 
d="M342 484l-79 -447l193 9l-12 -73l-191 7l-34 -240h-91l52 240l-194 -7l13 73l191 -9l79 447l-194 -7l13 72l191 -8l33 240h90l-50 -240l193 8l-12 -72z" />
    <glyph glyph-name="bullet" unicode="&#x2022;" horiz-adv-x="355" 
d="M55 333q5 26 18.5 48.5t33 39.5t43.5 26.5t49 9.5q26 0 47 -9.5t34.5 -26.5t19 -39.5t0.5 -48.5q-4 -25 -17.5 -47.5t-33 -39t-43.5 -26t-50 -9.5q-25 0 -46 9.5t-34.5 26t-19 39t-1.5 47.5z" />
    <glyph glyph-name="ellipsis" unicode="&#x2026;" horiz-adv-x="546" 
d="M139 107l-19 -107h-110l18 107h111zM327 107l-19 -107h-110l18 107h111zM515 107l-19 -107h-110l18 107h111z" />
    <glyph glyph-name="perthousand" unicode="&#x2030;" horiz-adv-x="991" 
d="M243 715q63 0 97 -39.5t22 -108.5q-6 -34 -22 -61.5t-38.5 -46.5t-51 -29t-59.5 -10q-63 0 -97.5 39t-22.5 108q6 34 22 61.5t38.5 46.5t51.5 29.5t60 10.5zM640 706l-530 -706h-91l531 706h90zM135 567q-7 -40 11 -65t54 -25q37 0 64 25t34 65q8 41 -10.5 65.5
t-55.5 24.5q-36 0 -62.5 -24.5t-34.5 -65.5zM469 286q63 0 97.5 -39t21.5 -108q-6 -34 -21.5 -61.5t-38 -46.5t-51 -29.5t-60.5 -10.5q-31 0 -56 10.5t-41 29.5t-22.5 46.5t-0.5 61.5t22 61.5t39 46.5t51.5 29t59.5 10zM800 286q63 0 97.5 -39t22.5 -108q-6 -34 -22 -61.5
t-38.5 -46.5t-51 -29.5t-59.5 -10.5q-63 0 -98 39.5t-23 108.5q6 34 22 61.5t39 46.5t51.5 29t59.5 10zM361 139q-7 -41 11 -65.5t55 -24.5q36 0 63 24.5t34 65.5q8 40 -10.5 65t-54.5 25q-37 0 -63.5 -25t-34.5 -65zM692 139q-7 -41 11 -65.5t55 -24.5t63.5 24.5t34.5 65.5
q7 40 -11.5 65t-54.5 25q-37 0 -63.5 -25t-34.5 -65z" />
    <glyph glyph-name="guilsinglleft" unicode="&#x2039;" horiz-adv-x="280" 
d="M110 120l-65 175l127 175h89l-129 -175l67 -175h-89z" />
    <glyph glyph-name="guilsinglright" unicode="&#x203a;" horiz-adv-x="280" 
d="M149 295l-68 175h90l64 -175l-126 -175h-90z" />
    <glyph glyph-name="fraction" unicode="&#x2044;" horiz-adv-x="331" 
d="M475 706l-530 -706h-91l530 706h91z" />
    <glyph glyph-name="uni20A8" unicode="&#x20a8;" horiz-adv-x="1075" 
d="M367 705q63 0 105.5 -16t67 -44t32 -66.5t-0.5 -83.5q-15 -85 -72 -138t-152 -66l141 -291h-102l-134 288h-98l-51 -288h-92l124 705h232zM477 490q11 62 -17.5 99t-113.5 37h-133l-48 -272h133q85 0 127 37.5t52 98.5zM939 377q2 45 -26 77t-89 32q-51 0 -84 -24
t-40 -63q-6 -34 16 -52t57.5 -28.5t77.5 -19.5t76.5 -25.5t54.5 -45.5t11 -81q-6 -33 -23.5 -61t-45 -49t-64 -32.5t-79.5 -11.5q-100 0 -154.5 46.5t-50.5 131.5h90q-4 -46 28.5 -77.5t98.5 -31.5q51 0 80.5 25t36.5 62q6 36 -15.5 54.5t-57 30t-77.5 19.5t-76.5 24.5
t-54.5 45t-11 79.5q12 68 70 111t149 43q98 0 146 -49.5t46 -129.5h-90z" />
    <glyph glyph-name="Euro" unicode="&#x20ac;" horiz-adv-x="820" 
d="M392 78q91 0 157.5 43t104.5 110h96q-25 -54 -61.5 -97.5t-83.5 -74.5t-103.5 -48t-122.5 -17q-62 0 -112 18.5t-86 52t-57 80.5t-24 105h-100l8 47h92q1 26 6 55q2 12 4.5 23.5t5.5 22.5h-90l8 47h98q23 60 60.5 109.5t86 84.5t106 54t120.5 19q132 0 203.5 -65
t83.5 -172h-96q-14 67 -65 110t-142 43q-82 0 -152.5 -48t-108.5 -135h244l-8 -47h-253q-4 -11 -6.5 -22.5t-4.5 -23.5q-4 -28 -6 -55h252l-9 -47h-241q11 -81 63.5 -126.5t132.5 -45.5z" />
    <glyph glyph-name="uni20B9" unicode="&#x20b9;" horiz-adv-x="640" 
d="M517 642l-21 -118h129l-10 -55h-131q-13 -48 -36 -82.5t-60 -56.5t-90.5 -32t-127.5 -10l-16 -90q-11 -66 11.5 -102t83.5 -36q57 0 91 34t45 100h86q-20 -97 -79 -150.5t-152 -53.5q-103 0 -145.5 55.5t-24.5 161.5l26 143q83 0 137 4.5t87.5 17t51 36t27.5 61.5h-318
l10 55h319l22 118h-320l11 63h534l-11 -63h-129z" />
    <glyph glyph-name="uni20BA" unicode="&#x20ba;" horiz-adv-x="787" 
d="M754 417q-38 -216 -142.5 -325t-297.5 -109q-39 0 -80.5 5t-86.5 14l44 248l-169 -38l11 59l168 38l19 107l-169 -39l10 57l169 40l41 233h93l-37 -210l188 45l-10 -59l-188 -44l-19 -108l189 43l-10 -59l-190 -43l-34 -196q19 -5 38 -6.5t37 -1.5q75 0 131 24t96 69.5
t66 110t40 145.5h93z" />
    <glyph glyph-name="uni20BD" unicode="&#x20bd;" horiz-adv-x="631" 
d="M419 705q63 0 106 -14.5t67.5 -41.5t32 -64.5t-0.5 -83.5q-17 -97 -87.5 -150t-188.5 -53h-133l-19 -103h218l-13 -71h-217l-22 -124h-91l22 124h-88l13 71h87l18 103h-87l13 73h87l59 334h224zM531 502q11 60 -17.5 96t-111.5 36h-128l-46 -263h128q84 0 124.5 35.5
t50.5 95.5z" />
    <glyph glyph-name="uni2113" unicode="&#x2113;" horiz-adv-x="235" 
d="M248 740l-130 -740h-92l130 740h92z" />
    <glyph glyph-name="trademark" unicode="&#x2122;" horiz-adv-x="781" 
d="M315 647h-98l-52 -293h-67l51 293h-98l10 58h264zM775 705l-62 -351h-63l43 256l-158 -256h-49l-67 265l-47 -265h-60l62 351h88l64 -272l168 272h81z" />
    <glyph glyph-name="uni2126" unicode="&#x2126;" horiz-adv-x="793" 
d="M751 364q-17 -97 -70.5 -174t-142.5 -119h148l-12 -71h-275l13 75q45 12 85 36t72 59.5t54.5 81.5t31.5 101q11 63 0.5 114.5t-39 87.5t-72 55.5t-99.5 19.5q-57 0 -108.5 -20t-92.5 -56.5t-69.5 -87.5t-39.5 -113q-9 -55 -2.5 -101t26 -81.5t51 -59.5t71.5 -36l-13 -75
h-275l13 71h148q-75 42 -100.5 119t-8.5 174q14 80 53 145t94.5 110.5t124.5 70t142 24.5q74 0 134 -24.5t99.5 -70t56 -110.5t2.5 -145z" />
    <glyph glyph-name="estimated" unicode="&#x212e;" horiz-adv-x="761" 
d="M327 -7q-73 0 -132 22.5t-97 65.5t-53 106t0 144q14 77 47.5 144.5t84.5 117.5t118 78.5t148 28.5q80 0 137.5 -27t92 -72t46 -103.5t0.5 -121.5l-10 -61h-533l-29 -167q30 -47 75 -70.5t116 -23.5q77 0 142 34t136 93l33 -44q-75 -67 -154.5 -105.5t-167.5 -38.5z
M607 555q-24 41 -69 63t-106 22q-62 0 -116.5 -23t-98.5 -72l-29 -166h388z" />
    <glyph glyph-name="partialdiff" unicode="&#x2202;" horiz-adv-x="570" 
d="M333 555q26 0 49 -6t40.5 -22.5t26.5 -44t7 -71.5q9 59 9.5 109t-13.5 87t-44.5 57.5t-82.5 20.5q-17 0 -35.5 -2.5t-38.5 -7.5l8 51q29 8 54.5 11t50.5 3q111 0 158 -79.5t18 -247.5q-17 -98 -51.5 -176.5t-82 -133t-106.5 -84t-126 -29.5q-41 0 -75 14t-56.5 43
t-31 72.5t1.5 103.5q12 67 40.5 127t70.5 105.5t95 72.5t114 27zM328 478q-41 0 -77 -19.5t-65 -54t-49.5 -81t-30.5 -100.5q-7 -40 -2.5 -69t17 -47.5t32 -27t43.5 -8.5q43 0 80 20.5t66 55.5t49.5 81t29.5 98q14 81 -12 116.5t-81 35.5z" />
    <glyph glyph-name="uni2206" unicode="&#x2206;" horiz-adv-x="681" 
d="M439 693l173 -622l-12 -71h-641l12 71l393 622h75zM65 71h454l-137 518z" />
    <glyph glyph-name="product" unicode="&#x220f;" horiz-adv-x="739" 
d="M756 706l-13 -70h-79l-112 -636h-92l112 636h-306l-112 -636h-92l112 636h-79l13 70h648z" />
    <glyph glyph-name="summation" unicode="&#x2211;" horiz-adv-x="457" 
d="M504 622h-333l219 -268l-12 -72l-317 -281h334l-13 -71h-409l18 105l307 280l-209 273l18 105h410z" />
    <glyph glyph-name="minus" unicode="&#x2212;" horiz-adv-x="466" 
d="M443 405l-13 -77h-400l13 77h400z" />
    <glyph glyph-name="radical" unicode="&#x221a;" horiz-adv-x="788" 
d="M845 869l-650 -913h-41l-86 220l-72 -37l-20 47l161 83l80 -205l571 805h57z" />
    <glyph glyph-name="infinity" unicode="&#x221e;" horiz-adv-x="671" 
d="M543 496q72 0 106 -38.5t22 -109.5q-6 -35 -23 -63t-41 -47t-54 -29t-63 -10q-31 0 -55.5 8t-43.5 22t-34 32t-27 38q-32 -42 -78 -71.5t-103 -28.5q-71 0 -105.5 39t-22.5 109q6 35 23 63t41.5 47t54.5 29t62 10t56 -9t42 -23.5t31.5 -33.5t25.5 -40q32 43 79.5 75
t106.5 31zM165 262q38 0 73 22.5t65 60.5q-20 36 -43.5 62.5t-61.5 26.5q-42 0 -69 -24t-34 -63q-7 -38 10.5 -61.5t59.5 -23.5zM597 348q7 38 -11 61.5t-60 23.5q-39 0 -75.5 -24t-67.5 -66q20 -34 44 -58t66 -24t69.5 24t34.5 63z" />
    <glyph glyph-name="integral" unicode="&#x222b;" horiz-adv-x="262" 
d="M210 783q21 74 66.5 104.5t110.5 30.5h20l-22 -79h-20q-23 0 -38.5 -12t-25.5 -44l-240 -840q-21 -75 -63.5 -108t-111.5 -33h-23l21 79h25q26 0 38 13t23 49z" />
    <glyph glyph-name="approxequal" unicode="&#x2248;" horiz-adv-x="518" 
d="M211 559q29 0 50 -10.5t39 -23t35.5 -23t39.5 -10.5q27 0 46 18.5t30 48.5h71q-26 -75 -69 -112.5t-98 -37.5q-29 0 -50 10.5t-39 23t-35.5 23t-39.5 10.5q-27 0 -46 -19t-30 -49h-71q26 75 68.5 113t98.5 38zM174 348q29 0 50 -10.5t39 -23t35.5 -23t39.5 -10.5
q27 0 46 18.5t30 48.5h71q-26 -75 -69 -112.5t-98 -37.5q-29 0 -50 10.5t-39 23t-35.5 23t-39.5 10.5q-27 0 -46 -19t-30 -49h-71q26 75 68.5 113t98.5 38z" />
    <glyph glyph-name="notequal" unicode="&#x2260;" horiz-adv-x="586" 
d="M380 431l-120 -130h284l-15 -83h-345l-98 -107h-52l98 107h-123l14 83h185l118 130h-280l15 83h341l98 107h54l-98 -107h125l-14 -83h-187z" />
    <glyph glyph-name="lessequal" unicode="&#x2264;" horiz-adv-x="428" 
d="M161 404l207 -191h-115l-210 191l278 192h114zM12 163h351l-13 -73h-350z" />
    <glyph glyph-name="greaterequal" unicode="&#x2265;" horiz-adv-x="428" 
d="M14 213l274 190l-207 193h115l209 -192l-276 -191h-115zM1 163h351l-13 -73h-351z" />
    <glyph glyph-name="lozenge" unicode="&#x25ca;" horiz-adv-x="554" 
d="M518 350l-284 -241l-198 241l285 241zM134 350l117 -144l170 144l-118 144z" />
    <glyph glyph-name="fi" unicode="&#xfb01;" horiz-adv-x="571" 
d="M226 549h311l-97 -549h-92l83 469h-219l-82 -469h-92l83 469h-77l14 80h77l4 22q17 95 77 143.5t172 44.5l-14 -80q-71 2 -102.5 -25.5t-42.5 -89.5zM528 756q28 0 42.5 -15t10.5 -40q-5 -25 -24.5 -40t-47.5 -15t-42.5 15t-9.5 40q4 25 23.5 40t47.5 15z" />
    <glyph glyph-name="fl" unicode="&#xfb02;" horiz-adv-x="577" 
d="M368 679q-73 2 -105.5 -25.5t-43.5 -89.5l-3 -15h129l-13 -80h-130l-83 -469h-91l82 469h-78l14 80h78l4 22q17 95 78.5 144t176.5 44zM590 740l-130 -740h-92l130 740h92z" />
    <glyph glyph-name="uni03020300" horiz-adv-x="0" 
d="M16 774l-19 -37l-138 86l25 49zM-103 695l-118 -64l-12 39l137 74l112 -74l-24 -39z" />
    <glyph glyph-name="uni03020301" horiz-adv-x="0" 
d="M16 839l-167 -82l-12 33l161 96zM-96 693l-118 -64l-12 39l137 74l112 -74l-24 -39z" />
    <glyph glyph-name="uni03020303" horiz-adv-x="0" 
d="M-113 846q17 0 28.5 -6.5t21.5 -14.5t20 -14.5t25 -6.5q14 0 26 10t18 30h40q-13 -42 -37.5 -63t-56.5 -21q-18 0 -30.5 6.5t-22.5 14t-19.5 14t-22.5 6.5q-31 0 -44 -41h-39q28 86 93 86zM-102 695l-118 -64l-12 39l137 74l112 -74l-24 -39z" />
    <glyph glyph-name="uni03020309" horiz-adv-x="0" 
d="M48 893q42 0 58 -21.5t10 -57.5q-5 -29 -28.5 -50t-59.5 -51l-24 24q29 23 46 41t21 36q4 22 -4.5 29.5t-27.5 7.5q-21 0 -30.5 -11t-16.5 -33l-43 4q4 14 10.5 28.5t17.5 26.5t28 19.5t43 7.5zM-99 693l-118 -64l-12 39l137 74l112 -74l-24 -39z" />
    <glyph glyph-name="uni03060300" horiz-adv-x="0" 
d="M31 831l-19 -37l-138 86l25 49zM-120 617q-62 0 -88 36t-18 87l2 8h42q-7 -35 10.5 -55t61.5 -20q43 0 68 20t30 55h42l-1 -8q-10 -51 -48 -87t-101 -36z" />
    <glyph glyph-name="uni03060301" horiz-adv-x="0" 
d="M26 881l-167 -82l-12 33l161 96zM-120 617q-62 0 -88 36t-18 87l2 8h42q-7 -35 10.5 -55t61.5 -20q43 0 68 20t30 55h42l-1 -8q-10 -51 -48 -87t-101 -36z" />
    <glyph glyph-name="uni03060303" horiz-adv-x="0" 
d="M-115 894q18 0 30.5 -7t23 -15t21 -15t25.5 -7t28 10.5t20 31.5h42q-14 -45 -40.5 -67.5t-59.5 -22.5q-20 0 -32.5 7t-23 15.5t-21 15.5t-24.5 7q-33 0 -46 -44h-42q30 91 99 91zM-120 616q-62 0 -88 36t-18 87l2 8h42q-7 -35 10.5 -55t61.5 -20q43 0 68 20t30 55h42
l-1 -8q-10 -51 -48 -87t-101 -36z" />
    <glyph glyph-name="uni03060309" horiz-adv-x="0" 
d="M-47 974q42 0 58 -21.5t10 -57.5q-5 -29 -28.5 -50t-59.5 -51l-24 24q29 23 46 41t21 36q4 22 -4.5 29.5t-27.5 7.5q-21 0 -30.5 -11t-16.5 -33l-43 4q4 14 10.5 28.5t17.5 26.5t28 19.5t43 7.5zM-121 616q-62 0 -88 36t-18 87l2 8h42q-7 -35 10.5 -55t61.5 -20
q43 0 68 20t30 55h42l-1 -8q-10 -51 -48 -87t-101 -36z" />
  </font>
</defs>
</svg>
